G04 #@! TF.GenerationSoftware,KiCad,Pcbnew,(5.1.4)-1*
G04 #@! TF.CreationDate,2021-09-03T03:45:49-10:00*
G04 #@! TF.ProjectId,oya45,6f796134-352e-46b6-9963-61645f706362,rev?*
G04 #@! TF.SameCoordinates,Original*
G04 #@! TF.FileFunction,Legend,Bot*
G04 #@! TF.FilePolarity,Positive*
%FSLAX46Y46*%
G04 Gerber Fmt 4.6, Leading zero omitted, Abs format (unit mm)*
G04 Created by KiCad (PCBNEW (5.1.4)-1) date 2021-09-03 03:45:49*
%MOMM*%
%LPD*%
G04 APERTURE LIST*
%ADD10C,0.381000*%
%ADD11C,0.150000*%
%ADD12C,0.010000*%
%ADD13C,4.089800*%
%ADD14C,1.852000*%
%ADD15C,3.150000*%
%ADD16R,1.854600X1.854600*%
%ADD17C,1.854600*%
G04 APERTURE END LIST*
D10*
X102235000Y-29210000D02*
X132715000Y-29210000D01*
X132715000Y-29210000D02*
X132715000Y-46990000D01*
X132715000Y-46990000D02*
X102235000Y-46990000D01*
X102235000Y-31750000D02*
X104775000Y-31750000D01*
X104775000Y-31750000D02*
X104775000Y-29210000D01*
D11*
G36*
X108114360Y-43031568D02*
G01*
X108414360Y-43031568D01*
X108414360Y-42931568D01*
X108114360Y-42931568D01*
X108114360Y-43031568D01*
G37*
X108114360Y-43031568D02*
X108414360Y-43031568D01*
X108414360Y-42931568D01*
X108114360Y-42931568D01*
X108114360Y-43031568D01*
G36*
X108514360Y-42831568D02*
G01*
X108614360Y-42831568D01*
X108614360Y-42731568D01*
X108514360Y-42731568D01*
X108514360Y-42831568D01*
G37*
X108514360Y-42831568D02*
X108614360Y-42831568D01*
X108614360Y-42731568D01*
X108514360Y-42731568D01*
X108514360Y-42831568D01*
G36*
X108114360Y-43031568D02*
G01*
X108214360Y-43031568D01*
X108214360Y-42531568D01*
X108114360Y-42531568D01*
X108114360Y-43031568D01*
G37*
X108114360Y-43031568D02*
X108214360Y-43031568D01*
X108214360Y-42531568D01*
X108114360Y-42531568D01*
X108114360Y-43031568D01*
G36*
X108114360Y-42631568D02*
G01*
X108914360Y-42631568D01*
X108914360Y-42531568D01*
X108114360Y-42531568D01*
X108114360Y-42631568D01*
G37*
X108114360Y-42631568D02*
X108914360Y-42631568D01*
X108914360Y-42531568D01*
X108114360Y-42531568D01*
X108114360Y-42631568D01*
G36*
X108714360Y-43031568D02*
G01*
X108914360Y-43031568D01*
X108914360Y-42931568D01*
X108714360Y-42931568D01*
X108714360Y-43031568D01*
G37*
X108714360Y-43031568D02*
X108914360Y-43031568D01*
X108914360Y-42931568D01*
X108714360Y-42931568D01*
X108714360Y-43031568D01*
D10*
X102235000Y-46990000D02*
X99695000Y-46990000D01*
X99695000Y-46990000D02*
X99695000Y-29210000D01*
X99695000Y-29210000D02*
X102235000Y-29210000D01*
X102235000Y-31750000D02*
X102235000Y-29210000D01*
D11*
X128847857Y-43237190D02*
X128885952Y-43351476D01*
X128924047Y-43389571D01*
X129000238Y-43427666D01*
X129114523Y-43427666D01*
X129190714Y-43389571D01*
X129228809Y-43351476D01*
X129266904Y-43275285D01*
X129266904Y-42970523D01*
X128466904Y-42970523D01*
X128466904Y-43237190D01*
X128505000Y-43313380D01*
X128543095Y-43351476D01*
X128619285Y-43389571D01*
X128695476Y-43389571D01*
X128771666Y-43351476D01*
X128809761Y-43313380D01*
X128847857Y-43237190D01*
X128847857Y-42970523D01*
X128543095Y-43732428D02*
X128505000Y-43770523D01*
X128466904Y-43846714D01*
X128466904Y-44037190D01*
X128505000Y-44113380D01*
X128543095Y-44151476D01*
X128619285Y-44189571D01*
X128695476Y-44189571D01*
X128809761Y-44151476D01*
X129266904Y-43694333D01*
X129266904Y-44189571D01*
X121227857Y-43294333D02*
X121227857Y-43027666D01*
X121646904Y-43027666D02*
X120846904Y-43027666D01*
X120846904Y-43408619D01*
X120846904Y-43637190D02*
X120846904Y-44170523D01*
X121646904Y-43827666D01*
X118687857Y-43294333D02*
X118687857Y-43027666D01*
X119106904Y-43027666D02*
X118306904Y-43027666D01*
X118306904Y-43408619D01*
X118306904Y-44056238D02*
X118306904Y-43903857D01*
X118345000Y-43827666D01*
X118383095Y-43789571D01*
X118497380Y-43713380D01*
X118649761Y-43675285D01*
X118954523Y-43675285D01*
X119030714Y-43713380D01*
X119068809Y-43751476D01*
X119106904Y-43827666D01*
X119106904Y-43980047D01*
X119068809Y-44056238D01*
X119030714Y-44094333D01*
X118954523Y-44132428D01*
X118764047Y-44132428D01*
X118687857Y-44094333D01*
X118649761Y-44056238D01*
X118611666Y-43980047D01*
X118611666Y-43827666D01*
X118649761Y-43751476D01*
X118687857Y-43713380D01*
X118764047Y-43675285D01*
X116147857Y-43294333D02*
X116147857Y-43027666D01*
X116566904Y-43027666D02*
X115766904Y-43027666D01*
X115766904Y-43408619D01*
X115766904Y-44094333D02*
X115766904Y-43713380D01*
X116147857Y-43675285D01*
X116109761Y-43713380D01*
X116071666Y-43789571D01*
X116071666Y-43980047D01*
X116109761Y-44056238D01*
X116147857Y-44094333D01*
X116224047Y-44132428D01*
X116414523Y-44132428D01*
X116490714Y-44094333D01*
X116528809Y-44056238D01*
X116566904Y-43980047D01*
X116566904Y-43789571D01*
X116528809Y-43713380D01*
X116490714Y-43675285D01*
X103866904Y-43008619D02*
X103485952Y-42741952D01*
X103866904Y-42551476D02*
X103066904Y-42551476D01*
X103066904Y-42856238D01*
X103105000Y-42932428D01*
X103143095Y-42970523D01*
X103219285Y-43008619D01*
X103333571Y-43008619D01*
X103409761Y-42970523D01*
X103447857Y-42932428D01*
X103485952Y-42856238D01*
X103485952Y-42551476D01*
X103638333Y-43313380D02*
X103638333Y-43694333D01*
X103866904Y-43237190D02*
X103066904Y-43503857D01*
X103866904Y-43770523D01*
X103066904Y-43961000D02*
X103866904Y-44151476D01*
X103295476Y-44303857D01*
X103866904Y-44456238D01*
X103066904Y-44646714D01*
X105645000Y-42951476D02*
X105606904Y-42875285D01*
X105606904Y-42761000D01*
X105645000Y-42646714D01*
X105721190Y-42570523D01*
X105797380Y-42532428D01*
X105949761Y-42494333D01*
X106064047Y-42494333D01*
X106216428Y-42532428D01*
X106292619Y-42570523D01*
X106368809Y-42646714D01*
X106406904Y-42761000D01*
X106406904Y-42837190D01*
X106368809Y-42951476D01*
X106330714Y-42989571D01*
X106064047Y-42989571D01*
X106064047Y-42837190D01*
X106406904Y-43332428D02*
X105606904Y-43332428D01*
X106406904Y-43789571D01*
X105606904Y-43789571D01*
X106406904Y-44170523D02*
X105606904Y-44170523D01*
X105606904Y-44361000D01*
X105645000Y-44475285D01*
X105721190Y-44551476D01*
X105797380Y-44589571D01*
X105949761Y-44627666D01*
X106064047Y-44627666D01*
X106216428Y-44589571D01*
X106292619Y-44551476D01*
X106368809Y-44475285D01*
X106406904Y-44361000D01*
X106406904Y-44170523D01*
X108878809Y-43299786D02*
X108916904Y-43414072D01*
X108916904Y-43604548D01*
X108878809Y-43680739D01*
X108840714Y-43718834D01*
X108764523Y-43756929D01*
X108688333Y-43756929D01*
X108612142Y-43718834D01*
X108574047Y-43680739D01*
X108535952Y-43604548D01*
X108497857Y-43452167D01*
X108459761Y-43375977D01*
X108421666Y-43337881D01*
X108345476Y-43299786D01*
X108269285Y-43299786D01*
X108193095Y-43337881D01*
X108155000Y-43375977D01*
X108116904Y-43452167D01*
X108116904Y-43642643D01*
X108155000Y-43756929D01*
X108116904Y-43985500D02*
X108116904Y-44442643D01*
X108916904Y-44214072D02*
X108116904Y-44214072D01*
X110686904Y-42494333D02*
X111486904Y-42761000D01*
X110686904Y-43027666D01*
X111410714Y-43751476D02*
X111448809Y-43713380D01*
X111486904Y-43599095D01*
X111486904Y-43522904D01*
X111448809Y-43408619D01*
X111372619Y-43332428D01*
X111296428Y-43294333D01*
X111144047Y-43256238D01*
X111029761Y-43256238D01*
X110877380Y-43294333D01*
X110801190Y-43332428D01*
X110725000Y-43408619D01*
X110686904Y-43522904D01*
X110686904Y-43599095D01*
X110725000Y-43713380D01*
X110763095Y-43751476D01*
X111410714Y-44551476D02*
X111448809Y-44513380D01*
X111486904Y-44399095D01*
X111486904Y-44322904D01*
X111448809Y-44208619D01*
X111372619Y-44132428D01*
X111296428Y-44094333D01*
X111144047Y-44056238D01*
X111029761Y-44056238D01*
X110877380Y-44094333D01*
X110801190Y-44132428D01*
X110725000Y-44208619D01*
X110686904Y-44322904D01*
X110686904Y-44399095D01*
X110725000Y-44513380D01*
X110763095Y-44551476D01*
X113607857Y-43294333D02*
X113607857Y-43027666D01*
X114026904Y-43027666D02*
X113226904Y-43027666D01*
X113226904Y-43408619D01*
X113493571Y-44056238D02*
X114026904Y-44056238D01*
X113188809Y-43865761D02*
X113760238Y-43675285D01*
X113760238Y-44170523D01*
X123767857Y-43237190D02*
X123805952Y-43351476D01*
X123844047Y-43389571D01*
X123920238Y-43427666D01*
X124034523Y-43427666D01*
X124110714Y-43389571D01*
X124148809Y-43351476D01*
X124186904Y-43275285D01*
X124186904Y-42970523D01*
X123386904Y-42970523D01*
X123386904Y-43237190D01*
X123425000Y-43313380D01*
X123463095Y-43351476D01*
X123539285Y-43389571D01*
X123615476Y-43389571D01*
X123691666Y-43351476D01*
X123729761Y-43313380D01*
X123767857Y-43237190D01*
X123767857Y-42970523D01*
X124186904Y-44189571D02*
X124186904Y-43732428D01*
X124186904Y-43961000D02*
X123386904Y-43961000D01*
X123501190Y-43884809D01*
X123577380Y-43808619D01*
X123615476Y-43732428D01*
X126307857Y-43237190D02*
X126345952Y-43351476D01*
X126384047Y-43389571D01*
X126460238Y-43427666D01*
X126574523Y-43427666D01*
X126650714Y-43389571D01*
X126688809Y-43351476D01*
X126726904Y-43275285D01*
X126726904Y-42970523D01*
X125926904Y-42970523D01*
X125926904Y-43237190D01*
X125965000Y-43313380D01*
X126003095Y-43351476D01*
X126079285Y-43389571D01*
X126155476Y-43389571D01*
X126231666Y-43351476D01*
X126269761Y-43313380D01*
X126307857Y-43237190D01*
X126307857Y-42970523D01*
X125926904Y-43694333D02*
X125926904Y-44189571D01*
X126231666Y-43922904D01*
X126231666Y-44037190D01*
X126269761Y-44113380D01*
X126307857Y-44151476D01*
X126384047Y-44189571D01*
X126574523Y-44189571D01*
X126650714Y-44151476D01*
X126688809Y-44113380D01*
X126726904Y-44037190D01*
X126726904Y-43808619D01*
X126688809Y-43732428D01*
X126650714Y-43694333D01*
X131387857Y-43237190D02*
X131425952Y-43351476D01*
X131464047Y-43389571D01*
X131540238Y-43427666D01*
X131654523Y-43427666D01*
X131730714Y-43389571D01*
X131768809Y-43351476D01*
X131806904Y-43275285D01*
X131806904Y-42970523D01*
X131006904Y-42970523D01*
X131006904Y-43237190D01*
X131045000Y-43313380D01*
X131083095Y-43351476D01*
X131159285Y-43389571D01*
X131235476Y-43389571D01*
X131311666Y-43351476D01*
X131349761Y-43313380D01*
X131387857Y-43237190D01*
X131387857Y-42970523D01*
X131006904Y-44113380D02*
X131006904Y-43961000D01*
X131045000Y-43884809D01*
X131083095Y-43846714D01*
X131197380Y-43770523D01*
X131349761Y-43732428D01*
X131654523Y-43732428D01*
X131730714Y-43770523D01*
X131768809Y-43808619D01*
X131806904Y-43884809D01*
X131806904Y-44037190D01*
X131768809Y-44113380D01*
X131730714Y-44151476D01*
X131654523Y-44189571D01*
X131464047Y-44189571D01*
X131387857Y-44151476D01*
X131349761Y-44113380D01*
X131311666Y-44037190D01*
X131311666Y-43884809D01*
X131349761Y-43808619D01*
X131387857Y-43770523D01*
X131464047Y-43732428D01*
X131387857Y-32315190D02*
X131425952Y-32429476D01*
X131464047Y-32467571D01*
X131540238Y-32505666D01*
X131654523Y-32505666D01*
X131730714Y-32467571D01*
X131768809Y-32429476D01*
X131806904Y-32353285D01*
X131806904Y-32048523D01*
X131006904Y-32048523D01*
X131006904Y-32315190D01*
X131045000Y-32391380D01*
X131083095Y-32429476D01*
X131159285Y-32467571D01*
X131235476Y-32467571D01*
X131311666Y-32429476D01*
X131349761Y-32391380D01*
X131387857Y-32315190D01*
X131387857Y-32048523D01*
X131006904Y-33229476D02*
X131006904Y-32848523D01*
X131387857Y-32810428D01*
X131349761Y-32848523D01*
X131311666Y-32924714D01*
X131311666Y-33115190D01*
X131349761Y-33191380D01*
X131387857Y-33229476D01*
X131464047Y-33267571D01*
X131654523Y-33267571D01*
X131730714Y-33229476D01*
X131768809Y-33191380D01*
X131806904Y-33115190D01*
X131806904Y-32924714D01*
X131768809Y-32848523D01*
X131730714Y-32810428D01*
X128847857Y-32315190D02*
X128885952Y-32429476D01*
X128924047Y-32467571D01*
X129000238Y-32505666D01*
X129114523Y-32505666D01*
X129190714Y-32467571D01*
X129228809Y-32429476D01*
X129266904Y-32353285D01*
X129266904Y-32048523D01*
X128466904Y-32048523D01*
X128466904Y-32315190D01*
X128505000Y-32391380D01*
X128543095Y-32429476D01*
X128619285Y-32467571D01*
X128695476Y-32467571D01*
X128771666Y-32429476D01*
X128809761Y-32391380D01*
X128847857Y-32315190D01*
X128847857Y-32048523D01*
X128733571Y-33191380D02*
X129266904Y-33191380D01*
X128428809Y-33000904D02*
X129000238Y-32810428D01*
X129000238Y-33305666D01*
X126307857Y-32086619D02*
X126307857Y-32353285D01*
X126726904Y-32467571D02*
X126726904Y-32086619D01*
X125926904Y-32086619D01*
X125926904Y-32467571D01*
X125926904Y-33153285D02*
X125926904Y-33000904D01*
X125965000Y-32924714D01*
X126003095Y-32886619D01*
X126117380Y-32810428D01*
X126269761Y-32772333D01*
X126574523Y-32772333D01*
X126650714Y-32810428D01*
X126688809Y-32848523D01*
X126726904Y-32924714D01*
X126726904Y-33077095D01*
X126688809Y-33153285D01*
X126650714Y-33191380D01*
X126574523Y-33229476D01*
X126384047Y-33229476D01*
X126307857Y-33191380D01*
X126269761Y-33153285D01*
X126231666Y-33077095D01*
X126231666Y-32924714D01*
X126269761Y-32848523D01*
X126307857Y-32810428D01*
X126384047Y-32772333D01*
X124186904Y-32048523D02*
X123386904Y-32048523D01*
X123386904Y-32239000D01*
X123425000Y-32353285D01*
X123501190Y-32429476D01*
X123577380Y-32467571D01*
X123729761Y-32505666D01*
X123844047Y-32505666D01*
X123996428Y-32467571D01*
X124072619Y-32429476D01*
X124148809Y-32353285D01*
X124186904Y-32239000D01*
X124186904Y-32048523D01*
X123386904Y-32772333D02*
X123386904Y-33305666D01*
X124186904Y-32962809D01*
X121570714Y-32505666D02*
X121608809Y-32467571D01*
X121646904Y-32353285D01*
X121646904Y-32277095D01*
X121608809Y-32162809D01*
X121532619Y-32086619D01*
X121456428Y-32048523D01*
X121304047Y-32010428D01*
X121189761Y-32010428D01*
X121037380Y-32048523D01*
X120961190Y-32086619D01*
X120885000Y-32162809D01*
X120846904Y-32277095D01*
X120846904Y-32353285D01*
X120885000Y-32467571D01*
X120923095Y-32505666D01*
X120846904Y-33191380D02*
X120846904Y-33039000D01*
X120885000Y-32962809D01*
X120923095Y-32924714D01*
X121037380Y-32848523D01*
X121189761Y-32810428D01*
X121494523Y-32810428D01*
X121570714Y-32848523D01*
X121608809Y-32886619D01*
X121646904Y-32962809D01*
X121646904Y-33115190D01*
X121608809Y-33191380D01*
X121570714Y-33229476D01*
X121494523Y-33267571D01*
X121304047Y-33267571D01*
X121227857Y-33229476D01*
X121189761Y-33191380D01*
X121151666Y-33115190D01*
X121151666Y-32962809D01*
X121189761Y-32886619D01*
X121227857Y-32848523D01*
X121304047Y-32810428D01*
X119106904Y-32048523D02*
X118306904Y-32048523D01*
X118306904Y-32239000D01*
X118345000Y-32353285D01*
X118421190Y-32429476D01*
X118497380Y-32467571D01*
X118649761Y-32505666D01*
X118764047Y-32505666D01*
X118916428Y-32467571D01*
X118992619Y-32429476D01*
X119068809Y-32353285D01*
X119106904Y-32239000D01*
X119106904Y-32048523D01*
X118573571Y-33191380D02*
X119106904Y-33191380D01*
X118268809Y-33000904D02*
X118840238Y-32810428D01*
X118840238Y-33305666D01*
X108185000Y-32029476D02*
X108146904Y-31953285D01*
X108146904Y-31839000D01*
X108185000Y-31724714D01*
X108261190Y-31648523D01*
X108337380Y-31610428D01*
X108489761Y-31572333D01*
X108604047Y-31572333D01*
X108756428Y-31610428D01*
X108832619Y-31648523D01*
X108908809Y-31724714D01*
X108946904Y-31839000D01*
X108946904Y-31915190D01*
X108908809Y-32029476D01*
X108870714Y-32067571D01*
X108604047Y-32067571D01*
X108604047Y-31915190D01*
X108946904Y-32410428D02*
X108146904Y-32410428D01*
X108946904Y-32867571D01*
X108146904Y-32867571D01*
X108946904Y-33248523D02*
X108146904Y-33248523D01*
X108146904Y-33439000D01*
X108185000Y-33553285D01*
X108261190Y-33629476D01*
X108337380Y-33667571D01*
X108489761Y-33705666D01*
X108604047Y-33705666D01*
X108756428Y-33667571D01*
X108832619Y-33629476D01*
X108908809Y-33553285D01*
X108946904Y-33439000D01*
X108946904Y-33248523D01*
X110725000Y-32029476D02*
X110686904Y-31953285D01*
X110686904Y-31839000D01*
X110725000Y-31724714D01*
X110801190Y-31648523D01*
X110877380Y-31610428D01*
X111029761Y-31572333D01*
X111144047Y-31572333D01*
X111296428Y-31610428D01*
X111372619Y-31648523D01*
X111448809Y-31724714D01*
X111486904Y-31839000D01*
X111486904Y-31915190D01*
X111448809Y-32029476D01*
X111410714Y-32067571D01*
X111144047Y-32067571D01*
X111144047Y-31915190D01*
X111486904Y-32410428D02*
X110686904Y-32410428D01*
X111486904Y-32867571D01*
X110686904Y-32867571D01*
X111486904Y-33248523D02*
X110686904Y-33248523D01*
X110686904Y-33439000D01*
X110725000Y-33553285D01*
X110801190Y-33629476D01*
X110877380Y-33667571D01*
X111029761Y-33705666D01*
X111144047Y-33705666D01*
X111296428Y-33667571D01*
X111372619Y-33629476D01*
X111448809Y-33553285D01*
X111486904Y-33439000D01*
X111486904Y-33248523D01*
X114026904Y-32048523D02*
X113226904Y-32048523D01*
X113226904Y-32239000D01*
X113265000Y-32353285D01*
X113341190Y-32429476D01*
X113417380Y-32467571D01*
X113569761Y-32505666D01*
X113684047Y-32505666D01*
X113836428Y-32467571D01*
X113912619Y-32429476D01*
X113988809Y-32353285D01*
X114026904Y-32239000D01*
X114026904Y-32048523D01*
X114026904Y-33267571D02*
X114026904Y-32810428D01*
X114026904Y-33039000D02*
X113226904Y-33039000D01*
X113341190Y-32962809D01*
X113417380Y-32886619D01*
X113455476Y-32810428D01*
X116566904Y-32048523D02*
X115766904Y-32048523D01*
X115766904Y-32239000D01*
X115805000Y-32353285D01*
X115881190Y-32429476D01*
X115957380Y-32467571D01*
X116109761Y-32505666D01*
X116224047Y-32505666D01*
X116376428Y-32467571D01*
X116452619Y-32429476D01*
X116528809Y-32353285D01*
X116566904Y-32239000D01*
X116566904Y-32048523D01*
X115766904Y-33000904D02*
X115766904Y-33077095D01*
X115805000Y-33153285D01*
X115843095Y-33191380D01*
X115919285Y-33229476D01*
X116071666Y-33267571D01*
X116262142Y-33267571D01*
X116414523Y-33229476D01*
X116490714Y-33191380D01*
X116528809Y-33153285D01*
X116566904Y-33077095D01*
X116566904Y-33000904D01*
X116528809Y-32924714D01*
X116490714Y-32886619D01*
X116414523Y-32848523D01*
X116262142Y-32810428D01*
X116071666Y-32810428D01*
X115919285Y-32848523D01*
X115843095Y-32886619D01*
X115805000Y-32924714D01*
X115766904Y-33000904D01*
X106406904Y-32048523D02*
X105606904Y-32048523D01*
X105606904Y-32239000D01*
X105645000Y-32353285D01*
X105721190Y-32429476D01*
X105797380Y-32467571D01*
X105949761Y-32505666D01*
X106064047Y-32505666D01*
X106216428Y-32467571D01*
X106292619Y-32429476D01*
X106368809Y-32353285D01*
X106406904Y-32239000D01*
X106406904Y-32048523D01*
X105683095Y-32810428D02*
X105645000Y-32848523D01*
X105606904Y-32924714D01*
X105606904Y-33115190D01*
X105645000Y-33191380D01*
X105683095Y-33229476D01*
X105759285Y-33267571D01*
X105835476Y-33267571D01*
X105949761Y-33229476D01*
X106406904Y-32772333D01*
X106406904Y-33267571D01*
X103066904Y-32337651D02*
X103066904Y-32794794D01*
X103866904Y-32566223D02*
X103066904Y-32566223D01*
X103066904Y-32985270D02*
X103866904Y-33518604D01*
X103066904Y-33518604D02*
X103866904Y-32985270D01*
X103066904Y-33975747D02*
X103066904Y-34051937D01*
X103105000Y-34128128D01*
X103143095Y-34166223D01*
X103219285Y-34204318D01*
X103371666Y-34242413D01*
X103562142Y-34242413D01*
X103714523Y-34204318D01*
X103790714Y-34166223D01*
X103828809Y-34128128D01*
X103866904Y-34051937D01*
X103866904Y-33975747D01*
X103828809Y-33899556D01*
X103790714Y-33861461D01*
X103714523Y-33823366D01*
X103562142Y-33785270D01*
X103371666Y-33785270D01*
X103219285Y-33823366D01*
X103143095Y-33861461D01*
X103105000Y-33899556D01*
X103066904Y-33975747D01*
X103028809Y-35156699D02*
X104057380Y-34470985D01*
X103866904Y-35423366D02*
X103066904Y-35423366D01*
X103066904Y-35613842D01*
X103105000Y-35728128D01*
X103181190Y-35804318D01*
X103257380Y-35842413D01*
X103409761Y-35880508D01*
X103524047Y-35880508D01*
X103676428Y-35842413D01*
X103752619Y-35804318D01*
X103828809Y-35728128D01*
X103866904Y-35613842D01*
X103866904Y-35423366D01*
X103066904Y-36147175D02*
X103066904Y-36642413D01*
X103371666Y-36375747D01*
X103371666Y-36490032D01*
X103409761Y-36566223D01*
X103447857Y-36604318D01*
X103524047Y-36642413D01*
X103714523Y-36642413D01*
X103790714Y-36604318D01*
X103828809Y-36566223D01*
X103866904Y-36490032D01*
X103866904Y-36261461D01*
X103828809Y-36185270D01*
X103790714Y-36147175D01*
%LPC*%
D12*
G36*
X69532918Y-29255539D02*
G01*
X69501752Y-29299672D01*
X69457436Y-29374116D01*
X69397115Y-29483713D01*
X69317933Y-29633306D01*
X69217037Y-29827738D01*
X69196124Y-29868309D01*
X69104846Y-30044745D01*
X69034952Y-30176915D01*
X68982377Y-30270935D01*
X68943051Y-30332918D01*
X68912909Y-30368980D01*
X68887883Y-30385236D01*
X68863905Y-30387800D01*
X68851773Y-30386001D01*
X68707971Y-30359582D01*
X68544747Y-30331704D01*
X68371194Y-30303683D01*
X68196406Y-30276837D01*
X68029476Y-30252482D01*
X67879499Y-30231938D01*
X67755568Y-30216520D01*
X67666777Y-30207546D01*
X67622220Y-30206333D01*
X67619026Y-30207428D01*
X67632030Y-30232496D01*
X67680184Y-30291212D01*
X67758215Y-30377826D01*
X67860854Y-30486590D01*
X67982829Y-30611751D01*
X68067658Y-30696860D01*
X68537889Y-31164694D01*
X68384060Y-31450291D01*
X68253495Y-31694976D01*
X68144744Y-31903565D01*
X68059035Y-32073558D01*
X67997592Y-32202456D01*
X67961641Y-32287760D01*
X67952408Y-32326971D01*
X67953322Y-32328645D01*
X67982350Y-32321459D01*
X68054441Y-32291921D01*
X68162380Y-32243331D01*
X68298954Y-32178992D01*
X68456948Y-32102206D01*
X68561792Y-32050149D01*
X69152932Y-31754323D01*
X69615798Y-32217828D01*
X69747824Y-32349342D01*
X69866625Y-32466362D01*
X69966424Y-32563305D01*
X70041443Y-32634587D01*
X70085906Y-32674626D01*
X70095448Y-32681333D01*
X70126525Y-32667040D01*
X70126134Y-32636324D01*
X70117241Y-32557982D01*
X70100978Y-32440003D01*
X70078481Y-32290375D01*
X70050884Y-32117087D01*
X70033533Y-32012143D01*
X70003260Y-31829738D01*
X69976812Y-31667193D01*
X69955418Y-31532338D01*
X69940308Y-31433001D01*
X69932714Y-31377012D01*
X69932221Y-31367494D01*
X69958173Y-31354535D01*
X70027712Y-31320388D01*
X70133668Y-31268559D01*
X70268873Y-31202552D01*
X70426156Y-31125873D01*
X70523806Y-31078310D01*
X70690411Y-30996082D01*
X70838580Y-30920833D01*
X70961200Y-30856350D01*
X71051157Y-30806421D01*
X71101338Y-30774834D01*
X71109417Y-30766483D01*
X71106366Y-30757469D01*
X71093316Y-30748669D01*
X71064418Y-30738949D01*
X71013827Y-30727175D01*
X70935695Y-30712214D01*
X70824175Y-30692933D01*
X70673421Y-30668198D01*
X70477585Y-30636876D01*
X70276862Y-30605103D01*
X70119695Y-30580033D01*
X69983342Y-30557810D01*
X69876973Y-30539968D01*
X69809760Y-30528040D01*
X69790312Y-30523763D01*
X69784125Y-30495544D01*
X69770500Y-30419496D01*
X69750775Y-30303549D01*
X69726285Y-30155632D01*
X69698371Y-29983674D01*
X69682698Y-29885835D01*
X69653131Y-29703689D01*
X69625697Y-29540789D01*
X69601837Y-29405219D01*
X69582996Y-29305066D01*
X69570616Y-29248414D01*
X69567218Y-29238837D01*
X69553788Y-29236875D01*
X69532918Y-29255539D01*
X69532918Y-29255539D01*
G37*
X69532918Y-29255539D02*
X69501752Y-29299672D01*
X69457436Y-29374116D01*
X69397115Y-29483713D01*
X69317933Y-29633306D01*
X69217037Y-29827738D01*
X69196124Y-29868309D01*
X69104846Y-30044745D01*
X69034952Y-30176915D01*
X68982377Y-30270935D01*
X68943051Y-30332918D01*
X68912909Y-30368980D01*
X68887883Y-30385236D01*
X68863905Y-30387800D01*
X68851773Y-30386001D01*
X68707971Y-30359582D01*
X68544747Y-30331704D01*
X68371194Y-30303683D01*
X68196406Y-30276837D01*
X68029476Y-30252482D01*
X67879499Y-30231938D01*
X67755568Y-30216520D01*
X67666777Y-30207546D01*
X67622220Y-30206333D01*
X67619026Y-30207428D01*
X67632030Y-30232496D01*
X67680184Y-30291212D01*
X67758215Y-30377826D01*
X67860854Y-30486590D01*
X67982829Y-30611751D01*
X68067658Y-30696860D01*
X68537889Y-31164694D01*
X68384060Y-31450291D01*
X68253495Y-31694976D01*
X68144744Y-31903565D01*
X68059035Y-32073558D01*
X67997592Y-32202456D01*
X67961641Y-32287760D01*
X67952408Y-32326971D01*
X67953322Y-32328645D01*
X67982350Y-32321459D01*
X68054441Y-32291921D01*
X68162380Y-32243331D01*
X68298954Y-32178992D01*
X68456948Y-32102206D01*
X68561792Y-32050149D01*
X69152932Y-31754323D01*
X69615798Y-32217828D01*
X69747824Y-32349342D01*
X69866625Y-32466362D01*
X69966424Y-32563305D01*
X70041443Y-32634587D01*
X70085906Y-32674626D01*
X70095448Y-32681333D01*
X70126525Y-32667040D01*
X70126134Y-32636324D01*
X70117241Y-32557982D01*
X70100978Y-32440003D01*
X70078481Y-32290375D01*
X70050884Y-32117087D01*
X70033533Y-32012143D01*
X70003260Y-31829738D01*
X69976812Y-31667193D01*
X69955418Y-31532338D01*
X69940308Y-31433001D01*
X69932714Y-31377012D01*
X69932221Y-31367494D01*
X69958173Y-31354535D01*
X70027712Y-31320388D01*
X70133668Y-31268559D01*
X70268873Y-31202552D01*
X70426156Y-31125873D01*
X70523806Y-31078310D01*
X70690411Y-30996082D01*
X70838580Y-30920833D01*
X70961200Y-30856350D01*
X71051157Y-30806421D01*
X71101338Y-30774834D01*
X71109417Y-30766483D01*
X71106366Y-30757469D01*
X71093316Y-30748669D01*
X71064418Y-30738949D01*
X71013827Y-30727175D01*
X70935695Y-30712214D01*
X70824175Y-30692933D01*
X70673421Y-30668198D01*
X70477585Y-30636876D01*
X70276862Y-30605103D01*
X70119695Y-30580033D01*
X69983342Y-30557810D01*
X69876973Y-30539968D01*
X69809760Y-30528040D01*
X69790312Y-30523763D01*
X69784125Y-30495544D01*
X69770500Y-30419496D01*
X69750775Y-30303549D01*
X69726285Y-30155632D01*
X69698371Y-29983674D01*
X69682698Y-29885835D01*
X69653131Y-29703689D01*
X69625697Y-29540789D01*
X69601837Y-29405219D01*
X69582996Y-29305066D01*
X69570616Y-29248414D01*
X69567218Y-29238837D01*
X69553788Y-29236875D01*
X69532918Y-29255539D01*
G36*
X61878118Y-29775172D02*
G01*
X61854791Y-29846236D01*
X61828494Y-29960756D01*
X61798253Y-30122560D01*
X61763096Y-30335476D01*
X61751276Y-30410978D01*
X61722947Y-30590328D01*
X61696663Y-30750309D01*
X61673858Y-30882700D01*
X61655967Y-30979280D01*
X61644423Y-31031825D01*
X61641754Y-31038848D01*
X61610765Y-31047600D01*
X61532561Y-31063717D01*
X61415657Y-31085616D01*
X61268569Y-31111715D01*
X61099812Y-31140431D01*
X61055528Y-31147785D01*
X60840702Y-31183345D01*
X60675146Y-31211151D01*
X60552441Y-31232674D01*
X60466170Y-31249380D01*
X60409916Y-31262738D01*
X60377261Y-31274216D01*
X60361787Y-31285282D01*
X60357078Y-31297405D01*
X60356750Y-31307645D01*
X60381093Y-31330761D01*
X60448703Y-31372738D01*
X60551453Y-31429100D01*
X60681213Y-31495373D01*
X60817166Y-31561112D01*
X61029280Y-31661218D01*
X61195663Y-31740028D01*
X61321678Y-31800237D01*
X61412686Y-31844538D01*
X61474049Y-31875628D01*
X61511130Y-31896201D01*
X61529289Y-31908951D01*
X61533888Y-31916574D01*
X61531892Y-31920322D01*
X61521188Y-31953919D01*
X61509170Y-32023499D01*
X61504470Y-32060444D01*
X61495157Y-32130683D01*
X61478605Y-32244334D01*
X61456668Y-32389100D01*
X61431201Y-32552686D01*
X61411835Y-32674510D01*
X61381593Y-32874610D01*
X61362438Y-33028055D01*
X61354631Y-33132212D01*
X61358431Y-33184451D01*
X61361041Y-33188912D01*
X61390364Y-33178855D01*
X61456098Y-33128392D01*
X61556699Y-33038896D01*
X61690624Y-32911741D01*
X61854443Y-32750184D01*
X62320508Y-32284119D01*
X62615685Y-32428317D01*
X62774707Y-32506155D01*
X62954612Y-32594453D01*
X63126781Y-32679156D01*
X63201413Y-32715961D01*
X63341838Y-32781789D01*
X63444606Y-32822385D01*
X63505454Y-32836185D01*
X63518890Y-32832482D01*
X63521451Y-32791852D01*
X63493399Y-32710676D01*
X63451772Y-32623500D01*
X63388822Y-32502725D01*
X63311605Y-32356207D01*
X63227685Y-32198129D01*
X63144622Y-32042674D01*
X63069979Y-31904024D01*
X63011317Y-31796360D01*
X62996249Y-31769143D01*
X62936144Y-31661287D01*
X63396225Y-31202087D01*
X63527515Y-31069607D01*
X63644211Y-30949095D01*
X63740670Y-30846606D01*
X63811249Y-30768194D01*
X63850305Y-30719914D01*
X63856306Y-30708367D01*
X63830740Y-30689759D01*
X63760381Y-30686304D01*
X63654738Y-30697749D01*
X63556493Y-30716304D01*
X63485883Y-30730328D01*
X63401271Y-30745493D01*
X63338486Y-30756172D01*
X63233552Y-30774088D01*
X63099956Y-30796938D01*
X62951181Y-30822415D01*
X62916990Y-30828274D01*
X62776151Y-30851148D01*
X62656528Y-30868177D01*
X62568406Y-30878080D01*
X62522073Y-30879579D01*
X62517682Y-30877972D01*
X62497724Y-30841749D01*
X62456355Y-30764293D01*
X62398230Y-30654440D01*
X62327998Y-30521023D01*
X62250312Y-30372877D01*
X62169824Y-30218839D01*
X62100092Y-30084888D01*
X62036127Y-29962524D01*
X61981429Y-29859305D01*
X61941249Y-29785040D01*
X61920842Y-29749540D01*
X61919753Y-29748103D01*
X61899448Y-29743737D01*
X61878118Y-29775172D01*
X61878118Y-29775172D01*
G37*
X61878118Y-29775172D02*
X61854791Y-29846236D01*
X61828494Y-29960756D01*
X61798253Y-30122560D01*
X61763096Y-30335476D01*
X61751276Y-30410978D01*
X61722947Y-30590328D01*
X61696663Y-30750309D01*
X61673858Y-30882700D01*
X61655967Y-30979280D01*
X61644423Y-31031825D01*
X61641754Y-31038848D01*
X61610765Y-31047600D01*
X61532561Y-31063717D01*
X61415657Y-31085616D01*
X61268569Y-31111715D01*
X61099812Y-31140431D01*
X61055528Y-31147785D01*
X60840702Y-31183345D01*
X60675146Y-31211151D01*
X60552441Y-31232674D01*
X60466170Y-31249380D01*
X60409916Y-31262738D01*
X60377261Y-31274216D01*
X60361787Y-31285282D01*
X60357078Y-31297405D01*
X60356750Y-31307645D01*
X60381093Y-31330761D01*
X60448703Y-31372738D01*
X60551453Y-31429100D01*
X60681213Y-31495373D01*
X60817166Y-31561112D01*
X61029280Y-31661218D01*
X61195663Y-31740028D01*
X61321678Y-31800237D01*
X61412686Y-31844538D01*
X61474049Y-31875628D01*
X61511130Y-31896201D01*
X61529289Y-31908951D01*
X61533888Y-31916574D01*
X61531892Y-31920322D01*
X61521188Y-31953919D01*
X61509170Y-32023499D01*
X61504470Y-32060444D01*
X61495157Y-32130683D01*
X61478605Y-32244334D01*
X61456668Y-32389100D01*
X61431201Y-32552686D01*
X61411835Y-32674510D01*
X61381593Y-32874610D01*
X61362438Y-33028055D01*
X61354631Y-33132212D01*
X61358431Y-33184451D01*
X61361041Y-33188912D01*
X61390364Y-33178855D01*
X61456098Y-33128392D01*
X61556699Y-33038896D01*
X61690624Y-32911741D01*
X61854443Y-32750184D01*
X62320508Y-32284119D01*
X62615685Y-32428317D01*
X62774707Y-32506155D01*
X62954612Y-32594453D01*
X63126781Y-32679156D01*
X63201413Y-32715961D01*
X63341838Y-32781789D01*
X63444606Y-32822385D01*
X63505454Y-32836185D01*
X63518890Y-32832482D01*
X63521451Y-32791852D01*
X63493399Y-32710676D01*
X63451772Y-32623500D01*
X63388822Y-32502725D01*
X63311605Y-32356207D01*
X63227685Y-32198129D01*
X63144622Y-32042674D01*
X63069979Y-31904024D01*
X63011317Y-31796360D01*
X62996249Y-31769143D01*
X62936144Y-31661287D01*
X63396225Y-31202087D01*
X63527515Y-31069607D01*
X63644211Y-30949095D01*
X63740670Y-30846606D01*
X63811249Y-30768194D01*
X63850305Y-30719914D01*
X63856306Y-30708367D01*
X63830740Y-30689759D01*
X63760381Y-30686304D01*
X63654738Y-30697749D01*
X63556493Y-30716304D01*
X63485883Y-30730328D01*
X63401271Y-30745493D01*
X63338486Y-30756172D01*
X63233552Y-30774088D01*
X63099956Y-30796938D01*
X62951181Y-30822415D01*
X62916990Y-30828274D01*
X62776151Y-30851148D01*
X62656528Y-30868177D01*
X62568406Y-30878080D01*
X62522073Y-30879579D01*
X62517682Y-30877972D01*
X62497724Y-30841749D01*
X62456355Y-30764293D01*
X62398230Y-30654440D01*
X62327998Y-30521023D01*
X62250312Y-30372877D01*
X62169824Y-30218839D01*
X62100092Y-30084888D01*
X62036127Y-29962524D01*
X61981429Y-29859305D01*
X61941249Y-29785040D01*
X61920842Y-29749540D01*
X61919753Y-29748103D01*
X61899448Y-29743737D01*
X61878118Y-29775172D01*
G36*
X76610696Y-29914646D02*
G01*
X76597937Y-29930564D01*
X76576202Y-29966922D01*
X76541705Y-30030276D01*
X76490658Y-30127182D01*
X76419274Y-30264196D01*
X76373105Y-30353000D01*
X76263427Y-30563492D01*
X76176668Y-30728814D01*
X76110067Y-30854058D01*
X76060862Y-30944318D01*
X76026292Y-31004688D01*
X76003594Y-31040260D01*
X75993754Y-31052651D01*
X75960861Y-31054767D01*
X75880819Y-31048066D01*
X75762057Y-31033611D01*
X75612998Y-31012462D01*
X75442069Y-30985683D01*
X75377828Y-30975040D01*
X75197638Y-30945269D01*
X75033113Y-30919031D01*
X74893532Y-30897730D01*
X74788172Y-30882770D01*
X74726312Y-30875555D01*
X74717480Y-30875111D01*
X74703529Y-30882314D01*
X74711404Y-30906535D01*
X74744478Y-30951689D01*
X74806123Y-31021694D01*
X74899712Y-31120465D01*
X75028616Y-31251919D01*
X75127723Y-31351523D01*
X75603517Y-31827935D01*
X75505000Y-32007690D01*
X75399564Y-32202069D01*
X75300528Y-32388416D01*
X75211121Y-32560320D01*
X75134568Y-32711369D01*
X75074095Y-32835152D01*
X75032929Y-32925258D01*
X75014296Y-32975276D01*
X75014169Y-32983048D01*
X75023223Y-32986662D01*
X75041943Y-32983782D01*
X75075762Y-32971916D01*
X75130112Y-32948576D01*
X75210428Y-32911272D01*
X75322141Y-32857514D01*
X75470686Y-32784812D01*
X75661495Y-32690676D01*
X75778335Y-32632868D01*
X76199808Y-32424221D01*
X76667637Y-32891444D01*
X76800875Y-33023530D01*
X76921385Y-33141139D01*
X77023313Y-33238707D01*
X77100801Y-33310670D01*
X77147995Y-33351464D01*
X77159390Y-33358666D01*
X77172415Y-33335671D01*
X77168501Y-33295166D01*
X77156534Y-33234307D01*
X77139268Y-33133938D01*
X77118145Y-33003739D01*
X77094608Y-32853392D01*
X77070099Y-32692575D01*
X77046061Y-32530969D01*
X77023937Y-32378253D01*
X77005170Y-32244109D01*
X76991201Y-32138216D01*
X76983475Y-32070254D01*
X76982863Y-32049561D01*
X77010258Y-32035124D01*
X77081197Y-31999590D01*
X77188450Y-31946527D01*
X77324790Y-31879503D01*
X77482990Y-31802086D01*
X77583178Y-31753212D01*
X77749237Y-31671399D01*
X77895933Y-31597399D01*
X78016420Y-31534810D01*
X78103851Y-31487228D01*
X78151378Y-31458251D01*
X78157865Y-31451262D01*
X78126965Y-31442582D01*
X78048389Y-31426308D01*
X77930167Y-31403935D01*
X77780328Y-31376958D01*
X77606905Y-31346875D01*
X77504682Y-31329598D01*
X77321763Y-31298464D01*
X77158050Y-31269644D01*
X77021567Y-31244630D01*
X76920338Y-31224913D01*
X76862388Y-31211982D01*
X76851875Y-31208309D01*
X76843495Y-31177471D01*
X76827907Y-31098937D01*
X76806548Y-30980788D01*
X76780858Y-30831108D01*
X76752275Y-30657977D01*
X76736815Y-30561804D01*
X76707427Y-30379910D01*
X76680389Y-30217456D01*
X76657103Y-30082479D01*
X76638972Y-29983016D01*
X76627399Y-29927104D01*
X76624436Y-29917907D01*
X76618267Y-29912613D01*
X76610696Y-29914646D01*
X76610696Y-29914646D01*
G37*
X76610696Y-29914646D02*
X76597937Y-29930564D01*
X76576202Y-29966922D01*
X76541705Y-30030276D01*
X76490658Y-30127182D01*
X76419274Y-30264196D01*
X76373105Y-30353000D01*
X76263427Y-30563492D01*
X76176668Y-30728814D01*
X76110067Y-30854058D01*
X76060862Y-30944318D01*
X76026292Y-31004688D01*
X76003594Y-31040260D01*
X75993754Y-31052651D01*
X75960861Y-31054767D01*
X75880819Y-31048066D01*
X75762057Y-31033611D01*
X75612998Y-31012462D01*
X75442069Y-30985683D01*
X75377828Y-30975040D01*
X75197638Y-30945269D01*
X75033113Y-30919031D01*
X74893532Y-30897730D01*
X74788172Y-30882770D01*
X74726312Y-30875555D01*
X74717480Y-30875111D01*
X74703529Y-30882314D01*
X74711404Y-30906535D01*
X74744478Y-30951689D01*
X74806123Y-31021694D01*
X74899712Y-31120465D01*
X75028616Y-31251919D01*
X75127723Y-31351523D01*
X75603517Y-31827935D01*
X75505000Y-32007690D01*
X75399564Y-32202069D01*
X75300528Y-32388416D01*
X75211121Y-32560320D01*
X75134568Y-32711369D01*
X75074095Y-32835152D01*
X75032929Y-32925258D01*
X75014296Y-32975276D01*
X75014169Y-32983048D01*
X75023223Y-32986662D01*
X75041943Y-32983782D01*
X75075762Y-32971916D01*
X75130112Y-32948576D01*
X75210428Y-32911272D01*
X75322141Y-32857514D01*
X75470686Y-32784812D01*
X75661495Y-32690676D01*
X75778335Y-32632868D01*
X76199808Y-32424221D01*
X76667637Y-32891444D01*
X76800875Y-33023530D01*
X76921385Y-33141139D01*
X77023313Y-33238707D01*
X77100801Y-33310670D01*
X77147995Y-33351464D01*
X77159390Y-33358666D01*
X77172415Y-33335671D01*
X77168501Y-33295166D01*
X77156534Y-33234307D01*
X77139268Y-33133938D01*
X77118145Y-33003739D01*
X77094608Y-32853392D01*
X77070099Y-32692575D01*
X77046061Y-32530969D01*
X77023937Y-32378253D01*
X77005170Y-32244109D01*
X76991201Y-32138216D01*
X76983475Y-32070254D01*
X76982863Y-32049561D01*
X77010258Y-32035124D01*
X77081197Y-31999590D01*
X77188450Y-31946527D01*
X77324790Y-31879503D01*
X77482990Y-31802086D01*
X77583178Y-31753212D01*
X77749237Y-31671399D01*
X77895933Y-31597399D01*
X78016420Y-31534810D01*
X78103851Y-31487228D01*
X78151378Y-31458251D01*
X78157865Y-31451262D01*
X78126965Y-31442582D01*
X78048389Y-31426308D01*
X77930167Y-31403935D01*
X77780328Y-31376958D01*
X77606905Y-31346875D01*
X77504682Y-31329598D01*
X77321763Y-31298464D01*
X77158050Y-31269644D01*
X77021567Y-31244630D01*
X76920338Y-31224913D01*
X76862388Y-31211982D01*
X76851875Y-31208309D01*
X76843495Y-31177471D01*
X76827907Y-31098937D01*
X76806548Y-30980788D01*
X76780858Y-30831108D01*
X76752275Y-30657977D01*
X76736815Y-30561804D01*
X76707427Y-30379910D01*
X76680389Y-30217456D01*
X76657103Y-30082479D01*
X76638972Y-29983016D01*
X76627399Y-29927104D01*
X76624436Y-29917907D01*
X76618267Y-29912613D01*
X76610696Y-29914646D01*
G36*
X83495844Y-31727081D02*
G01*
X83467592Y-31745272D01*
X83427533Y-31795514D01*
X83372970Y-31882211D01*
X83301203Y-32009767D01*
X83209532Y-32182587D01*
X83170486Y-32258000D01*
X83088087Y-32416470D01*
X83012684Y-32558749D01*
X82948640Y-32676818D01*
X82900320Y-32762660D01*
X82872091Y-32808256D01*
X82868618Y-32812493D01*
X82848083Y-32822225D01*
X82808537Y-32825758D01*
X82744721Y-32822379D01*
X82651374Y-32811377D01*
X82523236Y-32792037D01*
X82355049Y-32763649D01*
X82141551Y-32725499D01*
X81904417Y-32681876D01*
X81758863Y-32654842D01*
X81659948Y-32637549D01*
X81598708Y-32630036D01*
X81566179Y-32632339D01*
X81553395Y-32644497D01*
X81551393Y-32666546D01*
X81551639Y-32683349D01*
X81572964Y-32726536D01*
X81636326Y-32805320D01*
X81740804Y-32918684D01*
X81885478Y-33065609D01*
X81989084Y-33167397D01*
X82117841Y-33294497D01*
X82231598Y-33410298D01*
X82324439Y-33508486D01*
X82390446Y-33582749D01*
X82423706Y-33626774D01*
X82426528Y-33634199D01*
X82413646Y-33677776D01*
X82379643Y-33754730D01*
X82331491Y-33849481D01*
X82324299Y-33862763D01*
X82187661Y-34114805D01*
X82077643Y-34321752D01*
X81992555Y-34487341D01*
X81930704Y-34615305D01*
X81890398Y-34709380D01*
X81869947Y-34773301D01*
X81867657Y-34810804D01*
X81881836Y-34825623D01*
X81887902Y-34826222D01*
X81919672Y-34814421D01*
X81994698Y-34781324D01*
X82105509Y-34730390D01*
X82244632Y-34665077D01*
X82404599Y-34588843D01*
X82501735Y-34542073D01*
X83089750Y-34257925D01*
X83531596Y-34711407D01*
X83661365Y-34842611D01*
X83780103Y-34958923D01*
X83881573Y-35054533D01*
X83959540Y-35123634D01*
X84007768Y-35160417D01*
X84018430Y-35164888D01*
X84053622Y-35142732D01*
X84063417Y-35082180D01*
X84058979Y-35028477D01*
X84046648Y-34929637D01*
X84027898Y-34796186D01*
X84004206Y-34638649D01*
X83978750Y-34478036D01*
X83951954Y-34310619D01*
X83928649Y-34160450D01*
X83910275Y-34037191D01*
X83898274Y-33950504D01*
X83894084Y-33910367D01*
X83914570Y-33883627D01*
X83977555Y-33840198D01*
X84085332Y-33778785D01*
X84240193Y-33698092D01*
X84444429Y-33596822D01*
X84474516Y-33582180D01*
X84687789Y-33478458D01*
X84850855Y-33396588D01*
X84963916Y-33333030D01*
X85027177Y-33284243D01*
X85040840Y-33246687D01*
X85005108Y-33216820D01*
X84920184Y-33191103D01*
X84786272Y-33165993D01*
X84603574Y-33137952D01*
X84500862Y-33122745D01*
X84292785Y-33090014D01*
X84109000Y-33057501D01*
X83956316Y-33026654D01*
X83841539Y-32998921D01*
X83771478Y-32975750D01*
X83753041Y-32963666D01*
X83737080Y-32916415D01*
X83720803Y-32835450D01*
X83713371Y-32783552D01*
X83702074Y-32699195D01*
X83684291Y-32575547D01*
X83662438Y-32429054D01*
X83638929Y-32276164D01*
X83638295Y-32272111D01*
X83615403Y-32125618D01*
X83594449Y-31991294D01*
X83577628Y-31883230D01*
X83567137Y-31815519D01*
X83566557Y-31811747D01*
X83549142Y-31747137D01*
X83517524Y-31725925D01*
X83495844Y-31727081D01*
X83495844Y-31727081D01*
G37*
X83495844Y-31727081D02*
X83467592Y-31745272D01*
X83427533Y-31795514D01*
X83372970Y-31882211D01*
X83301203Y-32009767D01*
X83209532Y-32182587D01*
X83170486Y-32258000D01*
X83088087Y-32416470D01*
X83012684Y-32558749D01*
X82948640Y-32676818D01*
X82900320Y-32762660D01*
X82872091Y-32808256D01*
X82868618Y-32812493D01*
X82848083Y-32822225D01*
X82808537Y-32825758D01*
X82744721Y-32822379D01*
X82651374Y-32811377D01*
X82523236Y-32792037D01*
X82355049Y-32763649D01*
X82141551Y-32725499D01*
X81904417Y-32681876D01*
X81758863Y-32654842D01*
X81659948Y-32637549D01*
X81598708Y-32630036D01*
X81566179Y-32632339D01*
X81553395Y-32644497D01*
X81551393Y-32666546D01*
X81551639Y-32683349D01*
X81572964Y-32726536D01*
X81636326Y-32805320D01*
X81740804Y-32918684D01*
X81885478Y-33065609D01*
X81989084Y-33167397D01*
X82117841Y-33294497D01*
X82231598Y-33410298D01*
X82324439Y-33508486D01*
X82390446Y-33582749D01*
X82423706Y-33626774D01*
X82426528Y-33634199D01*
X82413646Y-33677776D01*
X82379643Y-33754730D01*
X82331491Y-33849481D01*
X82324299Y-33862763D01*
X82187661Y-34114805D01*
X82077643Y-34321752D01*
X81992555Y-34487341D01*
X81930704Y-34615305D01*
X81890398Y-34709380D01*
X81869947Y-34773301D01*
X81867657Y-34810804D01*
X81881836Y-34825623D01*
X81887902Y-34826222D01*
X81919672Y-34814421D01*
X81994698Y-34781324D01*
X82105509Y-34730390D01*
X82244632Y-34665077D01*
X82404599Y-34588843D01*
X82501735Y-34542073D01*
X83089750Y-34257925D01*
X83531596Y-34711407D01*
X83661365Y-34842611D01*
X83780103Y-34958923D01*
X83881573Y-35054533D01*
X83959540Y-35123634D01*
X84007768Y-35160417D01*
X84018430Y-35164888D01*
X84053622Y-35142732D01*
X84063417Y-35082180D01*
X84058979Y-35028477D01*
X84046648Y-34929637D01*
X84027898Y-34796186D01*
X84004206Y-34638649D01*
X83978750Y-34478036D01*
X83951954Y-34310619D01*
X83928649Y-34160450D01*
X83910275Y-34037191D01*
X83898274Y-33950504D01*
X83894084Y-33910367D01*
X83914570Y-33883627D01*
X83977555Y-33840198D01*
X84085332Y-33778785D01*
X84240193Y-33698092D01*
X84444429Y-33596822D01*
X84474516Y-33582180D01*
X84687789Y-33478458D01*
X84850855Y-33396588D01*
X84963916Y-33333030D01*
X85027177Y-33284243D01*
X85040840Y-33246687D01*
X85005108Y-33216820D01*
X84920184Y-33191103D01*
X84786272Y-33165993D01*
X84603574Y-33137952D01*
X84500862Y-33122745D01*
X84292785Y-33090014D01*
X84109000Y-33057501D01*
X83956316Y-33026654D01*
X83841539Y-32998921D01*
X83771478Y-32975750D01*
X83753041Y-32963666D01*
X83737080Y-32916415D01*
X83720803Y-32835450D01*
X83713371Y-32783552D01*
X83702074Y-32699195D01*
X83684291Y-32575547D01*
X83662438Y-32429054D01*
X83638929Y-32276164D01*
X83638295Y-32272111D01*
X83615403Y-32125618D01*
X83594449Y-31991294D01*
X83577628Y-31883230D01*
X83567137Y-31815519D01*
X83566557Y-31811747D01*
X83549142Y-31747137D01*
X83517524Y-31725925D01*
X83495844Y-31727081D01*
G36*
X56892749Y-32376373D02*
G01*
X56874495Y-32385650D01*
X56850647Y-32410603D01*
X56817874Y-32456676D01*
X56772841Y-32529312D01*
X56712214Y-32633956D01*
X56632659Y-32776051D01*
X56530843Y-32961042D01*
X56498585Y-33020000D01*
X56406403Y-33187781D01*
X56336392Y-33311833D01*
X56284049Y-33398168D01*
X56244869Y-33452800D01*
X56214347Y-33481743D01*
X56187980Y-33491009D01*
X56161264Y-33486612D01*
X56151639Y-33483202D01*
X56112703Y-33473108D01*
X56031123Y-33454694D01*
X55919622Y-33430610D01*
X55790923Y-33403511D01*
X55657750Y-33376048D01*
X55532826Y-33350875D01*
X55428875Y-33330642D01*
X55361417Y-33318460D01*
X55311919Y-33308982D01*
X55228081Y-33291748D01*
X55155084Y-33276273D01*
X55027814Y-33256152D01*
X54945514Y-33259524D01*
X54911171Y-33286169D01*
X54910320Y-33294280D01*
X54923415Y-33316150D01*
X54963781Y-33364619D01*
X55033627Y-33442063D01*
X55135160Y-33550857D01*
X55270589Y-33693378D01*
X55442121Y-33872002D01*
X55576614Y-34011271D01*
X55662351Y-34102844D01*
X55730931Y-34181690D01*
X55774072Y-34237939D01*
X55784750Y-34259372D01*
X55772135Y-34298127D01*
X55739483Y-34370489D01*
X55694583Y-34460957D01*
X55645227Y-34554028D01*
X55599205Y-34634203D01*
X55584976Y-34656888D01*
X55537117Y-34734684D01*
X55477171Y-34838103D01*
X55411008Y-34956257D01*
X55344498Y-35078257D01*
X55283513Y-35193215D01*
X55233923Y-35290241D01*
X55201599Y-35358447D01*
X55192084Y-35385606D01*
X55206168Y-35410513D01*
X55251358Y-35412441D01*
X55332057Y-35390147D01*
X55452669Y-35342393D01*
X55617598Y-35267935D01*
X55629528Y-35262343D01*
X55848363Y-35159691D01*
X56021595Y-35078722D01*
X56154646Y-35016983D01*
X56252938Y-34972022D01*
X56321893Y-34941385D01*
X56366931Y-34922621D01*
X56393474Y-34913276D01*
X56406383Y-34910888D01*
X56434970Y-34930223D01*
X56493082Y-34982693D01*
X56571917Y-35059996D01*
X56651657Y-35142199D01*
X56834072Y-35334343D01*
X56981427Y-35489331D01*
X57097651Y-35610819D01*
X57186677Y-35702461D01*
X57252434Y-35767915D01*
X57298854Y-35810834D01*
X57329868Y-35834875D01*
X57349406Y-35843694D01*
X57361400Y-35840946D01*
X57369781Y-35830286D01*
X57377392Y-35817097D01*
X57377901Y-35784014D01*
X57371856Y-35704779D01*
X57360423Y-35589154D01*
X57344764Y-35446902D01*
X57326043Y-35287785D01*
X57305424Y-35121565D01*
X57284070Y-34958004D01*
X57263146Y-34806866D01*
X57243814Y-34677912D01*
X57235621Y-34627807D01*
X57228667Y-34572971D01*
X57238028Y-34536741D01*
X57274283Y-34506744D01*
X57348009Y-34470609D01*
X57383674Y-34454645D01*
X57645857Y-34337645D01*
X57860785Y-34241193D01*
X58032821Y-34163005D01*
X58166332Y-34100796D01*
X58265681Y-34052282D01*
X58335233Y-34015178D01*
X58379353Y-33987200D01*
X58402405Y-33966063D01*
X58408755Y-33949483D01*
X58402767Y-33935175D01*
X58394097Y-33925790D01*
X58355469Y-33909087D01*
X58275838Y-33886994D01*
X58169878Y-33863395D01*
X58127195Y-33855108D01*
X58008219Y-33832672D01*
X57903074Y-33812403D01*
X57829864Y-33797802D01*
X57816750Y-33795033D01*
X57754056Y-33782252D01*
X57652273Y-33762377D01*
X57527826Y-33738537D01*
X57397136Y-33713860D01*
X57276628Y-33691477D01*
X57203522Y-33678203D01*
X57158764Y-33667427D01*
X57127943Y-33647231D01*
X57106924Y-33607349D01*
X57091572Y-33537512D01*
X57077751Y-33427455D01*
X57069153Y-33344555D01*
X57058236Y-33245043D01*
X57042987Y-33116393D01*
X57026590Y-32985410D01*
X57025588Y-32977666D01*
X57009517Y-32853127D01*
X56994376Y-32734707D01*
X56983183Y-32646016D01*
X56982311Y-32639000D01*
X56964351Y-32510465D01*
X56946957Y-32429516D01*
X56927147Y-32387407D01*
X56901938Y-32375392D01*
X56892749Y-32376373D01*
X56892749Y-32376373D01*
G37*
X56892749Y-32376373D02*
X56874495Y-32385650D01*
X56850647Y-32410603D01*
X56817874Y-32456676D01*
X56772841Y-32529312D01*
X56712214Y-32633956D01*
X56632659Y-32776051D01*
X56530843Y-32961042D01*
X56498585Y-33020000D01*
X56406403Y-33187781D01*
X56336392Y-33311833D01*
X56284049Y-33398168D01*
X56244869Y-33452800D01*
X56214347Y-33481743D01*
X56187980Y-33491009D01*
X56161264Y-33486612D01*
X56151639Y-33483202D01*
X56112703Y-33473108D01*
X56031123Y-33454694D01*
X55919622Y-33430610D01*
X55790923Y-33403511D01*
X55657750Y-33376048D01*
X55532826Y-33350875D01*
X55428875Y-33330642D01*
X55361417Y-33318460D01*
X55311919Y-33308982D01*
X55228081Y-33291748D01*
X55155084Y-33276273D01*
X55027814Y-33256152D01*
X54945514Y-33259524D01*
X54911171Y-33286169D01*
X54910320Y-33294280D01*
X54923415Y-33316150D01*
X54963781Y-33364619D01*
X55033627Y-33442063D01*
X55135160Y-33550857D01*
X55270589Y-33693378D01*
X55442121Y-33872002D01*
X55576614Y-34011271D01*
X55662351Y-34102844D01*
X55730931Y-34181690D01*
X55774072Y-34237939D01*
X55784750Y-34259372D01*
X55772135Y-34298127D01*
X55739483Y-34370489D01*
X55694583Y-34460957D01*
X55645227Y-34554028D01*
X55599205Y-34634203D01*
X55584976Y-34656888D01*
X55537117Y-34734684D01*
X55477171Y-34838103D01*
X55411008Y-34956257D01*
X55344498Y-35078257D01*
X55283513Y-35193215D01*
X55233923Y-35290241D01*
X55201599Y-35358447D01*
X55192084Y-35385606D01*
X55206168Y-35410513D01*
X55251358Y-35412441D01*
X55332057Y-35390147D01*
X55452669Y-35342393D01*
X55617598Y-35267935D01*
X55629528Y-35262343D01*
X55848363Y-35159691D01*
X56021595Y-35078722D01*
X56154646Y-35016983D01*
X56252938Y-34972022D01*
X56321893Y-34941385D01*
X56366931Y-34922621D01*
X56393474Y-34913276D01*
X56406383Y-34910888D01*
X56434970Y-34930223D01*
X56493082Y-34982693D01*
X56571917Y-35059996D01*
X56651657Y-35142199D01*
X56834072Y-35334343D01*
X56981427Y-35489331D01*
X57097651Y-35610819D01*
X57186677Y-35702461D01*
X57252434Y-35767915D01*
X57298854Y-35810834D01*
X57329868Y-35834875D01*
X57349406Y-35843694D01*
X57361400Y-35840946D01*
X57369781Y-35830286D01*
X57377392Y-35817097D01*
X57377901Y-35784014D01*
X57371856Y-35704779D01*
X57360423Y-35589154D01*
X57344764Y-35446902D01*
X57326043Y-35287785D01*
X57305424Y-35121565D01*
X57284070Y-34958004D01*
X57263146Y-34806866D01*
X57243814Y-34677912D01*
X57235621Y-34627807D01*
X57228667Y-34572971D01*
X57238028Y-34536741D01*
X57274283Y-34506744D01*
X57348009Y-34470609D01*
X57383674Y-34454645D01*
X57645857Y-34337645D01*
X57860785Y-34241193D01*
X58032821Y-34163005D01*
X58166332Y-34100796D01*
X58265681Y-34052282D01*
X58335233Y-34015178D01*
X58379353Y-33987200D01*
X58402405Y-33966063D01*
X58408755Y-33949483D01*
X58402767Y-33935175D01*
X58394097Y-33925790D01*
X58355469Y-33909087D01*
X58275838Y-33886994D01*
X58169878Y-33863395D01*
X58127195Y-33855108D01*
X58008219Y-33832672D01*
X57903074Y-33812403D01*
X57829864Y-33797802D01*
X57816750Y-33795033D01*
X57754056Y-33782252D01*
X57652273Y-33762377D01*
X57527826Y-33738537D01*
X57397136Y-33713860D01*
X57276628Y-33691477D01*
X57203522Y-33678203D01*
X57158764Y-33667427D01*
X57127943Y-33647231D01*
X57106924Y-33607349D01*
X57091572Y-33537512D01*
X57077751Y-33427455D01*
X57069153Y-33344555D01*
X57058236Y-33245043D01*
X57042987Y-33116393D01*
X57026590Y-32985410D01*
X57025588Y-32977666D01*
X57009517Y-32853127D01*
X56994376Y-32734707D01*
X56983183Y-32646016D01*
X56982311Y-32639000D01*
X56964351Y-32510465D01*
X56946957Y-32429516D01*
X56927147Y-32387407D01*
X56901938Y-32375392D01*
X56892749Y-32376373D01*
G36*
X67041033Y-33472574D02*
G01*
X66792968Y-33476339D01*
X66516045Y-33481968D01*
X66214855Y-33489405D01*
X65893987Y-33498595D01*
X65558034Y-33509482D01*
X65557257Y-33509509D01*
X65449053Y-33514569D01*
X65364879Y-33521053D01*
X65318720Y-33527791D01*
X65314280Y-33529790D01*
X65306870Y-33561425D01*
X65295798Y-33635528D01*
X65282625Y-33738365D01*
X65268912Y-33856200D01*
X65256221Y-33975300D01*
X65246111Y-34081930D01*
X65240145Y-34162355D01*
X65239195Y-34190450D01*
X65242042Y-34226131D01*
X65258903Y-34245354D01*
X65302259Y-34251783D01*
X65384592Y-34249080D01*
X65429695Y-34246358D01*
X65522656Y-34241610D01*
X65657919Y-34236058D01*
X65821360Y-34230216D01*
X65998852Y-34224601D01*
X66121139Y-34221154D01*
X66622084Y-34207802D01*
X66622084Y-34287706D01*
X66616109Y-34379391D01*
X66605853Y-34448750D01*
X66595470Y-34489691D01*
X66576188Y-34514113D01*
X66535353Y-34526642D01*
X66460312Y-34531905D01*
X66373020Y-34533884D01*
X66161834Y-34538789D01*
X65957119Y-34545406D01*
X65766648Y-34553311D01*
X65598195Y-34562079D01*
X65459534Y-34571284D01*
X65358437Y-34580502D01*
X65302678Y-34589307D01*
X65294594Y-34592841D01*
X65284276Y-34627452D01*
X65270242Y-34703963D01*
X65254397Y-34808109D01*
X65238644Y-34925624D01*
X65224888Y-35042245D01*
X65215035Y-35143707D01*
X65210989Y-35215745D01*
X65210973Y-35219084D01*
X65213319Y-35241885D01*
X65226199Y-35257217D01*
X65258376Y-35266032D01*
X65318613Y-35269286D01*
X65415674Y-35267932D01*
X65558320Y-35262925D01*
X65599028Y-35261336D01*
X65771556Y-35254738D01*
X65952377Y-35248120D01*
X66119738Y-35242263D01*
X66249052Y-35238034D01*
X66511020Y-35229973D01*
X66492284Y-35402042D01*
X66475034Y-35529047D01*
X66452493Y-35609314D01*
X66418299Y-35652536D01*
X66366089Y-35668411D01*
X66317389Y-35668549D01*
X66255327Y-35668043D01*
X66148390Y-35670073D01*
X66008077Y-35674301D01*
X65845882Y-35680390D01*
X65704862Y-35686524D01*
X65534615Y-35693929D01*
X65378085Y-35699875D01*
X65246398Y-35704004D01*
X65150680Y-35705962D01*
X65106397Y-35705676D01*
X65068607Y-35704052D01*
X65041398Y-35708986D01*
X65021646Y-35728848D01*
X65006230Y-35772009D01*
X64992028Y-35846838D01*
X64975916Y-35961705D01*
X64957322Y-36105319D01*
X64938297Y-36256673D01*
X64928761Y-36360908D01*
X64930967Y-36426885D01*
X64947166Y-36463463D01*
X64979610Y-36479504D01*
X65030550Y-36483866D01*
X65053629Y-36484281D01*
X65131095Y-36483508D01*
X65180320Y-36479351D01*
X65187844Y-36476832D01*
X65218591Y-36472578D01*
X65298817Y-36467356D01*
X65421566Y-36461408D01*
X65579886Y-36454974D01*
X65766822Y-36448296D01*
X65975421Y-36441614D01*
X66198730Y-36435168D01*
X66429793Y-36429201D01*
X66661659Y-36423951D01*
X66786806Y-36421462D01*
X66956304Y-36417695D01*
X67105591Y-36413284D01*
X67225824Y-36408578D01*
X67308163Y-36403929D01*
X67343763Y-36399689D01*
X67344401Y-36399312D01*
X67351108Y-36368099D01*
X67363913Y-36283140D01*
X67382520Y-36146771D01*
X67406639Y-35961326D01*
X67435975Y-35729140D01*
X67470234Y-35452550D01*
X67509125Y-35133891D01*
X67552353Y-34775497D01*
X67599626Y-34379704D01*
X67627851Y-34141792D01*
X67648887Y-33957733D01*
X67666298Y-33792877D01*
X67679346Y-33655317D01*
X67687294Y-33553147D01*
X67689403Y-33494460D01*
X67687817Y-33483659D01*
X67652901Y-33477268D01*
X67566174Y-33473020D01*
X67432227Y-33470859D01*
X67255649Y-33470729D01*
X67041033Y-33472574D01*
X67041033Y-33472574D01*
G37*
X67041033Y-33472574D02*
X66792968Y-33476339D01*
X66516045Y-33481968D01*
X66214855Y-33489405D01*
X65893987Y-33498595D01*
X65558034Y-33509482D01*
X65557257Y-33509509D01*
X65449053Y-33514569D01*
X65364879Y-33521053D01*
X65318720Y-33527791D01*
X65314280Y-33529790D01*
X65306870Y-33561425D01*
X65295798Y-33635528D01*
X65282625Y-33738365D01*
X65268912Y-33856200D01*
X65256221Y-33975300D01*
X65246111Y-34081930D01*
X65240145Y-34162355D01*
X65239195Y-34190450D01*
X65242042Y-34226131D01*
X65258903Y-34245354D01*
X65302259Y-34251783D01*
X65384592Y-34249080D01*
X65429695Y-34246358D01*
X65522656Y-34241610D01*
X65657919Y-34236058D01*
X65821360Y-34230216D01*
X65998852Y-34224601D01*
X66121139Y-34221154D01*
X66622084Y-34207802D01*
X66622084Y-34287706D01*
X66616109Y-34379391D01*
X66605853Y-34448750D01*
X66595470Y-34489691D01*
X66576188Y-34514113D01*
X66535353Y-34526642D01*
X66460312Y-34531905D01*
X66373020Y-34533884D01*
X66161834Y-34538789D01*
X65957119Y-34545406D01*
X65766648Y-34553311D01*
X65598195Y-34562079D01*
X65459534Y-34571284D01*
X65358437Y-34580502D01*
X65302678Y-34589307D01*
X65294594Y-34592841D01*
X65284276Y-34627452D01*
X65270242Y-34703963D01*
X65254397Y-34808109D01*
X65238644Y-34925624D01*
X65224888Y-35042245D01*
X65215035Y-35143707D01*
X65210989Y-35215745D01*
X65210973Y-35219084D01*
X65213319Y-35241885D01*
X65226199Y-35257217D01*
X65258376Y-35266032D01*
X65318613Y-35269286D01*
X65415674Y-35267932D01*
X65558320Y-35262925D01*
X65599028Y-35261336D01*
X65771556Y-35254738D01*
X65952377Y-35248120D01*
X66119738Y-35242263D01*
X66249052Y-35238034D01*
X66511020Y-35229973D01*
X66492284Y-35402042D01*
X66475034Y-35529047D01*
X66452493Y-35609314D01*
X66418299Y-35652536D01*
X66366089Y-35668411D01*
X66317389Y-35668549D01*
X66255327Y-35668043D01*
X66148390Y-35670073D01*
X66008077Y-35674301D01*
X65845882Y-35680390D01*
X65704862Y-35686524D01*
X65534615Y-35693929D01*
X65378085Y-35699875D01*
X65246398Y-35704004D01*
X65150680Y-35705962D01*
X65106397Y-35705676D01*
X65068607Y-35704052D01*
X65041398Y-35708986D01*
X65021646Y-35728848D01*
X65006230Y-35772009D01*
X64992028Y-35846838D01*
X64975916Y-35961705D01*
X64957322Y-36105319D01*
X64938297Y-36256673D01*
X64928761Y-36360908D01*
X64930967Y-36426885D01*
X64947166Y-36463463D01*
X64979610Y-36479504D01*
X65030550Y-36483866D01*
X65053629Y-36484281D01*
X65131095Y-36483508D01*
X65180320Y-36479351D01*
X65187844Y-36476832D01*
X65218591Y-36472578D01*
X65298817Y-36467356D01*
X65421566Y-36461408D01*
X65579886Y-36454974D01*
X65766822Y-36448296D01*
X65975421Y-36441614D01*
X66198730Y-36435168D01*
X66429793Y-36429201D01*
X66661659Y-36423951D01*
X66786806Y-36421462D01*
X66956304Y-36417695D01*
X67105591Y-36413284D01*
X67225824Y-36408578D01*
X67308163Y-36403929D01*
X67343763Y-36399689D01*
X67344401Y-36399312D01*
X67351108Y-36368099D01*
X67363913Y-36283140D01*
X67382520Y-36146771D01*
X67406639Y-35961326D01*
X67435975Y-35729140D01*
X67470234Y-35452550D01*
X67509125Y-35133891D01*
X67552353Y-34775497D01*
X67599626Y-34379704D01*
X67627851Y-34141792D01*
X67648887Y-33957733D01*
X67666298Y-33792877D01*
X67679346Y-33655317D01*
X67687294Y-33553147D01*
X67689403Y-33494460D01*
X67687817Y-33483659D01*
X67652901Y-33477268D01*
X67566174Y-33473020D01*
X67432227Y-33470859D01*
X67255649Y-33470729D01*
X67041033Y-33472574D01*
G36*
X67943046Y-33610123D02*
G01*
X67932171Y-33681948D01*
X67916323Y-33798200D01*
X67896293Y-33952232D01*
X67872871Y-34137393D01*
X67846848Y-34347033D01*
X67819014Y-34574503D01*
X67790161Y-34813153D01*
X67761079Y-35056332D01*
X67732557Y-35297392D01*
X67705388Y-35529683D01*
X67680361Y-35746555D01*
X67658268Y-35941358D01*
X67639898Y-36107442D01*
X67626042Y-36238158D01*
X67617491Y-36326856D01*
X67615036Y-36366886D01*
X67615163Y-36367992D01*
X67627327Y-36385258D01*
X67660965Y-36397651D01*
X67724180Y-36406108D01*
X67825073Y-36411564D01*
X67971745Y-36414954D01*
X68028838Y-36415744D01*
X68174187Y-36415977D01*
X68298491Y-36413195D01*
X68391295Y-36407863D01*
X68442141Y-36400445D01*
X68448308Y-36397141D01*
X68455603Y-36363835D01*
X68468665Y-36282122D01*
X68486419Y-36159621D01*
X68507793Y-36003953D01*
X68531713Y-35822739D01*
X68555656Y-35635141D01*
X68580390Y-35440170D01*
X68602880Y-35266602D01*
X68622188Y-35121373D01*
X68637378Y-35011417D01*
X68647511Y-34943672D01*
X68651642Y-34925000D01*
X68655823Y-34959791D01*
X68665859Y-35042648D01*
X68680784Y-35165602D01*
X68699629Y-35320690D01*
X68721427Y-35499943D01*
X68739036Y-35644666D01*
X68762351Y-35838047D01*
X68783196Y-36014413D01*
X68800630Y-36165516D01*
X68813712Y-36283110D01*
X68821500Y-36358945D01*
X68823303Y-36383184D01*
X68829859Y-36403979D01*
X68855661Y-36417853D01*
X68910085Y-36426288D01*
X69002510Y-36430769D01*
X69136640Y-36432733D01*
X69270029Y-36435106D01*
X69387424Y-36439602D01*
X69474301Y-36445525D01*
X69511670Y-36450720D01*
X69541348Y-36452734D01*
X69568011Y-36436452D01*
X69597468Y-36393324D01*
X69635529Y-36314803D01*
X69688004Y-36192339D01*
X69689189Y-36189505D01*
X69740805Y-36062404D01*
X69804599Y-35899775D01*
X69873770Y-35719250D01*
X69941519Y-35538461D01*
X69967506Y-35467810D01*
X70021698Y-35321702D01*
X70069482Y-35197001D01*
X70107504Y-35102129D01*
X70132412Y-35045507D01*
X70140534Y-35033264D01*
X70140139Y-35062959D01*
X70133562Y-35141020D01*
X70121600Y-35259803D01*
X70105052Y-35411662D01*
X70084719Y-35588953D01*
X70066203Y-35744452D01*
X70043351Y-35936519D01*
X70023531Y-36109187D01*
X70007557Y-36254833D01*
X69996245Y-36365835D01*
X69990412Y-36434571D01*
X69990248Y-36454016D01*
X70020301Y-36458925D01*
X70094589Y-36465274D01*
X70200953Y-36472139D01*
X70293176Y-36477010D01*
X70429221Y-36484693D01*
X70555678Y-36493797D01*
X70654536Y-36502935D01*
X70693077Y-36507851D01*
X70772498Y-36512451D01*
X70809109Y-36492558D01*
X70811666Y-36486747D01*
X70817965Y-36450995D01*
X70830310Y-36365663D01*
X70847846Y-36237192D01*
X70869722Y-36072024D01*
X70895085Y-35876601D01*
X70923083Y-35657364D01*
X70952863Y-35420754D01*
X70954859Y-35404777D01*
X70987080Y-35148923D01*
X71019678Y-34894130D01*
X71051406Y-34649867D01*
X71081014Y-34425606D01*
X71107255Y-34230816D01*
X71128880Y-34074966D01*
X71142074Y-33984322D01*
X71162059Y-33845460D01*
X71177105Y-33727840D01*
X71185996Y-33642065D01*
X71187520Y-33598738D01*
X71186590Y-33595765D01*
X71174405Y-33591047D01*
X71143523Y-33586258D01*
X71087991Y-33580987D01*
X71001856Y-33574820D01*
X70879166Y-33567347D01*
X70713969Y-33558154D01*
X70500312Y-33546830D01*
X70417973Y-33542546D01*
X70289500Y-33534867D01*
X70175618Y-33526230D01*
X70092577Y-33517956D01*
X70065195Y-33513893D01*
X69998204Y-33511157D01*
X69960517Y-33521946D01*
X69938780Y-33555135D01*
X69902327Y-33631278D01*
X69855623Y-33740242D01*
X69803136Y-33871895D01*
X69783244Y-33924062D01*
X69727128Y-34071302D01*
X69673329Y-34209347D01*
X69627164Y-34324767D01*
X69593949Y-34404127D01*
X69588181Y-34417000D01*
X69550289Y-34505367D01*
X69505060Y-34619201D01*
X69470790Y-34710677D01*
X69434584Y-34804126D01*
X69409815Y-34849380D01*
X69392348Y-34852494D01*
X69384049Y-34837677D01*
X69374681Y-34794895D01*
X69360212Y-34704831D01*
X69341872Y-34576291D01*
X69320894Y-34418082D01*
X69298509Y-34239009D01*
X69287705Y-34148888D01*
X69265570Y-33965915D01*
X69244828Y-33802337D01*
X69226587Y-33666279D01*
X69211954Y-33565865D01*
X69202040Y-33509220D01*
X69199134Y-33499777D01*
X69168178Y-33495636D01*
X69089142Y-33491975D01*
X68970389Y-33488983D01*
X68820285Y-33486850D01*
X68647191Y-33485765D01*
X68575014Y-33485666D01*
X67964384Y-33485666D01*
X67943046Y-33610123D01*
X67943046Y-33610123D01*
G37*
X67943046Y-33610123D02*
X67932171Y-33681948D01*
X67916323Y-33798200D01*
X67896293Y-33952232D01*
X67872871Y-34137393D01*
X67846848Y-34347033D01*
X67819014Y-34574503D01*
X67790161Y-34813153D01*
X67761079Y-35056332D01*
X67732557Y-35297392D01*
X67705388Y-35529683D01*
X67680361Y-35746555D01*
X67658268Y-35941358D01*
X67639898Y-36107442D01*
X67626042Y-36238158D01*
X67617491Y-36326856D01*
X67615036Y-36366886D01*
X67615163Y-36367992D01*
X67627327Y-36385258D01*
X67660965Y-36397651D01*
X67724180Y-36406108D01*
X67825073Y-36411564D01*
X67971745Y-36414954D01*
X68028838Y-36415744D01*
X68174187Y-36415977D01*
X68298491Y-36413195D01*
X68391295Y-36407863D01*
X68442141Y-36400445D01*
X68448308Y-36397141D01*
X68455603Y-36363835D01*
X68468665Y-36282122D01*
X68486419Y-36159621D01*
X68507793Y-36003953D01*
X68531713Y-35822739D01*
X68555656Y-35635141D01*
X68580390Y-35440170D01*
X68602880Y-35266602D01*
X68622188Y-35121373D01*
X68637378Y-35011417D01*
X68647511Y-34943672D01*
X68651642Y-34925000D01*
X68655823Y-34959791D01*
X68665859Y-35042648D01*
X68680784Y-35165602D01*
X68699629Y-35320690D01*
X68721427Y-35499943D01*
X68739036Y-35644666D01*
X68762351Y-35838047D01*
X68783196Y-36014413D01*
X68800630Y-36165516D01*
X68813712Y-36283110D01*
X68821500Y-36358945D01*
X68823303Y-36383184D01*
X68829859Y-36403979D01*
X68855661Y-36417853D01*
X68910085Y-36426288D01*
X69002510Y-36430769D01*
X69136640Y-36432733D01*
X69270029Y-36435106D01*
X69387424Y-36439602D01*
X69474301Y-36445525D01*
X69511670Y-36450720D01*
X69541348Y-36452734D01*
X69568011Y-36436452D01*
X69597468Y-36393324D01*
X69635529Y-36314803D01*
X69688004Y-36192339D01*
X69689189Y-36189505D01*
X69740805Y-36062404D01*
X69804599Y-35899775D01*
X69873770Y-35719250D01*
X69941519Y-35538461D01*
X69967506Y-35467810D01*
X70021698Y-35321702D01*
X70069482Y-35197001D01*
X70107504Y-35102129D01*
X70132412Y-35045507D01*
X70140534Y-35033264D01*
X70140139Y-35062959D01*
X70133562Y-35141020D01*
X70121600Y-35259803D01*
X70105052Y-35411662D01*
X70084719Y-35588953D01*
X70066203Y-35744452D01*
X70043351Y-35936519D01*
X70023531Y-36109187D01*
X70007557Y-36254833D01*
X69996245Y-36365835D01*
X69990412Y-36434571D01*
X69990248Y-36454016D01*
X70020301Y-36458925D01*
X70094589Y-36465274D01*
X70200953Y-36472139D01*
X70293176Y-36477010D01*
X70429221Y-36484693D01*
X70555678Y-36493797D01*
X70654536Y-36502935D01*
X70693077Y-36507851D01*
X70772498Y-36512451D01*
X70809109Y-36492558D01*
X70811666Y-36486747D01*
X70817965Y-36450995D01*
X70830310Y-36365663D01*
X70847846Y-36237192D01*
X70869722Y-36072024D01*
X70895085Y-35876601D01*
X70923083Y-35657364D01*
X70952863Y-35420754D01*
X70954859Y-35404777D01*
X70987080Y-35148923D01*
X71019678Y-34894130D01*
X71051406Y-34649867D01*
X71081014Y-34425606D01*
X71107255Y-34230816D01*
X71128880Y-34074966D01*
X71142074Y-33984322D01*
X71162059Y-33845460D01*
X71177105Y-33727840D01*
X71185996Y-33642065D01*
X71187520Y-33598738D01*
X71186590Y-33595765D01*
X71174405Y-33591047D01*
X71143523Y-33586258D01*
X71087991Y-33580987D01*
X71001856Y-33574820D01*
X70879166Y-33567347D01*
X70713969Y-33558154D01*
X70500312Y-33546830D01*
X70417973Y-33542546D01*
X70289500Y-33534867D01*
X70175618Y-33526230D01*
X70092577Y-33517956D01*
X70065195Y-33513893D01*
X69998204Y-33511157D01*
X69960517Y-33521946D01*
X69938780Y-33555135D01*
X69902327Y-33631278D01*
X69855623Y-33740242D01*
X69803136Y-33871895D01*
X69783244Y-33924062D01*
X69727128Y-34071302D01*
X69673329Y-34209347D01*
X69627164Y-34324767D01*
X69593949Y-34404127D01*
X69588181Y-34417000D01*
X69550289Y-34505367D01*
X69505060Y-34619201D01*
X69470790Y-34710677D01*
X69434584Y-34804126D01*
X69409815Y-34849380D01*
X69392348Y-34852494D01*
X69384049Y-34837677D01*
X69374681Y-34794895D01*
X69360212Y-34704831D01*
X69341872Y-34576291D01*
X69320894Y-34418082D01*
X69298509Y-34239009D01*
X69287705Y-34148888D01*
X69265570Y-33965915D01*
X69244828Y-33802337D01*
X69226587Y-33666279D01*
X69211954Y-33565865D01*
X69202040Y-33509220D01*
X69199134Y-33499777D01*
X69168178Y-33495636D01*
X69089142Y-33491975D01*
X68970389Y-33488983D01*
X68820285Y-33486850D01*
X68647191Y-33485765D01*
X68575014Y-33485666D01*
X67964384Y-33485666D01*
X67943046Y-33610123D01*
G36*
X73743293Y-33844632D02*
G01*
X73736747Y-33850144D01*
X73727753Y-33884373D01*
X73713156Y-33968151D01*
X73693878Y-34094959D01*
X73670839Y-34258280D01*
X73644960Y-34451596D01*
X73617164Y-34668391D01*
X73590081Y-34887987D01*
X73557179Y-35157194D01*
X73529652Y-35375441D01*
X73506648Y-35547869D01*
X73487315Y-35679619D01*
X73470801Y-35775831D01*
X73456252Y-35841646D01*
X73442817Y-35882204D01*
X73429643Y-35902646D01*
X73421030Y-35907526D01*
X73379898Y-35907990D01*
X73291752Y-35902276D01*
X73165586Y-35891194D01*
X73010396Y-35875556D01*
X72835178Y-35856176D01*
X72776635Y-35849350D01*
X72599136Y-35829338D01*
X72440861Y-35813285D01*
X72310269Y-35801903D01*
X72215821Y-35795903D01*
X72165976Y-35795995D01*
X72160649Y-35797583D01*
X72147194Y-35834653D01*
X72132058Y-35913240D01*
X72116474Y-36021022D01*
X72101672Y-36145678D01*
X72088882Y-36274887D01*
X72079336Y-36396327D01*
X72074265Y-36497678D01*
X72074900Y-36566617D01*
X72081406Y-36590779D01*
X72117420Y-36596218D01*
X72200734Y-36606285D01*
X72322486Y-36619988D01*
X72473811Y-36636335D01*
X72645848Y-36654336D01*
X72689862Y-36658856D01*
X72914139Y-36681909D01*
X73165696Y-36707940D01*
X73421981Y-36734604D01*
X73660443Y-36759557D01*
X73804639Y-36774745D01*
X73998907Y-36795308D01*
X74144128Y-36810467D01*
X74247409Y-36820572D01*
X74315852Y-36825973D01*
X74356563Y-36827019D01*
X74376646Y-36824062D01*
X74383206Y-36817451D01*
X74383347Y-36807536D01*
X74383195Y-36803253D01*
X74386579Y-36770710D01*
X74396283Y-36687675D01*
X74411634Y-36559664D01*
X74431960Y-36392196D01*
X74456589Y-36190787D01*
X74484846Y-35960955D01*
X74516061Y-35708216D01*
X74549560Y-35438089D01*
X74552528Y-35414204D01*
X74586243Y-35142046D01*
X74617723Y-34886146D01*
X74646294Y-34652123D01*
X74671278Y-34445597D01*
X74692001Y-34272187D01*
X74707786Y-34137513D01*
X74717959Y-34047193D01*
X74721843Y-34006848D01*
X74721862Y-34006006D01*
X74709689Y-33980798D01*
X74666950Y-33960564D01*
X74584316Y-33942155D01*
X74489028Y-33927438D01*
X74342059Y-33906434D01*
X74173923Y-33881837D01*
X74019228Y-33858715D01*
X74008851Y-33857139D01*
X73874496Y-33839517D01*
X73788208Y-33835405D01*
X73743293Y-33844632D01*
X73743293Y-33844632D01*
G37*
X73743293Y-33844632D02*
X73736747Y-33850144D01*
X73727753Y-33884373D01*
X73713156Y-33968151D01*
X73693878Y-34094959D01*
X73670839Y-34258280D01*
X73644960Y-34451596D01*
X73617164Y-34668391D01*
X73590081Y-34887987D01*
X73557179Y-35157194D01*
X73529652Y-35375441D01*
X73506648Y-35547869D01*
X73487315Y-35679619D01*
X73470801Y-35775831D01*
X73456252Y-35841646D01*
X73442817Y-35882204D01*
X73429643Y-35902646D01*
X73421030Y-35907526D01*
X73379898Y-35907990D01*
X73291752Y-35902276D01*
X73165586Y-35891194D01*
X73010396Y-35875556D01*
X72835178Y-35856176D01*
X72776635Y-35849350D01*
X72599136Y-35829338D01*
X72440861Y-35813285D01*
X72310269Y-35801903D01*
X72215821Y-35795903D01*
X72165976Y-35795995D01*
X72160649Y-35797583D01*
X72147194Y-35834653D01*
X72132058Y-35913240D01*
X72116474Y-36021022D01*
X72101672Y-36145678D01*
X72088882Y-36274887D01*
X72079336Y-36396327D01*
X72074265Y-36497678D01*
X72074900Y-36566617D01*
X72081406Y-36590779D01*
X72117420Y-36596218D01*
X72200734Y-36606285D01*
X72322486Y-36619988D01*
X72473811Y-36636335D01*
X72645848Y-36654336D01*
X72689862Y-36658856D01*
X72914139Y-36681909D01*
X73165696Y-36707940D01*
X73421981Y-36734604D01*
X73660443Y-36759557D01*
X73804639Y-36774745D01*
X73998907Y-36795308D01*
X74144128Y-36810467D01*
X74247409Y-36820572D01*
X74315852Y-36825973D01*
X74356563Y-36827019D01*
X74376646Y-36824062D01*
X74383206Y-36817451D01*
X74383347Y-36807536D01*
X74383195Y-36803253D01*
X74386579Y-36770710D01*
X74396283Y-36687675D01*
X74411634Y-36559664D01*
X74431960Y-36392196D01*
X74456589Y-36190787D01*
X74484846Y-35960955D01*
X74516061Y-35708216D01*
X74549560Y-35438089D01*
X74552528Y-35414204D01*
X74586243Y-35142046D01*
X74617723Y-34886146D01*
X74646294Y-34652123D01*
X74671278Y-34445597D01*
X74692001Y-34272187D01*
X74707786Y-34137513D01*
X74717959Y-34047193D01*
X74721843Y-34006848D01*
X74721862Y-34006006D01*
X74709689Y-33980798D01*
X74666950Y-33960564D01*
X74584316Y-33942155D01*
X74489028Y-33927438D01*
X74342059Y-33906434D01*
X74173923Y-33881837D01*
X74019228Y-33858715D01*
X74008851Y-33857139D01*
X73874496Y-33839517D01*
X73788208Y-33835405D01*
X73743293Y-33844632D01*
G36*
X76147893Y-34181279D02*
G01*
X76142319Y-34210632D01*
X76130863Y-34289527D01*
X76114376Y-34411465D01*
X76093707Y-34569945D01*
X76069707Y-34758469D01*
X76043226Y-34970537D01*
X76021070Y-35150777D01*
X75992965Y-35379755D01*
X75966520Y-35592870D01*
X75942625Y-35783136D01*
X75922169Y-35943563D01*
X75906041Y-36067166D01*
X75895131Y-36146956D01*
X75890908Y-36173833D01*
X75869659Y-36218628D01*
X75819441Y-36235833D01*
X75781495Y-36237333D01*
X75692831Y-36229731D01*
X75618412Y-36211981D01*
X75572928Y-36201241D01*
X75485761Y-36185995D01*
X75367596Y-36167664D01*
X75229114Y-36147665D01*
X75080998Y-36127417D01*
X74933931Y-36108338D01*
X74798597Y-36091848D01*
X74685677Y-36079364D01*
X74605854Y-36072305D01*
X74569811Y-36072090D01*
X74568913Y-36072620D01*
X74559741Y-36107618D01*
X74547754Y-36185135D01*
X74534212Y-36292599D01*
X74520374Y-36417439D01*
X74507501Y-36547084D01*
X74496852Y-36668962D01*
X74489686Y-36770501D01*
X74487264Y-36839131D01*
X74489799Y-36862133D01*
X74523070Y-36871354D01*
X74603286Y-36885352D01*
X74721280Y-36902771D01*
X74867886Y-36922259D01*
X75032306Y-36942271D01*
X75200087Y-36962468D01*
X75350135Y-36981752D01*
X75472780Y-36998782D01*
X75558351Y-37012218D01*
X75596750Y-37020533D01*
X75640086Y-37031430D01*
X75726675Y-37048179D01*
X75843918Y-37068486D01*
X75977750Y-37089837D01*
X76138073Y-37114400D01*
X76304782Y-37139951D01*
X76455155Y-37163006D01*
X76542195Y-37176356D01*
X76651239Y-37194725D01*
X76739241Y-37212571D01*
X76790746Y-37226675D01*
X76796195Y-37229294D01*
X76836841Y-37241177D01*
X76916689Y-37254955D01*
X77018701Y-37267704D01*
X77021973Y-37268045D01*
X77124390Y-37280636D01*
X77205163Y-37294213D01*
X77247255Y-37305899D01*
X77247750Y-37306195D01*
X77288176Y-37319278D01*
X77367588Y-37336852D01*
X77469128Y-37355204D01*
X77473528Y-37355921D01*
X77581614Y-37374818D01*
X77674089Y-37393406D01*
X77730281Y-37407476D01*
X77761261Y-37411561D01*
X77788351Y-37394536D01*
X77818291Y-37347282D01*
X77857824Y-37260678D01*
X77882643Y-37201348D01*
X77928451Y-37093017D01*
X77960851Y-37028165D01*
X77987140Y-36997758D01*
X78014615Y-36992766D01*
X78044005Y-37001626D01*
X78125952Y-37021558D01*
X78193704Y-37027555D01*
X78279350Y-37036864D01*
X78340034Y-37053517D01*
X78402519Y-37072873D01*
X78497186Y-37096119D01*
X78577472Y-37113016D01*
X78673436Y-37133644D01*
X78748155Y-37153310D01*
X78780794Y-37165534D01*
X78799746Y-37200889D01*
X78821639Y-37276881D01*
X78842183Y-37378167D01*
X78844998Y-37395313D01*
X78863876Y-37500051D01*
X78882942Y-37582861D01*
X78898479Y-37627937D01*
X78900271Y-37630461D01*
X78939483Y-37650518D01*
X79012150Y-37672007D01*
X79044457Y-37679096D01*
X79118951Y-37694862D01*
X79233250Y-37720232D01*
X79372233Y-37751803D01*
X79520780Y-37786173D01*
X79532020Y-37788801D01*
X79684682Y-37824632D01*
X79790661Y-37849206D01*
X79858353Y-37863626D01*
X79896149Y-37868994D01*
X79912444Y-37866410D01*
X79915631Y-37856978D01*
X79914103Y-37841799D01*
X79913982Y-37838944D01*
X79907325Y-37801508D01*
X79889261Y-37718446D01*
X79861891Y-37598937D01*
X79827321Y-37452160D01*
X79787652Y-37287291D01*
X79786258Y-37281555D01*
X79748317Y-37123615D01*
X79700619Y-36922047D01*
X79645827Y-36688285D01*
X79586607Y-36433760D01*
X79564937Y-36340001D01*
X78670238Y-36340001D01*
X78664622Y-36377433D01*
X78647383Y-36389604D01*
X78618099Y-36384091D01*
X78600580Y-36377745D01*
X78514171Y-36355872D01*
X78452413Y-36349790D01*
X78386214Y-36345755D01*
X78346985Y-36329306D01*
X78334424Y-36292561D01*
X78348228Y-36227637D01*
X78388095Y-36126651D01*
X78439475Y-36012594D01*
X78573649Y-35721114D01*
X78621557Y-36000390D01*
X78648284Y-36159056D01*
X78664651Y-36269734D01*
X78670238Y-36340001D01*
X79564937Y-36340001D01*
X79525622Y-36169906D01*
X79465539Y-35908156D01*
X79436054Y-35778948D01*
X79383985Y-35551451D01*
X79335348Y-35341214D01*
X79291661Y-35154630D01*
X79254443Y-34998091D01*
X79225213Y-34877989D01*
X79205488Y-34800717D01*
X79197066Y-34772985D01*
X79161144Y-34752902D01*
X79092402Y-34735658D01*
X79075316Y-34733025D01*
X79012825Y-34722164D01*
X78909030Y-34701717D01*
X78777669Y-34674611D01*
X78632477Y-34643770D01*
X78487193Y-34612120D01*
X78355553Y-34582585D01*
X78251294Y-34558090D01*
X78235491Y-34554192D01*
X78200356Y-34555714D01*
X78165350Y-34585290D01*
X78122209Y-34652034D01*
X78086526Y-34718440D01*
X78025241Y-34832353D01*
X77959812Y-34947446D01*
X77913722Y-35023777D01*
X77865590Y-35104615D01*
X77794636Y-35230475D01*
X77703688Y-35396100D01*
X77595571Y-35596229D01*
X77473112Y-35825606D01*
X77339138Y-36078971D01*
X77196475Y-36351066D01*
X77079386Y-36576000D01*
X76984710Y-36755582D01*
X76911107Y-36888949D01*
X76859309Y-36974885D01*
X76830049Y-37012175D01*
X76824059Y-36999605D01*
X76824102Y-36999333D01*
X76838102Y-36903782D01*
X76856428Y-36767795D01*
X76878301Y-36598036D01*
X76902944Y-36401171D01*
X76929578Y-36183865D01*
X76957426Y-35952783D01*
X76985710Y-35714591D01*
X77013652Y-35475953D01*
X77040474Y-35243536D01*
X77065398Y-35024004D01*
X77087648Y-34824023D01*
X77106443Y-34650258D01*
X77121008Y-34509374D01*
X77130564Y-34408037D01*
X77134333Y-34352911D01*
X77133881Y-34344857D01*
X77096346Y-34325361D01*
X77037880Y-34318222D01*
X76969499Y-34312508D01*
X76868665Y-34297576D01*
X76764379Y-34278078D01*
X76622442Y-34250040D01*
X76481312Y-34224478D01*
X76352126Y-34203139D01*
X76246019Y-34187772D01*
X76174127Y-34180125D01*
X76147893Y-34181279D01*
X76147893Y-34181279D01*
G37*
X76147893Y-34181279D02*
X76142319Y-34210632D01*
X76130863Y-34289527D01*
X76114376Y-34411465D01*
X76093707Y-34569945D01*
X76069707Y-34758469D01*
X76043226Y-34970537D01*
X76021070Y-35150777D01*
X75992965Y-35379755D01*
X75966520Y-35592870D01*
X75942625Y-35783136D01*
X75922169Y-35943563D01*
X75906041Y-36067166D01*
X75895131Y-36146956D01*
X75890908Y-36173833D01*
X75869659Y-36218628D01*
X75819441Y-36235833D01*
X75781495Y-36237333D01*
X75692831Y-36229731D01*
X75618412Y-36211981D01*
X75572928Y-36201241D01*
X75485761Y-36185995D01*
X75367596Y-36167664D01*
X75229114Y-36147665D01*
X75080998Y-36127417D01*
X74933931Y-36108338D01*
X74798597Y-36091848D01*
X74685677Y-36079364D01*
X74605854Y-36072305D01*
X74569811Y-36072090D01*
X74568913Y-36072620D01*
X74559741Y-36107618D01*
X74547754Y-36185135D01*
X74534212Y-36292599D01*
X74520374Y-36417439D01*
X74507501Y-36547084D01*
X74496852Y-36668962D01*
X74489686Y-36770501D01*
X74487264Y-36839131D01*
X74489799Y-36862133D01*
X74523070Y-36871354D01*
X74603286Y-36885352D01*
X74721280Y-36902771D01*
X74867886Y-36922259D01*
X75032306Y-36942271D01*
X75200087Y-36962468D01*
X75350135Y-36981752D01*
X75472780Y-36998782D01*
X75558351Y-37012218D01*
X75596750Y-37020533D01*
X75640086Y-37031430D01*
X75726675Y-37048179D01*
X75843918Y-37068486D01*
X75977750Y-37089837D01*
X76138073Y-37114400D01*
X76304782Y-37139951D01*
X76455155Y-37163006D01*
X76542195Y-37176356D01*
X76651239Y-37194725D01*
X76739241Y-37212571D01*
X76790746Y-37226675D01*
X76796195Y-37229294D01*
X76836841Y-37241177D01*
X76916689Y-37254955D01*
X77018701Y-37267704D01*
X77021973Y-37268045D01*
X77124390Y-37280636D01*
X77205163Y-37294213D01*
X77247255Y-37305899D01*
X77247750Y-37306195D01*
X77288176Y-37319278D01*
X77367588Y-37336852D01*
X77469128Y-37355204D01*
X77473528Y-37355921D01*
X77581614Y-37374818D01*
X77674089Y-37393406D01*
X77730281Y-37407476D01*
X77761261Y-37411561D01*
X77788351Y-37394536D01*
X77818291Y-37347282D01*
X77857824Y-37260678D01*
X77882643Y-37201348D01*
X77928451Y-37093017D01*
X77960851Y-37028165D01*
X77987140Y-36997758D01*
X78014615Y-36992766D01*
X78044005Y-37001626D01*
X78125952Y-37021558D01*
X78193704Y-37027555D01*
X78279350Y-37036864D01*
X78340034Y-37053517D01*
X78402519Y-37072873D01*
X78497186Y-37096119D01*
X78577472Y-37113016D01*
X78673436Y-37133644D01*
X78748155Y-37153310D01*
X78780794Y-37165534D01*
X78799746Y-37200889D01*
X78821639Y-37276881D01*
X78842183Y-37378167D01*
X78844998Y-37395313D01*
X78863876Y-37500051D01*
X78882942Y-37582861D01*
X78898479Y-37627937D01*
X78900271Y-37630461D01*
X78939483Y-37650518D01*
X79012150Y-37672007D01*
X79044457Y-37679096D01*
X79118951Y-37694862D01*
X79233250Y-37720232D01*
X79372233Y-37751803D01*
X79520780Y-37786173D01*
X79532020Y-37788801D01*
X79684682Y-37824632D01*
X79790661Y-37849206D01*
X79858353Y-37863626D01*
X79896149Y-37868994D01*
X79912444Y-37866410D01*
X79915631Y-37856978D01*
X79914103Y-37841799D01*
X79913982Y-37838944D01*
X79907325Y-37801508D01*
X79889261Y-37718446D01*
X79861891Y-37598937D01*
X79827321Y-37452160D01*
X79787652Y-37287291D01*
X79786258Y-37281555D01*
X79748317Y-37123615D01*
X79700619Y-36922047D01*
X79645827Y-36688285D01*
X79586607Y-36433760D01*
X79564937Y-36340001D01*
X78670238Y-36340001D01*
X78664622Y-36377433D01*
X78647383Y-36389604D01*
X78618099Y-36384091D01*
X78600580Y-36377745D01*
X78514171Y-36355872D01*
X78452413Y-36349790D01*
X78386214Y-36345755D01*
X78346985Y-36329306D01*
X78334424Y-36292561D01*
X78348228Y-36227637D01*
X78388095Y-36126651D01*
X78439475Y-36012594D01*
X78573649Y-35721114D01*
X78621557Y-36000390D01*
X78648284Y-36159056D01*
X78664651Y-36269734D01*
X78670238Y-36340001D01*
X79564937Y-36340001D01*
X79525622Y-36169906D01*
X79465539Y-35908156D01*
X79436054Y-35778948D01*
X79383985Y-35551451D01*
X79335348Y-35341214D01*
X79291661Y-35154630D01*
X79254443Y-34998091D01*
X79225213Y-34877989D01*
X79205488Y-34800717D01*
X79197066Y-34772985D01*
X79161144Y-34752902D01*
X79092402Y-34735658D01*
X79075316Y-34733025D01*
X79012825Y-34722164D01*
X78909030Y-34701717D01*
X78777669Y-34674611D01*
X78632477Y-34643770D01*
X78487193Y-34612120D01*
X78355553Y-34582585D01*
X78251294Y-34558090D01*
X78235491Y-34554192D01*
X78200356Y-34555714D01*
X78165350Y-34585290D01*
X78122209Y-34652034D01*
X78086526Y-34718440D01*
X78025241Y-34832353D01*
X77959812Y-34947446D01*
X77913722Y-35023777D01*
X77865590Y-35104615D01*
X77794636Y-35230475D01*
X77703688Y-35396100D01*
X77595571Y-35596229D01*
X77473112Y-35825606D01*
X77339138Y-36078971D01*
X77196475Y-36351066D01*
X77079386Y-36576000D01*
X76984710Y-36755582D01*
X76911107Y-36888949D01*
X76859309Y-36974885D01*
X76830049Y-37012175D01*
X76824059Y-36999605D01*
X76824102Y-36999333D01*
X76838102Y-36903782D01*
X76856428Y-36767795D01*
X76878301Y-36598036D01*
X76902944Y-36401171D01*
X76929578Y-36183865D01*
X76957426Y-35952783D01*
X76985710Y-35714591D01*
X77013652Y-35475953D01*
X77040474Y-35243536D01*
X77065398Y-35024004D01*
X77087648Y-34824023D01*
X77106443Y-34650258D01*
X77121008Y-34509374D01*
X77130564Y-34408037D01*
X77134333Y-34352911D01*
X77133881Y-34344857D01*
X77096346Y-34325361D01*
X77037880Y-34318222D01*
X76969499Y-34312508D01*
X76868665Y-34297576D01*
X76764379Y-34278078D01*
X76622442Y-34250040D01*
X76481312Y-34224478D01*
X76352126Y-34203139D01*
X76246019Y-34187772D01*
X76174127Y-34180125D01*
X76147893Y-34181279D01*
G36*
X80710105Y-35234788D02*
G01*
X80515996Y-35296574D01*
X80458780Y-35326155D01*
X80364757Y-35394752D01*
X80266566Y-35489555D01*
X80174003Y-35598063D01*
X80096860Y-35707776D01*
X80044935Y-35806194D01*
X80027855Y-35876098D01*
X80052107Y-35900102D01*
X80119042Y-35943024D01*
X80220151Y-35999997D01*
X80346930Y-36066154D01*
X80443935Y-36114134D01*
X80859800Y-36315490D01*
X80916867Y-36212912D01*
X81003534Y-36103740D01*
X81110005Y-36040586D01*
X81228335Y-36020315D01*
X81350578Y-36039791D01*
X81468791Y-36095880D01*
X81575027Y-36185446D01*
X81661343Y-36305354D01*
X81719793Y-36452469D01*
X81736215Y-36536227D01*
X81740998Y-36660124D01*
X81730210Y-36817009D01*
X81706164Y-36986335D01*
X81671173Y-37147554D01*
X81664760Y-37171056D01*
X81617786Y-37272200D01*
X81542991Y-37365955D01*
X81454738Y-37438606D01*
X81367389Y-37476439D01*
X81342325Y-37478953D01*
X81222727Y-37466081D01*
X81101654Y-37432874D01*
X81004211Y-37386842D01*
X80983093Y-37371451D01*
X80906359Y-37278844D01*
X80843835Y-37149086D01*
X80803960Y-37001174D01*
X80797391Y-36953398D01*
X80786439Y-36865922D01*
X80770595Y-36820412D01*
X80740325Y-36802582D01*
X80693969Y-36798435D01*
X80624977Y-36797221D01*
X80583364Y-36798990D01*
X80544287Y-36802197D01*
X80463356Y-36806827D01*
X80355121Y-36812207D01*
X80234134Y-36817662D01*
X80114946Y-36822518D01*
X80012108Y-36826100D01*
X79977917Y-36827048D01*
X79857639Y-36830000D01*
X79874232Y-36949944D01*
X79929962Y-37205597D01*
X80021411Y-37444985D01*
X80142892Y-37656880D01*
X80288720Y-37830054D01*
X80345283Y-37880107D01*
X80472828Y-37972057D01*
X80614183Y-38055447D01*
X80754957Y-38123316D01*
X80880762Y-38168704D01*
X80974865Y-38184666D01*
X81032317Y-38194264D01*
X81055710Y-38209587D01*
X81097777Y-38233943D01*
X81183609Y-38254766D01*
X81300591Y-38271260D01*
X81436110Y-38282629D01*
X81577553Y-38288078D01*
X81712305Y-38286810D01*
X81827753Y-38278030D01*
X81904417Y-38263141D01*
X82129685Y-38169169D01*
X82318461Y-38034183D01*
X82471260Y-37857381D01*
X82588597Y-37637962D01*
X82670987Y-37375126D01*
X82718947Y-37068074D01*
X82725428Y-36987151D01*
X82720123Y-36679779D01*
X82663722Y-36388392D01*
X82558355Y-36118077D01*
X82406155Y-35873921D01*
X82209251Y-35661010D01*
X82148147Y-35609096D01*
X82054308Y-35545993D01*
X81923598Y-35474459D01*
X81773130Y-35402554D01*
X81620016Y-35338336D01*
X81481368Y-35289862D01*
X81452862Y-35281662D01*
X81186002Y-35226997D01*
X80935928Y-35211484D01*
X80710105Y-35234788D01*
X80710105Y-35234788D01*
G37*
X80710105Y-35234788D02*
X80515996Y-35296574D01*
X80458780Y-35326155D01*
X80364757Y-35394752D01*
X80266566Y-35489555D01*
X80174003Y-35598063D01*
X80096860Y-35707776D01*
X80044935Y-35806194D01*
X80027855Y-35876098D01*
X80052107Y-35900102D01*
X80119042Y-35943024D01*
X80220151Y-35999997D01*
X80346930Y-36066154D01*
X80443935Y-36114134D01*
X80859800Y-36315490D01*
X80916867Y-36212912D01*
X81003534Y-36103740D01*
X81110005Y-36040586D01*
X81228335Y-36020315D01*
X81350578Y-36039791D01*
X81468791Y-36095880D01*
X81575027Y-36185446D01*
X81661343Y-36305354D01*
X81719793Y-36452469D01*
X81736215Y-36536227D01*
X81740998Y-36660124D01*
X81730210Y-36817009D01*
X81706164Y-36986335D01*
X81671173Y-37147554D01*
X81664760Y-37171056D01*
X81617786Y-37272200D01*
X81542991Y-37365955D01*
X81454738Y-37438606D01*
X81367389Y-37476439D01*
X81342325Y-37478953D01*
X81222727Y-37466081D01*
X81101654Y-37432874D01*
X81004211Y-37386842D01*
X80983093Y-37371451D01*
X80906359Y-37278844D01*
X80843835Y-37149086D01*
X80803960Y-37001174D01*
X80797391Y-36953398D01*
X80786439Y-36865922D01*
X80770595Y-36820412D01*
X80740325Y-36802582D01*
X80693969Y-36798435D01*
X80624977Y-36797221D01*
X80583364Y-36798990D01*
X80544287Y-36802197D01*
X80463356Y-36806827D01*
X80355121Y-36812207D01*
X80234134Y-36817662D01*
X80114946Y-36822518D01*
X80012108Y-36826100D01*
X79977917Y-36827048D01*
X79857639Y-36830000D01*
X79874232Y-36949944D01*
X79929962Y-37205597D01*
X80021411Y-37444985D01*
X80142892Y-37656880D01*
X80288720Y-37830054D01*
X80345283Y-37880107D01*
X80472828Y-37972057D01*
X80614183Y-38055447D01*
X80754957Y-38123316D01*
X80880762Y-38168704D01*
X80974865Y-38184666D01*
X81032317Y-38194264D01*
X81055710Y-38209587D01*
X81097777Y-38233943D01*
X81183609Y-38254766D01*
X81300591Y-38271260D01*
X81436110Y-38282629D01*
X81577553Y-38288078D01*
X81712305Y-38286810D01*
X81827753Y-38278030D01*
X81904417Y-38263141D01*
X82129685Y-38169169D01*
X82318461Y-38034183D01*
X82471260Y-37857381D01*
X82588597Y-37637962D01*
X82670987Y-37375126D01*
X82718947Y-37068074D01*
X82725428Y-36987151D01*
X82720123Y-36679779D01*
X82663722Y-36388392D01*
X82558355Y-36118077D01*
X82406155Y-35873921D01*
X82209251Y-35661010D01*
X82148147Y-35609096D01*
X82054308Y-35545993D01*
X81923598Y-35474459D01*
X81773130Y-35402554D01*
X81620016Y-35338336D01*
X81481368Y-35289862D01*
X81452862Y-35281662D01*
X81186002Y-35226997D01*
X80935928Y-35211484D01*
X80710105Y-35234788D01*
G36*
X89828072Y-34907222D02*
G01*
X89790162Y-34958824D01*
X89747051Y-35027087D01*
X89715370Y-35072500D01*
X89708589Y-35080222D01*
X89688691Y-35107662D01*
X89644049Y-35174606D01*
X89580042Y-35272822D01*
X89502046Y-35394077D01*
X89441252Y-35489444D01*
X89356207Y-35622864D01*
X89281037Y-35739917D01*
X89221228Y-35832126D01*
X89182268Y-35891016D01*
X89170356Y-35907857D01*
X89134680Y-35912877D01*
X89063451Y-35901444D01*
X88998760Y-35884002D01*
X88903660Y-35855621D01*
X88823421Y-35833717D01*
X88790639Y-35826107D01*
X88739818Y-35814221D01*
X88649695Y-35791122D01*
X88535349Y-35760721D01*
X88466084Y-35741891D01*
X88250932Y-35683419D01*
X88086887Y-35641616D01*
X87970656Y-35618093D01*
X87898945Y-35614462D01*
X87868462Y-35632335D01*
X87875913Y-35673325D01*
X87918006Y-35739045D01*
X87991447Y-35831105D01*
X88077002Y-35932377D01*
X88245141Y-36130147D01*
X88379801Y-36289834D01*
X88483921Y-36416475D01*
X88560442Y-36515110D01*
X88612305Y-36590776D01*
X88642451Y-36648511D01*
X88653821Y-36693354D01*
X88649354Y-36730343D01*
X88631993Y-36764517D01*
X88604677Y-36800913D01*
X88592687Y-36815888D01*
X88560678Y-36860516D01*
X88505094Y-36942478D01*
X88432640Y-37051473D01*
X88350021Y-37177202D01*
X88263944Y-37309364D01*
X88181112Y-37437658D01*
X88108233Y-37551785D01*
X88052010Y-37641443D01*
X88019150Y-37696332D01*
X88017127Y-37700033D01*
X87998446Y-37749676D01*
X88017354Y-37774562D01*
X88027069Y-37778747D01*
X88041809Y-37784262D01*
X88057613Y-37786818D01*
X88080933Y-37784267D01*
X88118223Y-37774459D01*
X88175937Y-37755246D01*
X88260528Y-37724478D01*
X88378449Y-37680006D01*
X88536155Y-37619680D01*
X88740099Y-37541353D01*
X88741159Y-37540946D01*
X89256122Y-37343140D01*
X89471294Y-37601625D01*
X89562108Y-37710592D01*
X89645267Y-37810143D01*
X89710921Y-37888501D01*
X89746553Y-37930759D01*
X89795028Y-37987826D01*
X89865088Y-38070390D01*
X89941828Y-38160885D01*
X89944123Y-38163592D01*
X90026470Y-38257186D01*
X90085644Y-38311831D01*
X90124798Y-38324476D01*
X90147084Y-38292067D01*
X90155656Y-38211551D01*
X90153665Y-38079876D01*
X90148229Y-37965944D01*
X90133792Y-37703990D01*
X90121212Y-37494660D01*
X90110219Y-37334177D01*
X90100544Y-37218759D01*
X90091918Y-37144629D01*
X90088050Y-37122507D01*
X90092490Y-37061505D01*
X90110954Y-37032642D01*
X90154272Y-37008597D01*
X90234920Y-36972700D01*
X90336793Y-36931292D01*
X90443788Y-36890716D01*
X90539803Y-36857311D01*
X90603917Y-36838524D01*
X90653409Y-36815630D01*
X90667417Y-36793784D01*
X90677842Y-36776196D01*
X90682878Y-36779608D01*
X90714459Y-36777260D01*
X90784990Y-36757479D01*
X90881167Y-36724179D01*
X90915711Y-36711105D01*
X91025510Y-36669833D01*
X91121649Y-36635721D01*
X91186771Y-36614875D01*
X91195722Y-36612557D01*
X91260208Y-36584273D01*
X91301506Y-36542685D01*
X91306730Y-36502540D01*
X91299810Y-36493414D01*
X91276740Y-36481948D01*
X91223225Y-36463778D01*
X91135416Y-36437852D01*
X91009463Y-36403116D01*
X90841517Y-36358517D01*
X90627727Y-36303002D01*
X90364245Y-36235517D01*
X90263864Y-36209965D01*
X90164760Y-36182160D01*
X90087545Y-36155676D01*
X90048554Y-36136133D01*
X90048187Y-36135758D01*
X90040023Y-36120312D01*
X90032436Y-36088515D01*
X90024922Y-36034538D01*
X90016978Y-35952554D01*
X90008100Y-35836734D01*
X89997786Y-35681251D01*
X89985531Y-35480277D01*
X89972949Y-35264750D01*
X89965114Y-35134691D01*
X89957764Y-35023012D01*
X89951833Y-34943330D01*
X89948766Y-34911972D01*
X89925325Y-34866558D01*
X89881771Y-34865956D01*
X89828072Y-34907222D01*
X89828072Y-34907222D01*
G37*
X89828072Y-34907222D02*
X89790162Y-34958824D01*
X89747051Y-35027087D01*
X89715370Y-35072500D01*
X89708589Y-35080222D01*
X89688691Y-35107662D01*
X89644049Y-35174606D01*
X89580042Y-35272822D01*
X89502046Y-35394077D01*
X89441252Y-35489444D01*
X89356207Y-35622864D01*
X89281037Y-35739917D01*
X89221228Y-35832126D01*
X89182268Y-35891016D01*
X89170356Y-35907857D01*
X89134680Y-35912877D01*
X89063451Y-35901444D01*
X88998760Y-35884002D01*
X88903660Y-35855621D01*
X88823421Y-35833717D01*
X88790639Y-35826107D01*
X88739818Y-35814221D01*
X88649695Y-35791122D01*
X88535349Y-35760721D01*
X88466084Y-35741891D01*
X88250932Y-35683419D01*
X88086887Y-35641616D01*
X87970656Y-35618093D01*
X87898945Y-35614462D01*
X87868462Y-35632335D01*
X87875913Y-35673325D01*
X87918006Y-35739045D01*
X87991447Y-35831105D01*
X88077002Y-35932377D01*
X88245141Y-36130147D01*
X88379801Y-36289834D01*
X88483921Y-36416475D01*
X88560442Y-36515110D01*
X88612305Y-36590776D01*
X88642451Y-36648511D01*
X88653821Y-36693354D01*
X88649354Y-36730343D01*
X88631993Y-36764517D01*
X88604677Y-36800913D01*
X88592687Y-36815888D01*
X88560678Y-36860516D01*
X88505094Y-36942478D01*
X88432640Y-37051473D01*
X88350021Y-37177202D01*
X88263944Y-37309364D01*
X88181112Y-37437658D01*
X88108233Y-37551785D01*
X88052010Y-37641443D01*
X88019150Y-37696332D01*
X88017127Y-37700033D01*
X87998446Y-37749676D01*
X88017354Y-37774562D01*
X88027069Y-37778747D01*
X88041809Y-37784262D01*
X88057613Y-37786818D01*
X88080933Y-37784267D01*
X88118223Y-37774459D01*
X88175937Y-37755246D01*
X88260528Y-37724478D01*
X88378449Y-37680006D01*
X88536155Y-37619680D01*
X88740099Y-37541353D01*
X88741159Y-37540946D01*
X89256122Y-37343140D01*
X89471294Y-37601625D01*
X89562108Y-37710592D01*
X89645267Y-37810143D01*
X89710921Y-37888501D01*
X89746553Y-37930759D01*
X89795028Y-37987826D01*
X89865088Y-38070390D01*
X89941828Y-38160885D01*
X89944123Y-38163592D01*
X90026470Y-38257186D01*
X90085644Y-38311831D01*
X90124798Y-38324476D01*
X90147084Y-38292067D01*
X90155656Y-38211551D01*
X90153665Y-38079876D01*
X90148229Y-37965944D01*
X90133792Y-37703990D01*
X90121212Y-37494660D01*
X90110219Y-37334177D01*
X90100544Y-37218759D01*
X90091918Y-37144629D01*
X90088050Y-37122507D01*
X90092490Y-37061505D01*
X90110954Y-37032642D01*
X90154272Y-37008597D01*
X90234920Y-36972700D01*
X90336793Y-36931292D01*
X90443788Y-36890716D01*
X90539803Y-36857311D01*
X90603917Y-36838524D01*
X90653409Y-36815630D01*
X90667417Y-36793784D01*
X90677842Y-36776196D01*
X90682878Y-36779608D01*
X90714459Y-36777260D01*
X90784990Y-36757479D01*
X90881167Y-36724179D01*
X90915711Y-36711105D01*
X91025510Y-36669833D01*
X91121649Y-36635721D01*
X91186771Y-36614875D01*
X91195722Y-36612557D01*
X91260208Y-36584273D01*
X91301506Y-36542685D01*
X91306730Y-36502540D01*
X91299810Y-36493414D01*
X91276740Y-36481948D01*
X91223225Y-36463778D01*
X91135416Y-36437852D01*
X91009463Y-36403116D01*
X90841517Y-36358517D01*
X90627727Y-36303002D01*
X90364245Y-36235517D01*
X90263864Y-36209965D01*
X90164760Y-36182160D01*
X90087545Y-36155676D01*
X90048554Y-36136133D01*
X90048187Y-36135758D01*
X90040023Y-36120312D01*
X90032436Y-36088515D01*
X90024922Y-36034538D01*
X90016978Y-35952554D01*
X90008100Y-35836734D01*
X89997786Y-35681251D01*
X89985531Y-35480277D01*
X89972949Y-35264750D01*
X89965114Y-35134691D01*
X89957764Y-35023012D01*
X89951833Y-34943330D01*
X89948766Y-34911972D01*
X89925325Y-34866558D01*
X89881771Y-34865956D01*
X89828072Y-34907222D01*
G36*
X82482973Y-38847888D02*
G01*
X82497084Y-38862000D01*
X82511195Y-38847888D01*
X82497084Y-38833777D01*
X82482973Y-38847888D01*
X82482973Y-38847888D01*
G37*
X82482973Y-38847888D02*
X82497084Y-38862000D01*
X82511195Y-38847888D01*
X82497084Y-38833777D01*
X82482973Y-38847888D01*
G36*
X60667646Y-35959994D02*
G01*
X60667006Y-35962166D01*
X60663548Y-35990709D01*
X60653710Y-36069766D01*
X60638182Y-36193853D01*
X60617652Y-36357484D01*
X60592809Y-36555175D01*
X60564342Y-36781439D01*
X60532939Y-37030791D01*
X60499560Y-37295601D01*
X60460849Y-37603602D01*
X60428972Y-37860375D01*
X60403509Y-38070669D01*
X60384040Y-38239233D01*
X60370146Y-38370815D01*
X60361405Y-38470164D01*
X60357398Y-38542028D01*
X60357706Y-38591157D01*
X60361907Y-38622298D01*
X60369581Y-38640200D01*
X60379805Y-38649326D01*
X60442230Y-38677045D01*
X60550741Y-38716200D01*
X60696830Y-38763902D01*
X60871985Y-38817264D01*
X60892973Y-38823447D01*
X60986260Y-38852258D01*
X61061398Y-38877973D01*
X61091455Y-38890145D01*
X61149388Y-38911180D01*
X61223878Y-38930850D01*
X61285164Y-38939534D01*
X61313594Y-38919487D01*
X61328523Y-38857022D01*
X61328555Y-38856828D01*
X61337642Y-38795068D01*
X61352042Y-38688528D01*
X61370930Y-38543918D01*
X61393480Y-38367948D01*
X61418866Y-38167329D01*
X61446263Y-37948769D01*
X61474843Y-37718980D01*
X61503783Y-37484672D01*
X61532255Y-37252553D01*
X61559434Y-37029335D01*
X61584494Y-36821726D01*
X61606608Y-36636438D01*
X61624953Y-36480180D01*
X61638700Y-36359663D01*
X61647025Y-36281595D01*
X61649102Y-36252688D01*
X61649075Y-36252658D01*
X61619831Y-36242372D01*
X61551819Y-36221356D01*
X61471528Y-36197603D01*
X61371810Y-36167600D01*
X61287370Y-36140447D01*
X61245750Y-36125566D01*
X61188847Y-36105618D01*
X61099409Y-36077344D01*
X61019973Y-36053655D01*
X60921835Y-36023549D01*
X60840593Y-35995741D01*
X60801633Y-35979821D01*
X60749671Y-35962107D01*
X60696476Y-35954380D01*
X60667646Y-35959994D01*
X60667646Y-35959994D01*
G37*
X60667646Y-35959994D02*
X60667006Y-35962166D01*
X60663548Y-35990709D01*
X60653710Y-36069766D01*
X60638182Y-36193853D01*
X60617652Y-36357484D01*
X60592809Y-36555175D01*
X60564342Y-36781439D01*
X60532939Y-37030791D01*
X60499560Y-37295601D01*
X60460849Y-37603602D01*
X60428972Y-37860375D01*
X60403509Y-38070669D01*
X60384040Y-38239233D01*
X60370146Y-38370815D01*
X60361405Y-38470164D01*
X60357398Y-38542028D01*
X60357706Y-38591157D01*
X60361907Y-38622298D01*
X60369581Y-38640200D01*
X60379805Y-38649326D01*
X60442230Y-38677045D01*
X60550741Y-38716200D01*
X60696830Y-38763902D01*
X60871985Y-38817264D01*
X60892973Y-38823447D01*
X60986260Y-38852258D01*
X61061398Y-38877973D01*
X61091455Y-38890145D01*
X61149388Y-38911180D01*
X61223878Y-38930850D01*
X61285164Y-38939534D01*
X61313594Y-38919487D01*
X61328523Y-38857022D01*
X61328555Y-38856828D01*
X61337642Y-38795068D01*
X61352042Y-38688528D01*
X61370930Y-38543918D01*
X61393480Y-38367948D01*
X61418866Y-38167329D01*
X61446263Y-37948769D01*
X61474843Y-37718980D01*
X61503783Y-37484672D01*
X61532255Y-37252553D01*
X61559434Y-37029335D01*
X61584494Y-36821726D01*
X61606608Y-36636438D01*
X61624953Y-36480180D01*
X61638700Y-36359663D01*
X61647025Y-36281595D01*
X61649102Y-36252688D01*
X61649075Y-36252658D01*
X61619831Y-36242372D01*
X61551819Y-36221356D01*
X61471528Y-36197603D01*
X61371810Y-36167600D01*
X61287370Y-36140447D01*
X61245750Y-36125566D01*
X61188847Y-36105618D01*
X61099409Y-36077344D01*
X61019973Y-36053655D01*
X60921835Y-36023549D01*
X60840593Y-35995741D01*
X60801633Y-35979821D01*
X60749671Y-35962107D01*
X60696476Y-35954380D01*
X60667646Y-35959994D01*
G36*
X61943241Y-36374636D02*
G01*
X61925085Y-36410939D01*
X61924542Y-36413343D01*
X61918692Y-36451891D01*
X61906896Y-36539173D01*
X61890012Y-36668303D01*
X61868900Y-36832393D01*
X61844420Y-37024560D01*
X61817431Y-37237915D01*
X61788794Y-37465574D01*
X61759367Y-37700650D01*
X61730010Y-37936257D01*
X61701583Y-38165510D01*
X61674945Y-38381522D01*
X61650956Y-38577407D01*
X61630476Y-38746279D01*
X61614364Y-38881252D01*
X61603479Y-38975440D01*
X61598682Y-39021958D01*
X61598528Y-39025012D01*
X61623497Y-39045171D01*
X61688777Y-39072876D01*
X61774917Y-39100537D01*
X61876364Y-39130287D01*
X61962433Y-39157348D01*
X62007750Y-39173314D01*
X62099056Y-39206975D01*
X62202337Y-39240238D01*
X62298784Y-39267565D01*
X62369591Y-39283418D01*
X62388161Y-39285333D01*
X62403651Y-39278008D01*
X62418024Y-39251924D01*
X62432439Y-39200920D01*
X62448060Y-39118833D01*
X62466046Y-38999501D01*
X62487560Y-38836760D01*
X62513762Y-38624449D01*
X62515652Y-38608814D01*
X62538679Y-38421375D01*
X62559922Y-38254597D01*
X62578363Y-38115985D01*
X62592985Y-38013045D01*
X62602768Y-37953280D01*
X62606236Y-37941188D01*
X62612090Y-37970479D01*
X62623788Y-38048014D01*
X62640261Y-38166018D01*
X62660442Y-38316715D01*
X62683263Y-38492328D01*
X62700092Y-38624763D01*
X62729410Y-38857317D01*
X62752836Y-39039917D01*
X62771629Y-39178601D01*
X62787048Y-39279404D01*
X62800354Y-39348362D01*
X62812806Y-39391512D01*
X62825664Y-39414890D01*
X62840187Y-39424532D01*
X62857636Y-39426474D01*
X62867400Y-39426444D01*
X62921203Y-39439526D01*
X62939084Y-39454666D01*
X62977964Y-39476467D01*
X63025799Y-39482888D01*
X63101404Y-39493119D01*
X63144078Y-39508043D01*
X63216654Y-39538206D01*
X63309059Y-39567393D01*
X63404601Y-39591569D01*
X63486586Y-39606703D01*
X63538320Y-39608760D01*
X63546568Y-39605282D01*
X63555279Y-39593434D01*
X63568163Y-39569880D01*
X63587489Y-39529410D01*
X63615520Y-39466815D01*
X63654525Y-39376885D01*
X63706768Y-39254410D01*
X63774516Y-39094182D01*
X63860034Y-38890991D01*
X63937405Y-38706777D01*
X63989822Y-38584932D01*
X64033719Y-38488641D01*
X64065138Y-38426153D01*
X64080119Y-38405715D01*
X64080827Y-38407944D01*
X64077826Y-38446449D01*
X64068881Y-38530739D01*
X64055238Y-38650613D01*
X64038141Y-38795870D01*
X64018836Y-38956310D01*
X63998567Y-39121733D01*
X63978579Y-39281937D01*
X63960118Y-39426723D01*
X63944428Y-39545891D01*
X63932754Y-39629239D01*
X63928475Y-39656238D01*
X63928745Y-39714848D01*
X63964896Y-39742197D01*
X63977564Y-39745652D01*
X64028918Y-39758832D01*
X64121077Y-39783336D01*
X64240423Y-39815515D01*
X64357785Y-39847468D01*
X64528295Y-39892677D01*
X64649074Y-39921246D01*
X64724077Y-39933959D01*
X64757260Y-39931605D01*
X64759725Y-39927388D01*
X64763195Y-39898847D01*
X64773022Y-39819761D01*
X64788523Y-39695590D01*
X64809014Y-39531795D01*
X64833811Y-39333833D01*
X64862232Y-39107166D01*
X64893593Y-38857251D01*
X64927210Y-38589549D01*
X64928245Y-38581315D01*
X64961771Y-38313193D01*
X64992792Y-38062699D01*
X65020652Y-37835290D01*
X65044698Y-37636424D01*
X65064276Y-37471557D01*
X65078731Y-37346147D01*
X65087408Y-37265650D01*
X65089654Y-37235525D01*
X65089614Y-37235455D01*
X65061208Y-37225781D01*
X64990272Y-37205268D01*
X64888886Y-37177345D01*
X64815261Y-37157610D01*
X64675319Y-37120302D01*
X64533208Y-37082142D01*
X64412846Y-37049562D01*
X64378417Y-37040156D01*
X64275482Y-37012868D01*
X64184770Y-36990441D01*
X64138528Y-36980281D01*
X64056825Y-36957511D01*
X64008182Y-36937979D01*
X63964925Y-36920530D01*
X63927419Y-36917659D01*
X63891749Y-36934840D01*
X63854004Y-36977546D01*
X63810270Y-37051251D01*
X63756633Y-37161428D01*
X63689181Y-37313551D01*
X63614150Y-37489146D01*
X63544062Y-37655782D01*
X63482085Y-37805716D01*
X63431460Y-37930894D01*
X63395429Y-38023262D01*
X63377233Y-38074764D01*
X63375670Y-38081813D01*
X63364965Y-38090016D01*
X63351806Y-38071777D01*
X63341917Y-38032625D01*
X63326710Y-37945862D01*
X63307442Y-37819938D01*
X63285373Y-37663302D01*
X63261761Y-37484404D01*
X63247994Y-37374893D01*
X63222359Y-37163606D01*
X63201834Y-37000973D01*
X63182848Y-36879875D01*
X63161831Y-36793191D01*
X63135211Y-36733803D01*
X63099418Y-36694592D01*
X63050880Y-36668437D01*
X62986028Y-36648220D01*
X62901290Y-36626821D01*
X62868528Y-36618333D01*
X62765239Y-36589917D01*
X62677489Y-36563896D01*
X62628639Y-36547483D01*
X62571636Y-36528042D01*
X62482041Y-36500604D01*
X62402862Y-36477787D01*
X62299814Y-36448305D01*
X62209045Y-36421265D01*
X62162973Y-36406702D01*
X62051865Y-36372805D01*
X61982062Y-36362021D01*
X61943241Y-36374636D01*
X61943241Y-36374636D01*
G37*
X61943241Y-36374636D02*
X61925085Y-36410939D01*
X61924542Y-36413343D01*
X61918692Y-36451891D01*
X61906896Y-36539173D01*
X61890012Y-36668303D01*
X61868900Y-36832393D01*
X61844420Y-37024560D01*
X61817431Y-37237915D01*
X61788794Y-37465574D01*
X61759367Y-37700650D01*
X61730010Y-37936257D01*
X61701583Y-38165510D01*
X61674945Y-38381522D01*
X61650956Y-38577407D01*
X61630476Y-38746279D01*
X61614364Y-38881252D01*
X61603479Y-38975440D01*
X61598682Y-39021958D01*
X61598528Y-39025012D01*
X61623497Y-39045171D01*
X61688777Y-39072876D01*
X61774917Y-39100537D01*
X61876364Y-39130287D01*
X61962433Y-39157348D01*
X62007750Y-39173314D01*
X62099056Y-39206975D01*
X62202337Y-39240238D01*
X62298784Y-39267565D01*
X62369591Y-39283418D01*
X62388161Y-39285333D01*
X62403651Y-39278008D01*
X62418024Y-39251924D01*
X62432439Y-39200920D01*
X62448060Y-39118833D01*
X62466046Y-38999501D01*
X62487560Y-38836760D01*
X62513762Y-38624449D01*
X62515652Y-38608814D01*
X62538679Y-38421375D01*
X62559922Y-38254597D01*
X62578363Y-38115985D01*
X62592985Y-38013045D01*
X62602768Y-37953280D01*
X62606236Y-37941188D01*
X62612090Y-37970479D01*
X62623788Y-38048014D01*
X62640261Y-38166018D01*
X62660442Y-38316715D01*
X62683263Y-38492328D01*
X62700092Y-38624763D01*
X62729410Y-38857317D01*
X62752836Y-39039917D01*
X62771629Y-39178601D01*
X62787048Y-39279404D01*
X62800354Y-39348362D01*
X62812806Y-39391512D01*
X62825664Y-39414890D01*
X62840187Y-39424532D01*
X62857636Y-39426474D01*
X62867400Y-39426444D01*
X62921203Y-39439526D01*
X62939084Y-39454666D01*
X62977964Y-39476467D01*
X63025799Y-39482888D01*
X63101404Y-39493119D01*
X63144078Y-39508043D01*
X63216654Y-39538206D01*
X63309059Y-39567393D01*
X63404601Y-39591569D01*
X63486586Y-39606703D01*
X63538320Y-39608760D01*
X63546568Y-39605282D01*
X63555279Y-39593434D01*
X63568163Y-39569880D01*
X63587489Y-39529410D01*
X63615520Y-39466815D01*
X63654525Y-39376885D01*
X63706768Y-39254410D01*
X63774516Y-39094182D01*
X63860034Y-38890991D01*
X63937405Y-38706777D01*
X63989822Y-38584932D01*
X64033719Y-38488641D01*
X64065138Y-38426153D01*
X64080119Y-38405715D01*
X64080827Y-38407944D01*
X64077826Y-38446449D01*
X64068881Y-38530739D01*
X64055238Y-38650613D01*
X64038141Y-38795870D01*
X64018836Y-38956310D01*
X63998567Y-39121733D01*
X63978579Y-39281937D01*
X63960118Y-39426723D01*
X63944428Y-39545891D01*
X63932754Y-39629239D01*
X63928475Y-39656238D01*
X63928745Y-39714848D01*
X63964896Y-39742197D01*
X63977564Y-39745652D01*
X64028918Y-39758832D01*
X64121077Y-39783336D01*
X64240423Y-39815515D01*
X64357785Y-39847468D01*
X64528295Y-39892677D01*
X64649074Y-39921246D01*
X64724077Y-39933959D01*
X64757260Y-39931605D01*
X64759725Y-39927388D01*
X64763195Y-39898847D01*
X64773022Y-39819761D01*
X64788523Y-39695590D01*
X64809014Y-39531795D01*
X64833811Y-39333833D01*
X64862232Y-39107166D01*
X64893593Y-38857251D01*
X64927210Y-38589549D01*
X64928245Y-38581315D01*
X64961771Y-38313193D01*
X64992792Y-38062699D01*
X65020652Y-37835290D01*
X65044698Y-37636424D01*
X65064276Y-37471557D01*
X65078731Y-37346147D01*
X65087408Y-37265650D01*
X65089654Y-37235525D01*
X65089614Y-37235455D01*
X65061208Y-37225781D01*
X64990272Y-37205268D01*
X64888886Y-37177345D01*
X64815261Y-37157610D01*
X64675319Y-37120302D01*
X64533208Y-37082142D01*
X64412846Y-37049562D01*
X64378417Y-37040156D01*
X64275482Y-37012868D01*
X64184770Y-36990441D01*
X64138528Y-36980281D01*
X64056825Y-36957511D01*
X64008182Y-36937979D01*
X63964925Y-36920530D01*
X63927419Y-36917659D01*
X63891749Y-36934840D01*
X63854004Y-36977546D01*
X63810270Y-37051251D01*
X63756633Y-37161428D01*
X63689181Y-37313551D01*
X63614150Y-37489146D01*
X63544062Y-37655782D01*
X63482085Y-37805716D01*
X63431460Y-37930894D01*
X63395429Y-38023262D01*
X63377233Y-38074764D01*
X63375670Y-38081813D01*
X63364965Y-38090016D01*
X63351806Y-38071777D01*
X63341917Y-38032625D01*
X63326710Y-37945862D01*
X63307442Y-37819938D01*
X63285373Y-37663302D01*
X63261761Y-37484404D01*
X63247994Y-37374893D01*
X63222359Y-37163606D01*
X63201834Y-37000973D01*
X63182848Y-36879875D01*
X63161831Y-36793191D01*
X63135211Y-36733803D01*
X63099418Y-36694592D01*
X63050880Y-36668437D01*
X62986028Y-36648220D01*
X62901290Y-36626821D01*
X62868528Y-36618333D01*
X62765239Y-36589917D01*
X62677489Y-36563896D01*
X62628639Y-36547483D01*
X62571636Y-36528042D01*
X62482041Y-36500604D01*
X62402862Y-36477787D01*
X62299814Y-36448305D01*
X62209045Y-36421265D01*
X62162973Y-36406702D01*
X62051865Y-36372805D01*
X61982062Y-36362021D01*
X61943241Y-36374636D01*
G36*
X65360668Y-37320008D02*
G01*
X65354587Y-37349571D01*
X65342520Y-37427948D01*
X65325464Y-37547943D01*
X65304415Y-37702360D01*
X65280370Y-37884003D01*
X65254324Y-38085675D01*
X65250293Y-38117308D01*
X65212940Y-38422096D01*
X65185230Y-38677780D01*
X65167196Y-38890876D01*
X65158872Y-39067900D01*
X65160290Y-39215367D01*
X65171483Y-39339793D01*
X65192483Y-39447695D01*
X65223325Y-39545589D01*
X65257920Y-39627115D01*
X65383466Y-39833246D01*
X65551294Y-40016467D01*
X65748238Y-40163679D01*
X65853661Y-40219756D01*
X65952530Y-40265598D01*
X66034796Y-40304034D01*
X66083812Y-40327287D01*
X66085862Y-40328289D01*
X66133793Y-40343513D01*
X66219133Y-40363581D01*
X66323594Y-40384201D01*
X66325750Y-40384589D01*
X66435670Y-40406388D01*
X66531873Y-40429045D01*
X66592013Y-40447139D01*
X66650024Y-40458356D01*
X66747578Y-40465635D01*
X66867851Y-40467978D01*
X66927970Y-40467076D01*
X67067348Y-40460781D01*
X67169990Y-40448036D01*
X67255549Y-40424908D01*
X67343677Y-40387467D01*
X67356247Y-40381392D01*
X67537899Y-40267285D01*
X67680051Y-40119176D01*
X67787189Y-39931420D01*
X67846251Y-39764738D01*
X67857611Y-39709801D01*
X67874624Y-39607825D01*
X67896078Y-39467795D01*
X67920759Y-39298699D01*
X67947457Y-39109522D01*
X67974959Y-38909250D01*
X68002052Y-38706870D01*
X68027526Y-38511367D01*
X68050167Y-38331729D01*
X68068763Y-38176940D01*
X68082103Y-38055988D01*
X68088974Y-37977858D01*
X68089639Y-37960361D01*
X68064552Y-37933359D01*
X68001226Y-37906238D01*
X67917570Y-37884697D01*
X67831487Y-37874436D01*
X67818982Y-37874222D01*
X67750185Y-37866417D01*
X67709683Y-37847482D01*
X67708639Y-37846000D01*
X67669523Y-37823718D01*
X67625881Y-37817777D01*
X67567987Y-37811077D01*
X67473947Y-37793338D01*
X67362144Y-37768109D01*
X67339435Y-37762518D01*
X67236679Y-37737611D01*
X67158383Y-37720097D01*
X67117689Y-37712865D01*
X67114781Y-37713129D01*
X67110588Y-37741509D01*
X67100395Y-37819084D01*
X67085065Y-37939024D01*
X67065462Y-38094498D01*
X67042450Y-38278676D01*
X67016893Y-38484728D01*
X67005257Y-38579005D01*
X66976559Y-38803797D01*
X66948294Y-39010285D01*
X66921580Y-39191291D01*
X66897538Y-39339638D01*
X66877288Y-39448147D01*
X66861950Y-39509640D01*
X66858861Y-39517128D01*
X66784027Y-39615481D01*
X66682390Y-39667115D01*
X66547878Y-39675030D01*
X66540564Y-39674369D01*
X66385870Y-39635176D01*
X66264550Y-39551958D01*
X66185095Y-39437528D01*
X66171741Y-39407104D01*
X66162101Y-39375078D01*
X66156576Y-39335009D01*
X66155571Y-39280452D01*
X66159486Y-39204964D01*
X66168724Y-39102102D01*
X66183688Y-38965422D01*
X66204779Y-38788481D01*
X66232400Y-38564837D01*
X66246791Y-38449459D01*
X66281814Y-38161082D01*
X66307959Y-37927874D01*
X66325276Y-37749273D01*
X66333816Y-37624712D01*
X66333630Y-37553629D01*
X66328837Y-37535820D01*
X66282521Y-37515861D01*
X66210440Y-37507337D01*
X66208883Y-37507333D01*
X66140600Y-37499410D01*
X66100737Y-37480231D01*
X66099973Y-37479111D01*
X66062376Y-37459889D01*
X65994236Y-37450966D01*
X65987084Y-37450888D01*
X65917991Y-37444113D01*
X65877532Y-37427604D01*
X65876037Y-37425647D01*
X65840221Y-37405665D01*
X65771552Y-37388373D01*
X65754427Y-37385701D01*
X65659822Y-37370159D01*
X65548440Y-37348636D01*
X65509680Y-37340365D01*
X65428468Y-37324703D01*
X65373507Y-37318368D01*
X65360668Y-37320008D01*
X65360668Y-37320008D01*
G37*
X65360668Y-37320008D02*
X65354587Y-37349571D01*
X65342520Y-37427948D01*
X65325464Y-37547943D01*
X65304415Y-37702360D01*
X65280370Y-37884003D01*
X65254324Y-38085675D01*
X65250293Y-38117308D01*
X65212940Y-38422096D01*
X65185230Y-38677780D01*
X65167196Y-38890876D01*
X65158872Y-39067900D01*
X65160290Y-39215367D01*
X65171483Y-39339793D01*
X65192483Y-39447695D01*
X65223325Y-39545589D01*
X65257920Y-39627115D01*
X65383466Y-39833246D01*
X65551294Y-40016467D01*
X65748238Y-40163679D01*
X65853661Y-40219756D01*
X65952530Y-40265598D01*
X66034796Y-40304034D01*
X66083812Y-40327287D01*
X66085862Y-40328289D01*
X66133793Y-40343513D01*
X66219133Y-40363581D01*
X66323594Y-40384201D01*
X66325750Y-40384589D01*
X66435670Y-40406388D01*
X66531873Y-40429045D01*
X66592013Y-40447139D01*
X66650024Y-40458356D01*
X66747578Y-40465635D01*
X66867851Y-40467978D01*
X66927970Y-40467076D01*
X67067348Y-40460781D01*
X67169990Y-40448036D01*
X67255549Y-40424908D01*
X67343677Y-40387467D01*
X67356247Y-40381392D01*
X67537899Y-40267285D01*
X67680051Y-40119176D01*
X67787189Y-39931420D01*
X67846251Y-39764738D01*
X67857611Y-39709801D01*
X67874624Y-39607825D01*
X67896078Y-39467795D01*
X67920759Y-39298699D01*
X67947457Y-39109522D01*
X67974959Y-38909250D01*
X68002052Y-38706870D01*
X68027526Y-38511367D01*
X68050167Y-38331729D01*
X68068763Y-38176940D01*
X68082103Y-38055988D01*
X68088974Y-37977858D01*
X68089639Y-37960361D01*
X68064552Y-37933359D01*
X68001226Y-37906238D01*
X67917570Y-37884697D01*
X67831487Y-37874436D01*
X67818982Y-37874222D01*
X67750185Y-37866417D01*
X67709683Y-37847482D01*
X67708639Y-37846000D01*
X67669523Y-37823718D01*
X67625881Y-37817777D01*
X67567987Y-37811077D01*
X67473947Y-37793338D01*
X67362144Y-37768109D01*
X67339435Y-37762518D01*
X67236679Y-37737611D01*
X67158383Y-37720097D01*
X67117689Y-37712865D01*
X67114781Y-37713129D01*
X67110588Y-37741509D01*
X67100395Y-37819084D01*
X67085065Y-37939024D01*
X67065462Y-38094498D01*
X67042450Y-38278676D01*
X67016893Y-38484728D01*
X67005257Y-38579005D01*
X66976559Y-38803797D01*
X66948294Y-39010285D01*
X66921580Y-39191291D01*
X66897538Y-39339638D01*
X66877288Y-39448147D01*
X66861950Y-39509640D01*
X66858861Y-39517128D01*
X66784027Y-39615481D01*
X66682390Y-39667115D01*
X66547878Y-39675030D01*
X66540564Y-39674369D01*
X66385870Y-39635176D01*
X66264550Y-39551958D01*
X66185095Y-39437528D01*
X66171741Y-39407104D01*
X66162101Y-39375078D01*
X66156576Y-39335009D01*
X66155571Y-39280452D01*
X66159486Y-39204964D01*
X66168724Y-39102102D01*
X66183688Y-38965422D01*
X66204779Y-38788481D01*
X66232400Y-38564837D01*
X66246791Y-38449459D01*
X66281814Y-38161082D01*
X66307959Y-37927874D01*
X66325276Y-37749273D01*
X66333816Y-37624712D01*
X66333630Y-37553629D01*
X66328837Y-37535820D01*
X66282521Y-37515861D01*
X66210440Y-37507337D01*
X66208883Y-37507333D01*
X66140600Y-37499410D01*
X66100737Y-37480231D01*
X66099973Y-37479111D01*
X66062376Y-37459889D01*
X65994236Y-37450966D01*
X65987084Y-37450888D01*
X65917991Y-37444113D01*
X65877532Y-37427604D01*
X65876037Y-37425647D01*
X65840221Y-37405665D01*
X65771552Y-37388373D01*
X65754427Y-37385701D01*
X65659822Y-37370159D01*
X65548440Y-37348636D01*
X65509680Y-37340365D01*
X65428468Y-37324703D01*
X65373507Y-37318368D01*
X65360668Y-37320008D01*
G36*
X69031862Y-38130035D02*
G01*
X68900288Y-38141428D01*
X68797707Y-38158156D01*
X68615155Y-38226513D01*
X68456876Y-38341276D01*
X68330028Y-38495064D01*
X68241767Y-38680496D01*
X68220973Y-38752929D01*
X68216290Y-38810103D01*
X68247073Y-38836920D01*
X68266303Y-38842429D01*
X68322736Y-38856816D01*
X68415768Y-38881423D01*
X68527568Y-38911522D01*
X68555306Y-38919063D01*
X68664772Y-38947504D01*
X68786522Y-38976974D01*
X68908063Y-39004735D01*
X69016902Y-39028052D01*
X69100546Y-39044188D01*
X69146500Y-39050404D01*
X69151439Y-39049656D01*
X69165127Y-39024445D01*
X69194449Y-38967657D01*
X69201415Y-38953988D01*
X69278730Y-38846986D01*
X69375644Y-38792666D01*
X69493394Y-38790335D01*
X69493570Y-38790367D01*
X69608191Y-38824425D01*
X69687493Y-38874311D01*
X69725835Y-38933080D01*
X69717573Y-38993790D01*
X69687308Y-39028749D01*
X69643636Y-39043363D01*
X69555821Y-39057110D01*
X69436162Y-39068423D01*
X69327475Y-39074598D01*
X69183673Y-39081611D01*
X69047071Y-39090111D01*
X68935625Y-39098883D01*
X68879862Y-39104843D01*
X68778762Y-39118169D01*
X68684861Y-39130288D01*
X68665176Y-39132774D01*
X68554001Y-39160397D01*
X68427106Y-39212078D01*
X68306470Y-39277108D01*
X68214074Y-39344779D01*
X68198695Y-39360058D01*
X68114789Y-39462952D01*
X68060825Y-39564827D01*
X68031078Y-39682651D01*
X68019823Y-39833390D01*
X68019191Y-39892111D01*
X68021788Y-40027148D01*
X68032201Y-40126475D01*
X68054160Y-40210680D01*
X68091397Y-40300348D01*
X68094301Y-40306569D01*
X68208057Y-40487162D01*
X68367758Y-40650408D01*
X68563814Y-40789052D01*
X68786635Y-40895841D01*
X68936306Y-40943464D01*
X69074959Y-40975873D01*
X69223902Y-41005137D01*
X69371924Y-41029711D01*
X69507814Y-41048052D01*
X69620361Y-41058614D01*
X69698354Y-41059854D01*
X69728880Y-41052638D01*
X69761353Y-41043879D01*
X69831582Y-41033159D01*
X69884924Y-41026969D01*
X70077530Y-40980901D01*
X70247344Y-40884072D01*
X70359639Y-40779486D01*
X70453601Y-40652927D01*
X70538187Y-40499261D01*
X70599141Y-40345703D01*
X70612158Y-40297442D01*
X70617436Y-40251515D01*
X70598771Y-40221811D01*
X70544126Y-40196205D01*
X70495327Y-40179786D01*
X70391914Y-40150803D01*
X70265541Y-40121377D01*
X70178084Y-40104189D01*
X70076042Y-40083783D01*
X69992173Y-40062745D01*
X69948725Y-40047386D01*
X69890138Y-40025600D01*
X69809490Y-40005502D01*
X69802534Y-40004160D01*
X69744146Y-39995909D01*
X69707411Y-40006336D01*
X69677868Y-40046538D01*
X69641056Y-40127617D01*
X69640745Y-40128341D01*
X69600141Y-40213641D01*
X69562223Y-40278468D01*
X69544199Y-40300407D01*
X69488155Y-40324881D01*
X69398598Y-40343739D01*
X69298397Y-40353975D01*
X69210424Y-40352579D01*
X69183052Y-40347909D01*
X69090336Y-40303691D01*
X69013995Y-40230543D01*
X68969764Y-40145699D01*
X68964528Y-40108581D01*
X68968796Y-40052301D01*
X68986558Y-40009746D01*
X69025254Y-39978031D01*
X69092324Y-39954272D01*
X69195205Y-39935587D01*
X69341337Y-39919090D01*
X69486639Y-39906180D01*
X69713510Y-39884666D01*
X69892578Y-39861671D01*
X70032487Y-39835587D01*
X70141877Y-39804809D01*
X70228152Y-39768364D01*
X70403854Y-39657990D01*
X70528289Y-39529611D01*
X70605346Y-39377217D01*
X70638914Y-39194797D01*
X70641103Y-39130111D01*
X70624251Y-38944095D01*
X70567964Y-38778705D01*
X70466029Y-38617900D01*
X70421476Y-38563297D01*
X70316664Y-38468893D01*
X70172420Y-38376914D01*
X70005469Y-38295500D01*
X69832534Y-38232792D01*
X69670338Y-38196929D01*
X69668223Y-38196657D01*
X69573590Y-38181546D01*
X69497752Y-38164075D01*
X69470087Y-38154139D01*
X69405188Y-38137473D01*
X69300035Y-38127963D01*
X69170353Y-38125515D01*
X69031862Y-38130035D01*
X69031862Y-38130035D01*
G37*
X69031862Y-38130035D02*
X68900288Y-38141428D01*
X68797707Y-38158156D01*
X68615155Y-38226513D01*
X68456876Y-38341276D01*
X68330028Y-38495064D01*
X68241767Y-38680496D01*
X68220973Y-38752929D01*
X68216290Y-38810103D01*
X68247073Y-38836920D01*
X68266303Y-38842429D01*
X68322736Y-38856816D01*
X68415768Y-38881423D01*
X68527568Y-38911522D01*
X68555306Y-38919063D01*
X68664772Y-38947504D01*
X68786522Y-38976974D01*
X68908063Y-39004735D01*
X69016902Y-39028052D01*
X69100546Y-39044188D01*
X69146500Y-39050404D01*
X69151439Y-39049656D01*
X69165127Y-39024445D01*
X69194449Y-38967657D01*
X69201415Y-38953988D01*
X69278730Y-38846986D01*
X69375644Y-38792666D01*
X69493394Y-38790335D01*
X69493570Y-38790367D01*
X69608191Y-38824425D01*
X69687493Y-38874311D01*
X69725835Y-38933080D01*
X69717573Y-38993790D01*
X69687308Y-39028749D01*
X69643636Y-39043363D01*
X69555821Y-39057110D01*
X69436162Y-39068423D01*
X69327475Y-39074598D01*
X69183673Y-39081611D01*
X69047071Y-39090111D01*
X68935625Y-39098883D01*
X68879862Y-39104843D01*
X68778762Y-39118169D01*
X68684861Y-39130288D01*
X68665176Y-39132774D01*
X68554001Y-39160397D01*
X68427106Y-39212078D01*
X68306470Y-39277108D01*
X68214074Y-39344779D01*
X68198695Y-39360058D01*
X68114789Y-39462952D01*
X68060825Y-39564827D01*
X68031078Y-39682651D01*
X68019823Y-39833390D01*
X68019191Y-39892111D01*
X68021788Y-40027148D01*
X68032201Y-40126475D01*
X68054160Y-40210680D01*
X68091397Y-40300348D01*
X68094301Y-40306569D01*
X68208057Y-40487162D01*
X68367758Y-40650408D01*
X68563814Y-40789052D01*
X68786635Y-40895841D01*
X68936306Y-40943464D01*
X69074959Y-40975873D01*
X69223902Y-41005137D01*
X69371924Y-41029711D01*
X69507814Y-41048052D01*
X69620361Y-41058614D01*
X69698354Y-41059854D01*
X69728880Y-41052638D01*
X69761353Y-41043879D01*
X69831582Y-41033159D01*
X69884924Y-41026969D01*
X70077530Y-40980901D01*
X70247344Y-40884072D01*
X70359639Y-40779486D01*
X70453601Y-40652927D01*
X70538187Y-40499261D01*
X70599141Y-40345703D01*
X70612158Y-40297442D01*
X70617436Y-40251515D01*
X70598771Y-40221811D01*
X70544126Y-40196205D01*
X70495327Y-40179786D01*
X70391914Y-40150803D01*
X70265541Y-40121377D01*
X70178084Y-40104189D01*
X70076042Y-40083783D01*
X69992173Y-40062745D01*
X69948725Y-40047386D01*
X69890138Y-40025600D01*
X69809490Y-40005502D01*
X69802534Y-40004160D01*
X69744146Y-39995909D01*
X69707411Y-40006336D01*
X69677868Y-40046538D01*
X69641056Y-40127617D01*
X69640745Y-40128341D01*
X69600141Y-40213641D01*
X69562223Y-40278468D01*
X69544199Y-40300407D01*
X69488155Y-40324881D01*
X69398598Y-40343739D01*
X69298397Y-40353975D01*
X69210424Y-40352579D01*
X69183052Y-40347909D01*
X69090336Y-40303691D01*
X69013995Y-40230543D01*
X68969764Y-40145699D01*
X68964528Y-40108581D01*
X68968796Y-40052301D01*
X68986558Y-40009746D01*
X69025254Y-39978031D01*
X69092324Y-39954272D01*
X69195205Y-39935587D01*
X69341337Y-39919090D01*
X69486639Y-39906180D01*
X69713510Y-39884666D01*
X69892578Y-39861671D01*
X70032487Y-39835587D01*
X70141877Y-39804809D01*
X70228152Y-39768364D01*
X70403854Y-39657990D01*
X70528289Y-39529611D01*
X70605346Y-39377217D01*
X70638914Y-39194797D01*
X70641103Y-39130111D01*
X70624251Y-38944095D01*
X70567964Y-38778705D01*
X70466029Y-38617900D01*
X70421476Y-38563297D01*
X70316664Y-38468893D01*
X70172420Y-38376914D01*
X70005469Y-38295500D01*
X69832534Y-38232792D01*
X69670338Y-38196929D01*
X69668223Y-38196657D01*
X69573590Y-38181546D01*
X69497752Y-38164075D01*
X69470087Y-38154139D01*
X69405188Y-38137473D01*
X69300035Y-38127963D01*
X69170353Y-38125515D01*
X69031862Y-38130035D01*
G36*
X72900896Y-38751703D02*
G01*
X72877263Y-38758608D01*
X72852318Y-38776971D01*
X72822645Y-38812077D01*
X72784827Y-38869211D01*
X72735447Y-38953659D01*
X72671089Y-39070706D01*
X72588335Y-39225636D01*
X72483770Y-39423736D01*
X72448915Y-39489944D01*
X72337291Y-39701367D01*
X72222410Y-39917800D01*
X72110207Y-40128142D01*
X72006618Y-40321290D01*
X71917581Y-40486145D01*
X71851509Y-40607113D01*
X71732630Y-40824195D01*
X71639986Y-40996923D01*
X71571418Y-41129727D01*
X71524768Y-41227035D01*
X71497877Y-41293276D01*
X71488588Y-41332880D01*
X71491110Y-41346677D01*
X71528418Y-41365685D01*
X71595410Y-41374172D01*
X71597916Y-41374194D01*
X71675384Y-41380894D01*
X71780306Y-41397728D01*
X71857306Y-41413730D01*
X71984443Y-41439019D01*
X72127817Y-41461670D01*
X72210084Y-41471788D01*
X72313203Y-41483747D01*
X72398601Y-41495982D01*
X72442782Y-41504667D01*
X72473026Y-41500612D01*
X72506175Y-41465701D01*
X72548090Y-41391922D01*
X72590306Y-41302970D01*
X72688575Y-41087333D01*
X72851496Y-41107485D01*
X72960788Y-41121227D01*
X73098481Y-41138848D01*
X73237019Y-41156820D01*
X73253557Y-41158985D01*
X73492696Y-41190333D01*
X73513572Y-41317333D01*
X73537345Y-41459549D01*
X73560491Y-41558063D01*
X73593084Y-41621568D01*
X73645200Y-41658759D01*
X73726914Y-41678328D01*
X73848302Y-41688970D01*
X73951391Y-41695105D01*
X74214411Y-41715217D01*
X74424958Y-41740776D01*
X74515521Y-41756658D01*
X74568659Y-41758221D01*
X74588513Y-41747825D01*
X74584097Y-41717103D01*
X74567225Y-41636822D01*
X74539123Y-41512183D01*
X74501018Y-41348389D01*
X74454137Y-41150641D01*
X74399707Y-40924142D01*
X74338952Y-40674094D01*
X74289788Y-40473705D01*
X73360611Y-40473705D01*
X73286292Y-40459976D01*
X73206474Y-40445849D01*
X73112955Y-40430073D01*
X73106139Y-40428956D01*
X73038287Y-40414267D01*
X73002136Y-40399419D01*
X73000306Y-40396271D01*
X73010844Y-40363511D01*
X73038606Y-40295264D01*
X73077814Y-40204357D01*
X73122688Y-40103618D01*
X73167453Y-40005874D01*
X73206328Y-39923952D01*
X73233535Y-39870681D01*
X73243067Y-39857353D01*
X73251185Y-39886876D01*
X73266636Y-39960322D01*
X73287062Y-40066010D01*
X73306094Y-40169784D01*
X73360611Y-40473705D01*
X74289788Y-40473705D01*
X74273102Y-40405697D01*
X74249857Y-40311543D01*
X73899980Y-38896530D01*
X73697087Y-38862574D01*
X73447302Y-38821419D01*
X73249045Y-38790245D01*
X73098394Y-38768484D01*
X72991428Y-38755567D01*
X72926634Y-38750970D01*
X72900896Y-38751703D01*
X72900896Y-38751703D01*
G37*
X72900896Y-38751703D02*
X72877263Y-38758608D01*
X72852318Y-38776971D01*
X72822645Y-38812077D01*
X72784827Y-38869211D01*
X72735447Y-38953659D01*
X72671089Y-39070706D01*
X72588335Y-39225636D01*
X72483770Y-39423736D01*
X72448915Y-39489944D01*
X72337291Y-39701367D01*
X72222410Y-39917800D01*
X72110207Y-40128142D01*
X72006618Y-40321290D01*
X71917581Y-40486145D01*
X71851509Y-40607113D01*
X71732630Y-40824195D01*
X71639986Y-40996923D01*
X71571418Y-41129727D01*
X71524768Y-41227035D01*
X71497877Y-41293276D01*
X71488588Y-41332880D01*
X71491110Y-41346677D01*
X71528418Y-41365685D01*
X71595410Y-41374172D01*
X71597916Y-41374194D01*
X71675384Y-41380894D01*
X71780306Y-41397728D01*
X71857306Y-41413730D01*
X71984443Y-41439019D01*
X72127817Y-41461670D01*
X72210084Y-41471788D01*
X72313203Y-41483747D01*
X72398601Y-41495982D01*
X72442782Y-41504667D01*
X72473026Y-41500612D01*
X72506175Y-41465701D01*
X72548090Y-41391922D01*
X72590306Y-41302970D01*
X72688575Y-41087333D01*
X72851496Y-41107485D01*
X72960788Y-41121227D01*
X73098481Y-41138848D01*
X73237019Y-41156820D01*
X73253557Y-41158985D01*
X73492696Y-41190333D01*
X73513572Y-41317333D01*
X73537345Y-41459549D01*
X73560491Y-41558063D01*
X73593084Y-41621568D01*
X73645200Y-41658759D01*
X73726914Y-41678328D01*
X73848302Y-41688970D01*
X73951391Y-41695105D01*
X74214411Y-41715217D01*
X74424958Y-41740776D01*
X74515521Y-41756658D01*
X74568659Y-41758221D01*
X74588513Y-41747825D01*
X74584097Y-41717103D01*
X74567225Y-41636822D01*
X74539123Y-41512183D01*
X74501018Y-41348389D01*
X74454137Y-41150641D01*
X74399707Y-40924142D01*
X74338952Y-40674094D01*
X74289788Y-40473705D01*
X73360611Y-40473705D01*
X73286292Y-40459976D01*
X73206474Y-40445849D01*
X73112955Y-40430073D01*
X73106139Y-40428956D01*
X73038287Y-40414267D01*
X73002136Y-40399419D01*
X73000306Y-40396271D01*
X73010844Y-40363511D01*
X73038606Y-40295264D01*
X73077814Y-40204357D01*
X73122688Y-40103618D01*
X73167453Y-40005874D01*
X73206328Y-39923952D01*
X73233535Y-39870681D01*
X73243067Y-39857353D01*
X73251185Y-39886876D01*
X73266636Y-39960322D01*
X73287062Y-40066010D01*
X73306094Y-40169784D01*
X73360611Y-40473705D01*
X74289788Y-40473705D01*
X74273102Y-40405697D01*
X74249857Y-40311543D01*
X73899980Y-38896530D01*
X73697087Y-38862574D01*
X73447302Y-38821419D01*
X73249045Y-38790245D01*
X73098394Y-38768484D01*
X72991428Y-38755567D01*
X72926634Y-38750970D01*
X72900896Y-38751703D01*
G36*
X74272824Y-38940823D02*
G01*
X74270306Y-38955375D01*
X74282763Y-38988570D01*
X74318115Y-39065723D01*
X74373333Y-39180654D01*
X74445387Y-39327183D01*
X74531248Y-39499130D01*
X74627887Y-39690313D01*
X74695680Y-39823209D01*
X75121054Y-40654111D01*
X75060841Y-41176222D01*
X75041419Y-41345132D01*
X75024014Y-41497436D01*
X75009760Y-41623155D01*
X74999786Y-41712307D01*
X74995300Y-41754123D01*
X74998119Y-41780224D01*
X75018940Y-41799409D01*
X75067530Y-41814916D01*
X75153659Y-41829986D01*
X75272195Y-41845962D01*
X75422407Y-41863038D01*
X75579908Y-41877525D01*
X75718180Y-41887089D01*
X75760272Y-41888949D01*
X75867324Y-41891070D01*
X75930675Y-41886547D01*
X75962941Y-41872518D01*
X75976738Y-41846117D01*
X75978318Y-41839444D01*
X75985453Y-41793990D01*
X75997734Y-41702666D01*
X76013860Y-41575679D01*
X76032533Y-41423232D01*
X76049873Y-41277551D01*
X76109236Y-40772102D01*
X76273245Y-40586106D01*
X76361352Y-40484870D01*
X76483797Y-40342110D01*
X76638922Y-40159777D01*
X76825070Y-39939827D01*
X77040583Y-39684212D01*
X77276822Y-39403203D01*
X77339832Y-39324641D01*
X77385056Y-39261542D01*
X77402957Y-39227240D01*
X77402973Y-39226814D01*
X77378253Y-39208157D01*
X77318059Y-39197830D01*
X77311250Y-39197525D01*
X77214215Y-39193161D01*
X77120750Y-39187653D01*
X77054156Y-39183263D01*
X76946246Y-39176312D01*
X76812040Y-39167761D01*
X76669195Y-39158738D01*
X76316417Y-39136554D01*
X76021025Y-39506807D01*
X75922566Y-39627755D01*
X75835807Y-39729676D01*
X75766841Y-39805786D01*
X75721756Y-39849302D01*
X75707178Y-39856363D01*
X75689819Y-39824545D01*
X75654176Y-39750525D01*
X75604672Y-39643779D01*
X75545731Y-39513780D01*
X75513008Y-39440555D01*
X75452110Y-39303946D01*
X75399795Y-39187210D01*
X75360100Y-39099306D01*
X75337062Y-39049193D01*
X75332967Y-39040998D01*
X75305115Y-39036375D01*
X75231938Y-39026654D01*
X75124190Y-39013110D01*
X74992630Y-38997022D01*
X74848013Y-38979668D01*
X74701097Y-38962325D01*
X74562638Y-38946272D01*
X74443393Y-38932786D01*
X74354119Y-38923144D01*
X74305572Y-38918625D01*
X74301249Y-38918444D01*
X74272824Y-38940823D01*
X74272824Y-38940823D01*
G37*
X74272824Y-38940823D02*
X74270306Y-38955375D01*
X74282763Y-38988570D01*
X74318115Y-39065723D01*
X74373333Y-39180654D01*
X74445387Y-39327183D01*
X74531248Y-39499130D01*
X74627887Y-39690313D01*
X74695680Y-39823209D01*
X75121054Y-40654111D01*
X75060841Y-41176222D01*
X75041419Y-41345132D01*
X75024014Y-41497436D01*
X75009760Y-41623155D01*
X74999786Y-41712307D01*
X74995300Y-41754123D01*
X74998119Y-41780224D01*
X75018940Y-41799409D01*
X75067530Y-41814916D01*
X75153659Y-41829986D01*
X75272195Y-41845962D01*
X75422407Y-41863038D01*
X75579908Y-41877525D01*
X75718180Y-41887089D01*
X75760272Y-41888949D01*
X75867324Y-41891070D01*
X75930675Y-41886547D01*
X75962941Y-41872518D01*
X75976738Y-41846117D01*
X75978318Y-41839444D01*
X75985453Y-41793990D01*
X75997734Y-41702666D01*
X76013860Y-41575679D01*
X76032533Y-41423232D01*
X76049873Y-41277551D01*
X76109236Y-40772102D01*
X76273245Y-40586106D01*
X76361352Y-40484870D01*
X76483797Y-40342110D01*
X76638922Y-40159777D01*
X76825070Y-39939827D01*
X77040583Y-39684212D01*
X77276822Y-39403203D01*
X77339832Y-39324641D01*
X77385056Y-39261542D01*
X77402957Y-39227240D01*
X77402973Y-39226814D01*
X77378253Y-39208157D01*
X77318059Y-39197830D01*
X77311250Y-39197525D01*
X77214215Y-39193161D01*
X77120750Y-39187653D01*
X77054156Y-39183263D01*
X76946246Y-39176312D01*
X76812040Y-39167761D01*
X76669195Y-39158738D01*
X76316417Y-39136554D01*
X76021025Y-39506807D01*
X75922566Y-39627755D01*
X75835807Y-39729676D01*
X75766841Y-39805786D01*
X75721756Y-39849302D01*
X75707178Y-39856363D01*
X75689819Y-39824545D01*
X75654176Y-39750525D01*
X75604672Y-39643779D01*
X75545731Y-39513780D01*
X75513008Y-39440555D01*
X75452110Y-39303946D01*
X75399795Y-39187210D01*
X75360100Y-39099306D01*
X75337062Y-39049193D01*
X75332967Y-39040998D01*
X75305115Y-39036375D01*
X75231938Y-39026654D01*
X75124190Y-39013110D01*
X74992630Y-38997022D01*
X74848013Y-38979668D01*
X74701097Y-38962325D01*
X74562638Y-38946272D01*
X74443393Y-38932786D01*
X74354119Y-38923144D01*
X74305572Y-38918625D01*
X74301249Y-38918444D01*
X74272824Y-38940823D01*
G36*
X58577768Y-38484149D02*
G01*
X58512873Y-38529783D01*
X58428857Y-38594569D01*
X58337208Y-38669286D01*
X58249419Y-38744711D01*
X58176978Y-38811623D01*
X58155417Y-38833367D01*
X58110793Y-38876548D01*
X58040148Y-38941055D01*
X57953587Y-39018103D01*
X57861215Y-39098903D01*
X57773137Y-39174668D01*
X57699457Y-39236611D01*
X57650281Y-39275945D01*
X57635685Y-39285333D01*
X57605782Y-39271377D01*
X57537237Y-39233109D01*
X57439403Y-39175925D01*
X57321630Y-39105222D01*
X57286143Y-39083608D01*
X57074365Y-38954528D01*
X56905398Y-38852413D01*
X56774119Y-38774423D01*
X56675407Y-38717714D01*
X56604141Y-38679445D01*
X56555198Y-38656773D01*
X56523458Y-38646856D01*
X56503798Y-38646852D01*
X56500827Y-38647805D01*
X56465619Y-38684995D01*
X56462084Y-38703228D01*
X56472600Y-38740194D01*
X56502036Y-38820995D01*
X56547221Y-38937524D01*
X56604986Y-39081673D01*
X56672161Y-39245335D01*
X56702420Y-39317947D01*
X56942757Y-39892111D01*
X56848593Y-39976777D01*
X56750487Y-40064484D01*
X56633363Y-40168416D01*
X56506695Y-40280252D01*
X56379957Y-40391670D01*
X56262625Y-40494349D01*
X56164174Y-40579968D01*
X56094079Y-40640205D01*
X56074028Y-40657048D01*
X56000429Y-40731773D01*
X55979543Y-40789008D01*
X56009975Y-40827326D01*
X56090326Y-40845300D01*
X56219201Y-40841501D01*
X56251091Y-40837953D01*
X56487817Y-40811282D01*
X56716199Y-40789943D01*
X56921962Y-40775079D01*
X57090830Y-40767831D01*
X57134430Y-40767307D01*
X57312887Y-40767000D01*
X57395957Y-40964555D01*
X57440111Y-41068599D01*
X57478853Y-41158208D01*
X57504409Y-41215416D01*
X57505889Y-41218555D01*
X57526826Y-41267042D01*
X57562806Y-41354810D01*
X57608421Y-41468531D01*
X57649037Y-41571333D01*
X57698378Y-41693736D01*
X57742942Y-41798274D01*
X57777349Y-41872676D01*
X57794494Y-41902944D01*
X57843635Y-41936728D01*
X57888426Y-41914505D01*
X57928426Y-41836575D01*
X57938899Y-41804166D01*
X57958362Y-41731545D01*
X57986875Y-41616241D01*
X58021460Y-41470721D01*
X58059139Y-41307450D01*
X58085526Y-41190333D01*
X58121381Y-41032728D01*
X58154202Y-40894464D01*
X58181653Y-40784911D01*
X58201399Y-40713441D01*
X58210221Y-40689807D01*
X58247115Y-40677359D01*
X58336186Y-40662365D01*
X58473246Y-40645321D01*
X58654110Y-40626728D01*
X58874591Y-40607081D01*
X58973862Y-40598965D01*
X59155360Y-40583351D01*
X59288401Y-40568852D01*
X59380918Y-40554074D01*
X59440842Y-40537622D01*
X59476106Y-40518099D01*
X59485175Y-40509008D01*
X59498378Y-40487070D01*
X59497508Y-40463507D01*
X59477598Y-40434520D01*
X59433684Y-40396306D01*
X59360798Y-40345064D01*
X59253975Y-40276994D01*
X59108249Y-40188294D01*
X58918653Y-40075164D01*
X58917417Y-40074429D01*
X58767799Y-39985569D01*
X58635464Y-39906964D01*
X58527797Y-39843004D01*
X58452186Y-39798076D01*
X58416016Y-39776568D01*
X58414051Y-39775394D01*
X58414945Y-39747944D01*
X58429222Y-39671589D01*
X58457179Y-39545006D01*
X58499110Y-39366869D01*
X58555311Y-39135854D01*
X58570642Y-39073666D01*
X58611482Y-38889624D01*
X58637659Y-38730681D01*
X58648722Y-38603439D01*
X58644220Y-38514502D01*
X58623702Y-38470475D01*
X58612051Y-38466888D01*
X58577768Y-38484149D01*
X58577768Y-38484149D01*
G37*
X58577768Y-38484149D02*
X58512873Y-38529783D01*
X58428857Y-38594569D01*
X58337208Y-38669286D01*
X58249419Y-38744711D01*
X58176978Y-38811623D01*
X58155417Y-38833367D01*
X58110793Y-38876548D01*
X58040148Y-38941055D01*
X57953587Y-39018103D01*
X57861215Y-39098903D01*
X57773137Y-39174668D01*
X57699457Y-39236611D01*
X57650281Y-39275945D01*
X57635685Y-39285333D01*
X57605782Y-39271377D01*
X57537237Y-39233109D01*
X57439403Y-39175925D01*
X57321630Y-39105222D01*
X57286143Y-39083608D01*
X57074365Y-38954528D01*
X56905398Y-38852413D01*
X56774119Y-38774423D01*
X56675407Y-38717714D01*
X56604141Y-38679445D01*
X56555198Y-38656773D01*
X56523458Y-38646856D01*
X56503798Y-38646852D01*
X56500827Y-38647805D01*
X56465619Y-38684995D01*
X56462084Y-38703228D01*
X56472600Y-38740194D01*
X56502036Y-38820995D01*
X56547221Y-38937524D01*
X56604986Y-39081673D01*
X56672161Y-39245335D01*
X56702420Y-39317947D01*
X56942757Y-39892111D01*
X56848593Y-39976777D01*
X56750487Y-40064484D01*
X56633363Y-40168416D01*
X56506695Y-40280252D01*
X56379957Y-40391670D01*
X56262625Y-40494349D01*
X56164174Y-40579968D01*
X56094079Y-40640205D01*
X56074028Y-40657048D01*
X56000429Y-40731773D01*
X55979543Y-40789008D01*
X56009975Y-40827326D01*
X56090326Y-40845300D01*
X56219201Y-40841501D01*
X56251091Y-40837953D01*
X56487817Y-40811282D01*
X56716199Y-40789943D01*
X56921962Y-40775079D01*
X57090830Y-40767831D01*
X57134430Y-40767307D01*
X57312887Y-40767000D01*
X57395957Y-40964555D01*
X57440111Y-41068599D01*
X57478853Y-41158208D01*
X57504409Y-41215416D01*
X57505889Y-41218555D01*
X57526826Y-41267042D01*
X57562806Y-41354810D01*
X57608421Y-41468531D01*
X57649037Y-41571333D01*
X57698378Y-41693736D01*
X57742942Y-41798274D01*
X57777349Y-41872676D01*
X57794494Y-41902944D01*
X57843635Y-41936728D01*
X57888426Y-41914505D01*
X57928426Y-41836575D01*
X57938899Y-41804166D01*
X57958362Y-41731545D01*
X57986875Y-41616241D01*
X58021460Y-41470721D01*
X58059139Y-41307450D01*
X58085526Y-41190333D01*
X58121381Y-41032728D01*
X58154202Y-40894464D01*
X58181653Y-40784911D01*
X58201399Y-40713441D01*
X58210221Y-40689807D01*
X58247115Y-40677359D01*
X58336186Y-40662365D01*
X58473246Y-40645321D01*
X58654110Y-40626728D01*
X58874591Y-40607081D01*
X58973862Y-40598965D01*
X59155360Y-40583351D01*
X59288401Y-40568852D01*
X59380918Y-40554074D01*
X59440842Y-40537622D01*
X59476106Y-40518099D01*
X59485175Y-40509008D01*
X59498378Y-40487070D01*
X59497508Y-40463507D01*
X59477598Y-40434520D01*
X59433684Y-40396306D01*
X59360798Y-40345064D01*
X59253975Y-40276994D01*
X59108249Y-40188294D01*
X58918653Y-40075164D01*
X58917417Y-40074429D01*
X58767799Y-39985569D01*
X58635464Y-39906964D01*
X58527797Y-39843004D01*
X58452186Y-39798076D01*
X58416016Y-39776568D01*
X58414051Y-39775394D01*
X58414945Y-39747944D01*
X58429222Y-39671589D01*
X58457179Y-39545006D01*
X58499110Y-39366869D01*
X58555311Y-39135854D01*
X58570642Y-39073666D01*
X58611482Y-38889624D01*
X58637659Y-38730681D01*
X58648722Y-38603439D01*
X58644220Y-38514502D01*
X58623702Y-38470475D01*
X58612051Y-38466888D01*
X58577768Y-38484149D01*
G36*
X86822139Y-39156312D02*
G01*
X86692274Y-39165919D01*
X86536572Y-39177214D01*
X86385509Y-39187987D01*
X86363616Y-39189528D01*
X86243154Y-39199894D01*
X86139250Y-39212277D01*
X86068489Y-39224571D01*
X86053171Y-39228993D01*
X86022757Y-39257070D01*
X85981047Y-39324372D01*
X85926127Y-39434672D01*
X85856078Y-39591740D01*
X85793210Y-39740701D01*
X85672961Y-40029907D01*
X85572318Y-40270729D01*
X85489551Y-40467041D01*
X85422932Y-40622718D01*
X85370732Y-40741632D01*
X85331221Y-40827658D01*
X85302672Y-40884670D01*
X85283356Y-40916542D01*
X85271543Y-40927147D01*
X85266021Y-40922077D01*
X85257287Y-40884268D01*
X85239807Y-40798411D01*
X85215024Y-40671978D01*
X85184384Y-40512436D01*
X85149334Y-40327256D01*
X85111316Y-40123908D01*
X85104959Y-40089666D01*
X85067032Y-39886155D01*
X85032274Y-39701472D01*
X85002042Y-39542683D01*
X84977693Y-39416852D01*
X84960583Y-39331046D01*
X84952071Y-39292329D01*
X84951534Y-39290875D01*
X84938091Y-39284862D01*
X84904550Y-39281548D01*
X84843494Y-39281004D01*
X84747508Y-39283298D01*
X84609176Y-39288501D01*
X84444417Y-39295634D01*
X84280801Y-39302393D01*
X84079827Y-39309834D01*
X83860563Y-39317300D01*
X83642080Y-39324133D01*
X83498973Y-39328212D01*
X83284795Y-39334008D01*
X83049101Y-39340381D01*
X82813378Y-39346749D01*
X82599118Y-39352532D01*
X82485341Y-39355600D01*
X82320720Y-39361714D01*
X82180134Y-39370186D01*
X82072693Y-39380245D01*
X82007502Y-39391122D01*
X81992864Y-39397264D01*
X81943353Y-39420427D01*
X81896743Y-39426444D01*
X81814737Y-39445819D01*
X81711796Y-39497166D01*
X81604537Y-39570315D01*
X81509575Y-39655098D01*
X81492293Y-39673949D01*
X81371408Y-39853743D01*
X81298610Y-40063035D01*
X81280231Y-40178760D01*
X81282126Y-40387047D01*
X81333953Y-40569112D01*
X81436011Y-40725615D01*
X81587900Y-40856746D01*
X81660821Y-40908979D01*
X81690076Y-40940534D01*
X81681173Y-40958448D01*
X81670756Y-40962578D01*
X81600288Y-41005951D01*
X81507538Y-41096858D01*
X81395078Y-41232156D01*
X81265480Y-41408702D01*
X81121317Y-41623352D01*
X81089593Y-41672725D01*
X81002065Y-41811677D01*
X80926256Y-41935364D01*
X80867059Y-42035530D01*
X80829363Y-42103921D01*
X80817862Y-42131336D01*
X80836121Y-42143641D01*
X80893697Y-42152807D01*
X80994785Y-42159086D01*
X81143579Y-42162731D01*
X81344276Y-42163994D01*
X81361150Y-42164000D01*
X81904438Y-42164000D01*
X82222565Y-41691277D01*
X82344736Y-41510166D01*
X82440113Y-41370360D01*
X82513165Y-41266169D01*
X82568363Y-41191900D01*
X82610175Y-41141864D01*
X82643070Y-41110369D01*
X82671518Y-41091725D01*
X82699989Y-41080240D01*
X82703270Y-41079183D01*
X82729740Y-41072281D01*
X82748437Y-41075403D01*
X82759430Y-41095361D01*
X82762787Y-41138972D01*
X82758576Y-41213050D01*
X82746865Y-41324409D01*
X82727723Y-41479865D01*
X82708750Y-41627777D01*
X82689282Y-41781766D01*
X82672719Y-41918368D01*
X82660330Y-42026683D01*
X82653381Y-42095807D01*
X82652338Y-42112969D01*
X82657444Y-42132050D01*
X82678508Y-42145023D01*
X82724102Y-42152821D01*
X82802801Y-42156380D01*
X82923178Y-42156636D01*
X83040362Y-42155302D01*
X83192835Y-42152646D01*
X83334099Y-42149229D01*
X83449913Y-42145459D01*
X83526034Y-42141746D01*
X83534250Y-42141129D01*
X83602325Y-42129658D01*
X83638364Y-42112204D01*
X83640084Y-42107619D01*
X83643368Y-42074938D01*
X83652728Y-41992492D01*
X83667420Y-41866548D01*
X83686706Y-41703372D01*
X83709842Y-41509231D01*
X83736089Y-41290392D01*
X83764705Y-41053121D01*
X83769230Y-41015711D01*
X83799802Y-40762975D01*
X83829610Y-40516331D01*
X83857643Y-40284159D01*
X83882891Y-40074839D01*
X83890466Y-40011948D01*
X82892195Y-40011948D01*
X82884676Y-40135474D01*
X82876095Y-40238462D01*
X82864455Y-40335865D01*
X82861936Y-40352289D01*
X82846716Y-40445579D01*
X82617067Y-40429348D01*
X82466129Y-40412439D01*
X82369220Y-40386687D01*
X82336418Y-40366962D01*
X82291091Y-40294161D01*
X82290102Y-40210618D01*
X82326443Y-40129039D01*
X82393105Y-40062124D01*
X82483080Y-40022579D01*
X82529427Y-40017095D01*
X82618450Y-40015485D01*
X82725710Y-40013915D01*
X82758139Y-40013514D01*
X82892195Y-40011948D01*
X83890466Y-40011948D01*
X83904343Y-39896751D01*
X83920989Y-39758273D01*
X83931508Y-39670378D01*
X83964639Y-39392202D01*
X84302467Y-40748178D01*
X84640295Y-42104155D01*
X84909245Y-42091346D01*
X85134122Y-42080202D01*
X85309055Y-42070341D01*
X85440513Y-42061120D01*
X85534963Y-42051893D01*
X85598875Y-42042017D01*
X85638716Y-42030847D01*
X85660954Y-42017739D01*
X85662452Y-42016303D01*
X85683192Y-41982632D01*
X85724754Y-41904509D01*
X85783845Y-41788514D01*
X85857168Y-41641229D01*
X85941427Y-41469232D01*
X86033327Y-41279103D01*
X86069100Y-41204444D01*
X86170670Y-40991984D01*
X86272260Y-40779527D01*
X86369115Y-40577015D01*
X86456479Y-40394387D01*
X86529598Y-40241584D01*
X86583718Y-40128547D01*
X86588824Y-40117888D01*
X86666596Y-39955507D01*
X86754419Y-39772062D01*
X86839003Y-39595315D01*
X86882154Y-39505112D01*
X86938732Y-39384334D01*
X86984933Y-39280990D01*
X87015889Y-39206293D01*
X87026750Y-39171854D01*
X87001602Y-39155530D01*
X86924833Y-39151134D01*
X86822139Y-39156312D01*
X86822139Y-39156312D01*
G37*
X86822139Y-39156312D02*
X86692274Y-39165919D01*
X86536572Y-39177214D01*
X86385509Y-39187987D01*
X86363616Y-39189528D01*
X86243154Y-39199894D01*
X86139250Y-39212277D01*
X86068489Y-39224571D01*
X86053171Y-39228993D01*
X86022757Y-39257070D01*
X85981047Y-39324372D01*
X85926127Y-39434672D01*
X85856078Y-39591740D01*
X85793210Y-39740701D01*
X85672961Y-40029907D01*
X85572318Y-40270729D01*
X85489551Y-40467041D01*
X85422932Y-40622718D01*
X85370732Y-40741632D01*
X85331221Y-40827658D01*
X85302672Y-40884670D01*
X85283356Y-40916542D01*
X85271543Y-40927147D01*
X85266021Y-40922077D01*
X85257287Y-40884268D01*
X85239807Y-40798411D01*
X85215024Y-40671978D01*
X85184384Y-40512436D01*
X85149334Y-40327256D01*
X85111316Y-40123908D01*
X85104959Y-40089666D01*
X85067032Y-39886155D01*
X85032274Y-39701472D01*
X85002042Y-39542683D01*
X84977693Y-39416852D01*
X84960583Y-39331046D01*
X84952071Y-39292329D01*
X84951534Y-39290875D01*
X84938091Y-39284862D01*
X84904550Y-39281548D01*
X84843494Y-39281004D01*
X84747508Y-39283298D01*
X84609176Y-39288501D01*
X84444417Y-39295634D01*
X84280801Y-39302393D01*
X84079827Y-39309834D01*
X83860563Y-39317300D01*
X83642080Y-39324133D01*
X83498973Y-39328212D01*
X83284795Y-39334008D01*
X83049101Y-39340381D01*
X82813378Y-39346749D01*
X82599118Y-39352532D01*
X82485341Y-39355600D01*
X82320720Y-39361714D01*
X82180134Y-39370186D01*
X82072693Y-39380245D01*
X82007502Y-39391122D01*
X81992864Y-39397264D01*
X81943353Y-39420427D01*
X81896743Y-39426444D01*
X81814737Y-39445819D01*
X81711796Y-39497166D01*
X81604537Y-39570315D01*
X81509575Y-39655098D01*
X81492293Y-39673949D01*
X81371408Y-39853743D01*
X81298610Y-40063035D01*
X81280231Y-40178760D01*
X81282126Y-40387047D01*
X81333953Y-40569112D01*
X81436011Y-40725615D01*
X81587900Y-40856746D01*
X81660821Y-40908979D01*
X81690076Y-40940534D01*
X81681173Y-40958448D01*
X81670756Y-40962578D01*
X81600288Y-41005951D01*
X81507538Y-41096858D01*
X81395078Y-41232156D01*
X81265480Y-41408702D01*
X81121317Y-41623352D01*
X81089593Y-41672725D01*
X81002065Y-41811677D01*
X80926256Y-41935364D01*
X80867059Y-42035530D01*
X80829363Y-42103921D01*
X80817862Y-42131336D01*
X80836121Y-42143641D01*
X80893697Y-42152807D01*
X80994785Y-42159086D01*
X81143579Y-42162731D01*
X81344276Y-42163994D01*
X81361150Y-42164000D01*
X81904438Y-42164000D01*
X82222565Y-41691277D01*
X82344736Y-41510166D01*
X82440113Y-41370360D01*
X82513165Y-41266169D01*
X82568363Y-41191900D01*
X82610175Y-41141864D01*
X82643070Y-41110369D01*
X82671518Y-41091725D01*
X82699989Y-41080240D01*
X82703270Y-41079183D01*
X82729740Y-41072281D01*
X82748437Y-41075403D01*
X82759430Y-41095361D01*
X82762787Y-41138972D01*
X82758576Y-41213050D01*
X82746865Y-41324409D01*
X82727723Y-41479865D01*
X82708750Y-41627777D01*
X82689282Y-41781766D01*
X82672719Y-41918368D01*
X82660330Y-42026683D01*
X82653381Y-42095807D01*
X82652338Y-42112969D01*
X82657444Y-42132050D01*
X82678508Y-42145023D01*
X82724102Y-42152821D01*
X82802801Y-42156380D01*
X82923178Y-42156636D01*
X83040362Y-42155302D01*
X83192835Y-42152646D01*
X83334099Y-42149229D01*
X83449913Y-42145459D01*
X83526034Y-42141746D01*
X83534250Y-42141129D01*
X83602325Y-42129658D01*
X83638364Y-42112204D01*
X83640084Y-42107619D01*
X83643368Y-42074938D01*
X83652728Y-41992492D01*
X83667420Y-41866548D01*
X83686706Y-41703372D01*
X83709842Y-41509231D01*
X83736089Y-41290392D01*
X83764705Y-41053121D01*
X83769230Y-41015711D01*
X83799802Y-40762975D01*
X83829610Y-40516331D01*
X83857643Y-40284159D01*
X83882891Y-40074839D01*
X83890466Y-40011948D01*
X82892195Y-40011948D01*
X82884676Y-40135474D01*
X82876095Y-40238462D01*
X82864455Y-40335865D01*
X82861936Y-40352289D01*
X82846716Y-40445579D01*
X82617067Y-40429348D01*
X82466129Y-40412439D01*
X82369220Y-40386687D01*
X82336418Y-40366962D01*
X82291091Y-40294161D01*
X82290102Y-40210618D01*
X82326443Y-40129039D01*
X82393105Y-40062124D01*
X82483080Y-40022579D01*
X82529427Y-40017095D01*
X82618450Y-40015485D01*
X82725710Y-40013915D01*
X82758139Y-40013514D01*
X82892195Y-40011948D01*
X83890466Y-40011948D01*
X83904343Y-39896751D01*
X83920989Y-39758273D01*
X83931508Y-39670378D01*
X83964639Y-39392202D01*
X84302467Y-40748178D01*
X84640295Y-42104155D01*
X84909245Y-42091346D01*
X85134122Y-42080202D01*
X85309055Y-42070341D01*
X85440513Y-42061120D01*
X85534963Y-42051893D01*
X85598875Y-42042017D01*
X85638716Y-42030847D01*
X85660954Y-42017739D01*
X85662452Y-42016303D01*
X85683192Y-41982632D01*
X85724754Y-41904509D01*
X85783845Y-41788514D01*
X85857168Y-41641229D01*
X85941427Y-41469232D01*
X86033327Y-41279103D01*
X86069100Y-41204444D01*
X86170670Y-40991984D01*
X86272260Y-40779527D01*
X86369115Y-40577015D01*
X86456479Y-40394387D01*
X86529598Y-40241584D01*
X86583718Y-40128547D01*
X86588824Y-40117888D01*
X86666596Y-39955507D01*
X86754419Y-39772062D01*
X86839003Y-39595315D01*
X86882154Y-39505112D01*
X86938732Y-39384334D01*
X86984933Y-39280990D01*
X87015889Y-39206293D01*
X87026750Y-39171854D01*
X87001602Y-39155530D01*
X86924833Y-39151134D01*
X86822139Y-39156312D01*
G36*
X79815973Y-39302121D02*
G01*
X79584010Y-39308372D01*
X79395219Y-39325894D01*
X79236929Y-39357731D01*
X79096469Y-39406926D01*
X78961169Y-39476522D01*
X78881278Y-39526633D01*
X78661646Y-39701963D01*
X78486860Y-39908690D01*
X78356206Y-40148306D01*
X78268967Y-40422301D01*
X78224429Y-40732164D01*
X78217903Y-40908607D01*
X78227402Y-41151177D01*
X78261470Y-41352169D01*
X78324748Y-41522813D01*
X78421876Y-41674341D01*
X78557496Y-41817982D01*
X78614317Y-41867965D01*
X78814644Y-42005084D01*
X79038006Y-42101513D01*
X79267542Y-42150023D01*
X79273417Y-42150578D01*
X79377789Y-42160922D01*
X79478587Y-42172118D01*
X79491417Y-42173676D01*
X79567684Y-42176536D01*
X79677810Y-42172818D01*
X79799697Y-42163340D01*
X79815973Y-42161651D01*
X80117808Y-42105578D01*
X80383657Y-42006028D01*
X80613491Y-41863022D01*
X80807280Y-41676582D01*
X80964998Y-41446731D01*
X81086614Y-41173492D01*
X81090572Y-41162111D01*
X81122434Y-41064440D01*
X81144264Y-40979242D01*
X81157941Y-40891608D01*
X81165346Y-40786631D01*
X81168357Y-40649405D01*
X81168818Y-40546217D01*
X80192480Y-40546217D01*
X80186334Y-40693879D01*
X80170704Y-40841983D01*
X80146700Y-40972352D01*
X80128523Y-41035111D01*
X80074606Y-41144740D01*
X79996245Y-41254156D01*
X79908008Y-41345796D01*
X79824462Y-41402096D01*
X79823944Y-41402318D01*
X79731137Y-41421735D01*
X79614393Y-41420088D01*
X79498799Y-41400015D01*
X79409443Y-41364153D01*
X79400110Y-41357766D01*
X79308514Y-41265355D01*
X79250356Y-41145895D01*
X79224010Y-40992913D01*
X79227851Y-40799936D01*
X79237490Y-40709978D01*
X79283716Y-40478811D01*
X79357476Y-40296281D01*
X79458544Y-40162659D01*
X79586688Y-40078216D01*
X79741679Y-40043224D01*
X79801245Y-40042671D01*
X79901913Y-40052042D01*
X79971867Y-40076923D01*
X80036551Y-40127126D01*
X80047657Y-40137725D01*
X80113735Y-40217232D01*
X80163880Y-40304258D01*
X80171879Y-40324924D01*
X80188031Y-40417173D01*
X80192480Y-40546217D01*
X81168818Y-40546217D01*
X81168841Y-40541222D01*
X81167952Y-40375539D01*
X81163819Y-40253268D01*
X81154971Y-40161408D01*
X81139934Y-40086954D01*
X81117236Y-40016902D01*
X81106263Y-39988649D01*
X80993036Y-39780168D01*
X80834059Y-39603378D01*
X80631657Y-39460394D01*
X80419546Y-39364238D01*
X80341710Y-39338459D01*
X80267665Y-39320641D01*
X80184584Y-39309464D01*
X80079640Y-39303608D01*
X79940005Y-39301754D01*
X79815973Y-39302121D01*
X79815973Y-39302121D01*
G37*
X79815973Y-39302121D02*
X79584010Y-39308372D01*
X79395219Y-39325894D01*
X79236929Y-39357731D01*
X79096469Y-39406926D01*
X78961169Y-39476522D01*
X78881278Y-39526633D01*
X78661646Y-39701963D01*
X78486860Y-39908690D01*
X78356206Y-40148306D01*
X78268967Y-40422301D01*
X78224429Y-40732164D01*
X78217903Y-40908607D01*
X78227402Y-41151177D01*
X78261470Y-41352169D01*
X78324748Y-41522813D01*
X78421876Y-41674341D01*
X78557496Y-41817982D01*
X78614317Y-41867965D01*
X78814644Y-42005084D01*
X79038006Y-42101513D01*
X79267542Y-42150023D01*
X79273417Y-42150578D01*
X79377789Y-42160922D01*
X79478587Y-42172118D01*
X79491417Y-42173676D01*
X79567684Y-42176536D01*
X79677810Y-42172818D01*
X79799697Y-42163340D01*
X79815973Y-42161651D01*
X80117808Y-42105578D01*
X80383657Y-42006028D01*
X80613491Y-41863022D01*
X80807280Y-41676582D01*
X80964998Y-41446731D01*
X81086614Y-41173492D01*
X81090572Y-41162111D01*
X81122434Y-41064440D01*
X81144264Y-40979242D01*
X81157941Y-40891608D01*
X81165346Y-40786631D01*
X81168357Y-40649405D01*
X81168818Y-40546217D01*
X80192480Y-40546217D01*
X80186334Y-40693879D01*
X80170704Y-40841983D01*
X80146700Y-40972352D01*
X80128523Y-41035111D01*
X80074606Y-41144740D01*
X79996245Y-41254156D01*
X79908008Y-41345796D01*
X79824462Y-41402096D01*
X79823944Y-41402318D01*
X79731137Y-41421735D01*
X79614393Y-41420088D01*
X79498799Y-41400015D01*
X79409443Y-41364153D01*
X79400110Y-41357766D01*
X79308514Y-41265355D01*
X79250356Y-41145895D01*
X79224010Y-40992913D01*
X79227851Y-40799936D01*
X79237490Y-40709978D01*
X79283716Y-40478811D01*
X79357476Y-40296281D01*
X79458544Y-40162659D01*
X79586688Y-40078216D01*
X79741679Y-40043224D01*
X79801245Y-40042671D01*
X79901913Y-40052042D01*
X79971867Y-40076923D01*
X80036551Y-40127126D01*
X80047657Y-40137725D01*
X80113735Y-40217232D01*
X80163880Y-40304258D01*
X80171879Y-40324924D01*
X80188031Y-40417173D01*
X80192480Y-40546217D01*
X81168818Y-40546217D01*
X81168841Y-40541222D01*
X81167952Y-40375539D01*
X81163819Y-40253268D01*
X81154971Y-40161408D01*
X81139934Y-40086954D01*
X81117236Y-40016902D01*
X81106263Y-39988649D01*
X80993036Y-39780168D01*
X80834059Y-39603378D01*
X80631657Y-39460394D01*
X80419546Y-39364238D01*
X80341710Y-39338459D01*
X80267665Y-39320641D01*
X80184584Y-39309464D01*
X80079640Y-39303608D01*
X79940005Y-39301754D01*
X79815973Y-39302121D01*
G36*
X91087301Y-40064426D02*
G01*
X91032545Y-40155247D01*
X90981336Y-40259000D01*
X90868149Y-40499450D01*
X90776204Y-40693718D01*
X90702771Y-40846722D01*
X90645117Y-40963380D01*
X90600511Y-41048610D01*
X90566223Y-41107330D01*
X90539520Y-41144458D01*
X90517670Y-41164912D01*
X90497944Y-41173610D01*
X90477608Y-41175470D01*
X90472347Y-41175445D01*
X90422637Y-41171227D01*
X90326928Y-41159923D01*
X90195041Y-41142813D01*
X90036795Y-41121177D01*
X89862014Y-41096296D01*
X89836338Y-41092561D01*
X89664150Y-41068269D01*
X89510976Y-41048222D01*
X89385581Y-41033438D01*
X89296733Y-41024937D01*
X89253197Y-41023739D01*
X89250727Y-41024447D01*
X89234009Y-41043446D01*
X89235993Y-41072798D01*
X89260357Y-41117099D01*
X89310778Y-41180946D01*
X89390936Y-41268934D01*
X89504508Y-41385660D01*
X89655174Y-41535718D01*
X89677720Y-41557957D01*
X89825267Y-41704195D01*
X89936431Y-41816818D01*
X90015709Y-41901134D01*
X90067592Y-41962452D01*
X90096576Y-42006082D01*
X90107155Y-42037332D01*
X90103875Y-42061377D01*
X90084695Y-42104777D01*
X90045126Y-42190085D01*
X89989365Y-42308403D01*
X89921609Y-42450830D01*
X89846054Y-42608468D01*
X89837683Y-42625865D01*
X89762936Y-42783738D01*
X89697523Y-42926861D01*
X89645231Y-43046534D01*
X89609849Y-43134059D01*
X89595164Y-43180736D01*
X89594973Y-43183254D01*
X89606578Y-43222450D01*
X89645076Y-43232578D01*
X89715995Y-43212587D01*
X89824860Y-43161424D01*
X89888898Y-43127299D01*
X90002265Y-43065895D01*
X90143614Y-42990019D01*
X90290958Y-42911450D01*
X90371084Y-42868979D01*
X90486709Y-42807330D01*
X90584748Y-42754065D01*
X90653864Y-42715405D01*
X90681528Y-42698584D01*
X90714482Y-42679422D01*
X90750016Y-42674965D01*
X90793705Y-42689142D01*
X90851120Y-42725883D01*
X90927834Y-42789116D01*
X91029421Y-42882771D01*
X91161454Y-43010776D01*
X91254261Y-43102388D01*
X91385497Y-43230984D01*
X91504590Y-43344986D01*
X91605365Y-43438700D01*
X91681648Y-43506435D01*
X91727264Y-43542498D01*
X91736389Y-43546888D01*
X91774416Y-43524181D01*
X91786645Y-43503134D01*
X91789412Y-43457246D01*
X91782766Y-43370946D01*
X91768101Y-43259224D01*
X91758412Y-43199745D01*
X91734501Y-43061890D01*
X91705113Y-42892519D01*
X91674431Y-42715727D01*
X91652933Y-42591881D01*
X91631451Y-42455745D01*
X91617455Y-42341179D01*
X91612023Y-42259254D01*
X91616233Y-42221039D01*
X91616780Y-42220411D01*
X91648249Y-42200583D01*
X91721684Y-42158968D01*
X91829054Y-42099974D01*
X91962328Y-42028007D01*
X92113471Y-41947474D01*
X92134973Y-41936099D01*
X92327599Y-41833542D01*
X92475204Y-41752984D01*
X92583195Y-41691066D01*
X92656977Y-41644429D01*
X92701959Y-41609715D01*
X92723546Y-41583566D01*
X92727639Y-41567952D01*
X92717886Y-41545949D01*
X92684779Y-41525602D01*
X92622545Y-41505599D01*
X92525413Y-41484628D01*
X92387611Y-41461377D01*
X92203365Y-41434533D01*
X92048341Y-41413522D01*
X91873000Y-41389284D01*
X91716025Y-41365799D01*
X91586294Y-41344541D01*
X91492684Y-41326983D01*
X91444075Y-41314599D01*
X91440092Y-41312561D01*
X91416910Y-41271176D01*
X91397204Y-41197104D01*
X91392684Y-41168714D01*
X91377988Y-41068358D01*
X91358572Y-40949340D01*
X91348869Y-40894000D01*
X91323243Y-40751743D01*
X91304411Y-40645389D01*
X91288993Y-40555316D01*
X91273609Y-40461908D01*
X91261368Y-40386000D01*
X91230585Y-40214060D01*
X91200566Y-40097193D01*
X91168532Y-40034139D01*
X91131703Y-40023636D01*
X91087301Y-40064426D01*
X91087301Y-40064426D01*
G37*
X91087301Y-40064426D02*
X91032545Y-40155247D01*
X90981336Y-40259000D01*
X90868149Y-40499450D01*
X90776204Y-40693718D01*
X90702771Y-40846722D01*
X90645117Y-40963380D01*
X90600511Y-41048610D01*
X90566223Y-41107330D01*
X90539520Y-41144458D01*
X90517670Y-41164912D01*
X90497944Y-41173610D01*
X90477608Y-41175470D01*
X90472347Y-41175445D01*
X90422637Y-41171227D01*
X90326928Y-41159923D01*
X90195041Y-41142813D01*
X90036795Y-41121177D01*
X89862014Y-41096296D01*
X89836338Y-41092561D01*
X89664150Y-41068269D01*
X89510976Y-41048222D01*
X89385581Y-41033438D01*
X89296733Y-41024937D01*
X89253197Y-41023739D01*
X89250727Y-41024447D01*
X89234009Y-41043446D01*
X89235993Y-41072798D01*
X89260357Y-41117099D01*
X89310778Y-41180946D01*
X89390936Y-41268934D01*
X89504508Y-41385660D01*
X89655174Y-41535718D01*
X89677720Y-41557957D01*
X89825267Y-41704195D01*
X89936431Y-41816818D01*
X90015709Y-41901134D01*
X90067592Y-41962452D01*
X90096576Y-42006082D01*
X90107155Y-42037332D01*
X90103875Y-42061377D01*
X90084695Y-42104777D01*
X90045126Y-42190085D01*
X89989365Y-42308403D01*
X89921609Y-42450830D01*
X89846054Y-42608468D01*
X89837683Y-42625865D01*
X89762936Y-42783738D01*
X89697523Y-42926861D01*
X89645231Y-43046534D01*
X89609849Y-43134059D01*
X89595164Y-43180736D01*
X89594973Y-43183254D01*
X89606578Y-43222450D01*
X89645076Y-43232578D01*
X89715995Y-43212587D01*
X89824860Y-43161424D01*
X89888898Y-43127299D01*
X90002265Y-43065895D01*
X90143614Y-42990019D01*
X90290958Y-42911450D01*
X90371084Y-42868979D01*
X90486709Y-42807330D01*
X90584748Y-42754065D01*
X90653864Y-42715405D01*
X90681528Y-42698584D01*
X90714482Y-42679422D01*
X90750016Y-42674965D01*
X90793705Y-42689142D01*
X90851120Y-42725883D01*
X90927834Y-42789116D01*
X91029421Y-42882771D01*
X91161454Y-43010776D01*
X91254261Y-43102388D01*
X91385497Y-43230984D01*
X91504590Y-43344986D01*
X91605365Y-43438700D01*
X91681648Y-43506435D01*
X91727264Y-43542498D01*
X91736389Y-43546888D01*
X91774416Y-43524181D01*
X91786645Y-43503134D01*
X91789412Y-43457246D01*
X91782766Y-43370946D01*
X91768101Y-43259224D01*
X91758412Y-43199745D01*
X91734501Y-43061890D01*
X91705113Y-42892519D01*
X91674431Y-42715727D01*
X91652933Y-42591881D01*
X91631451Y-42455745D01*
X91617455Y-42341179D01*
X91612023Y-42259254D01*
X91616233Y-42221039D01*
X91616780Y-42220411D01*
X91648249Y-42200583D01*
X91721684Y-42158968D01*
X91829054Y-42099974D01*
X91962328Y-42028007D01*
X92113471Y-41947474D01*
X92134973Y-41936099D01*
X92327599Y-41833542D01*
X92475204Y-41752984D01*
X92583195Y-41691066D01*
X92656977Y-41644429D01*
X92701959Y-41609715D01*
X92723546Y-41583566D01*
X92727639Y-41567952D01*
X92717886Y-41545949D01*
X92684779Y-41525602D01*
X92622545Y-41505599D01*
X92525413Y-41484628D01*
X92387611Y-41461377D01*
X92203365Y-41434533D01*
X92048341Y-41413522D01*
X91873000Y-41389284D01*
X91716025Y-41365799D01*
X91586294Y-41344541D01*
X91492684Y-41326983D01*
X91444075Y-41314599D01*
X91440092Y-41312561D01*
X91416910Y-41271176D01*
X91397204Y-41197104D01*
X91392684Y-41168714D01*
X91377988Y-41068358D01*
X91358572Y-40949340D01*
X91348869Y-40894000D01*
X91323243Y-40751743D01*
X91304411Y-40645389D01*
X91288993Y-40555316D01*
X91273609Y-40461908D01*
X91261368Y-40386000D01*
X91230585Y-40214060D01*
X91200566Y-40097193D01*
X91168532Y-40034139D01*
X91131703Y-40023636D01*
X91087301Y-40064426D01*
G36*
X64625648Y-40825717D02*
G01*
X64599656Y-40854538D01*
X64562975Y-40911629D01*
X64512548Y-41001982D01*
X64445321Y-41130585D01*
X64358238Y-41302430D01*
X64303689Y-41411346D01*
X64221614Y-41575378D01*
X64148219Y-41721575D01*
X64087165Y-41842688D01*
X64042111Y-41931466D01*
X64016719Y-41980656D01*
X64012524Y-41988159D01*
X63983991Y-41985929D01*
X63907692Y-41975524D01*
X63791522Y-41958142D01*
X63643375Y-41934980D01*
X63471146Y-41907239D01*
X63368008Y-41890297D01*
X63184843Y-41861049D01*
X63020374Y-41836773D01*
X62882724Y-41818507D01*
X62780017Y-41807288D01*
X62720378Y-41804150D01*
X62708915Y-41806206D01*
X62721943Y-41831253D01*
X62770030Y-41890054D01*
X62847924Y-41976853D01*
X62950370Y-42085897D01*
X63072115Y-42211432D01*
X63157716Y-42297754D01*
X63627890Y-42767929D01*
X63326709Y-43353501D01*
X63242443Y-43520099D01*
X63169232Y-43670193D01*
X63110396Y-43796524D01*
X63069256Y-43891833D01*
X63049131Y-43948859D01*
X63048548Y-43961703D01*
X63079053Y-43955712D01*
X63152205Y-43926655D01*
X63260757Y-43877860D01*
X63397463Y-43812657D01*
X63555076Y-43734374D01*
X63659074Y-43681268D01*
X64246578Y-43378204D01*
X64690443Y-43843546D01*
X64819422Y-43977069D01*
X64937041Y-44095625D01*
X65037285Y-44193409D01*
X65114137Y-44264613D01*
X65161579Y-44303430D01*
X65172641Y-44308888D01*
X65202996Y-44285175D01*
X65210973Y-44248260D01*
X65206427Y-44203109D01*
X65193725Y-44111535D01*
X65174269Y-43982745D01*
X65149461Y-43825945D01*
X65120704Y-43650342D01*
X65111482Y-43595159D01*
X65082447Y-43419916D01*
X65057479Y-43264675D01*
X65037829Y-43137616D01*
X65024752Y-43046919D01*
X65019502Y-43000763D01*
X65019759Y-42996633D01*
X65046091Y-42982696D01*
X65115457Y-42947066D01*
X65220503Y-42893490D01*
X65353876Y-42825715D01*
X65508224Y-42747487D01*
X65577862Y-42712251D01*
X65739982Y-42629431D01*
X65885032Y-42553757D01*
X66005411Y-42489322D01*
X66093519Y-42440222D01*
X66141753Y-42410551D01*
X66148186Y-42405029D01*
X66153399Y-42364433D01*
X66147434Y-42355395D01*
X66114660Y-42345010D01*
X66034399Y-42327451D01*
X65914930Y-42304294D01*
X65764530Y-42277113D01*
X65591474Y-42247483D01*
X65507276Y-42233585D01*
X65327568Y-42203945D01*
X65167550Y-42176946D01*
X65035286Y-42153998D01*
X64938842Y-42136511D01*
X64886279Y-42125898D01*
X64879030Y-42123686D01*
X64872307Y-42094483D01*
X64858330Y-42017509D01*
X64838450Y-41900777D01*
X64814019Y-41752301D01*
X64786385Y-41580093D01*
X64771563Y-41486147D01*
X64742472Y-41303789D01*
X64715429Y-41140027D01*
X64691878Y-41003142D01*
X64673260Y-40901416D01*
X64661020Y-40843131D01*
X64657778Y-40832926D01*
X64644003Y-40820177D01*
X64625648Y-40825717D01*
X64625648Y-40825717D01*
G37*
X64625648Y-40825717D02*
X64599656Y-40854538D01*
X64562975Y-40911629D01*
X64512548Y-41001982D01*
X64445321Y-41130585D01*
X64358238Y-41302430D01*
X64303689Y-41411346D01*
X64221614Y-41575378D01*
X64148219Y-41721575D01*
X64087165Y-41842688D01*
X64042111Y-41931466D01*
X64016719Y-41980656D01*
X64012524Y-41988159D01*
X63983991Y-41985929D01*
X63907692Y-41975524D01*
X63791522Y-41958142D01*
X63643375Y-41934980D01*
X63471146Y-41907239D01*
X63368008Y-41890297D01*
X63184843Y-41861049D01*
X63020374Y-41836773D01*
X62882724Y-41818507D01*
X62780017Y-41807288D01*
X62720378Y-41804150D01*
X62708915Y-41806206D01*
X62721943Y-41831253D01*
X62770030Y-41890054D01*
X62847924Y-41976853D01*
X62950370Y-42085897D01*
X63072115Y-42211432D01*
X63157716Y-42297754D01*
X63627890Y-42767929D01*
X63326709Y-43353501D01*
X63242443Y-43520099D01*
X63169232Y-43670193D01*
X63110396Y-43796524D01*
X63069256Y-43891833D01*
X63049131Y-43948859D01*
X63048548Y-43961703D01*
X63079053Y-43955712D01*
X63152205Y-43926655D01*
X63260757Y-43877860D01*
X63397463Y-43812657D01*
X63555076Y-43734374D01*
X63659074Y-43681268D01*
X64246578Y-43378204D01*
X64690443Y-43843546D01*
X64819422Y-43977069D01*
X64937041Y-44095625D01*
X65037285Y-44193409D01*
X65114137Y-44264613D01*
X65161579Y-44303430D01*
X65172641Y-44308888D01*
X65202996Y-44285175D01*
X65210973Y-44248260D01*
X65206427Y-44203109D01*
X65193725Y-44111535D01*
X65174269Y-43982745D01*
X65149461Y-43825945D01*
X65120704Y-43650342D01*
X65111482Y-43595159D01*
X65082447Y-43419916D01*
X65057479Y-43264675D01*
X65037829Y-43137616D01*
X65024752Y-43046919D01*
X65019502Y-43000763D01*
X65019759Y-42996633D01*
X65046091Y-42982696D01*
X65115457Y-42947066D01*
X65220503Y-42893490D01*
X65353876Y-42825715D01*
X65508224Y-42747487D01*
X65577862Y-42712251D01*
X65739982Y-42629431D01*
X65885032Y-42553757D01*
X66005411Y-42489322D01*
X66093519Y-42440222D01*
X66141753Y-42410551D01*
X66148186Y-42405029D01*
X66153399Y-42364433D01*
X66147434Y-42355395D01*
X66114660Y-42345010D01*
X66034399Y-42327451D01*
X65914930Y-42304294D01*
X65764530Y-42277113D01*
X65591474Y-42247483D01*
X65507276Y-42233585D01*
X65327568Y-42203945D01*
X65167550Y-42176946D01*
X65035286Y-42153998D01*
X64938842Y-42136511D01*
X64886279Y-42125898D01*
X64879030Y-42123686D01*
X64872307Y-42094483D01*
X64858330Y-42017509D01*
X64838450Y-41900777D01*
X64814019Y-41752301D01*
X64786385Y-41580093D01*
X64771563Y-41486147D01*
X64742472Y-41303789D01*
X64715429Y-41140027D01*
X64691878Y-41003142D01*
X64673260Y-40901416D01*
X64661020Y-40843131D01*
X64657778Y-40832926D01*
X64644003Y-40820177D01*
X64625648Y-40825717D01*
G36*
X71260364Y-42806959D02*
G01*
X71213986Y-42867463D01*
X71153700Y-42967528D01*
X71077086Y-43110920D01*
X70981728Y-43301404D01*
X70948131Y-43370300D01*
X70869053Y-43533044D01*
X70798529Y-43677803D01*
X70740179Y-43797179D01*
X70697621Y-43883772D01*
X70674476Y-43930185D01*
X70671383Y-43935960D01*
X70643037Y-43933884D01*
X70567229Y-43923519D01*
X70452129Y-43906115D01*
X70305907Y-43882921D01*
X70136735Y-43855186D01*
X70071245Y-43844238D01*
X69853556Y-43807937D01*
X69685195Y-43780789D01*
X69559890Y-43762223D01*
X69471367Y-43751666D01*
X69413354Y-43748549D01*
X69379579Y-43752298D01*
X69363769Y-43762344D01*
X69359652Y-43778114D01*
X69359639Y-43779410D01*
X69378809Y-43808627D01*
X69432547Y-43871337D01*
X69515192Y-43961440D01*
X69621086Y-44072834D01*
X69744569Y-44199417D01*
X69815011Y-44270377D01*
X70270383Y-44726377D01*
X69984345Y-45280687D01*
X69879116Y-45487110D01*
X69799896Y-45648881D01*
X69744944Y-45770499D01*
X69712518Y-45856463D01*
X69700874Y-45911272D01*
X69708271Y-45939425D01*
X69726787Y-45945777D01*
X69759085Y-45933319D01*
X69833898Y-45898407D01*
X69943720Y-45844736D01*
X70081044Y-45776001D01*
X70238362Y-45695898D01*
X70322892Y-45652366D01*
X70890516Y-45358956D01*
X71342273Y-45821700D01*
X71473187Y-45954133D01*
X71592595Y-46071780D01*
X71694428Y-46168914D01*
X71772615Y-46239807D01*
X71821087Y-46278733D01*
X71832724Y-46284444D01*
X71862516Y-46259493D01*
X71871053Y-46206833D01*
X71866345Y-46156084D01*
X71853416Y-46059426D01*
X71833715Y-45926560D01*
X71808691Y-45767186D01*
X71779794Y-45591004D01*
X71773246Y-45552048D01*
X71744397Y-45379314D01*
X71719523Y-45226796D01*
X71699923Y-45102755D01*
X71686893Y-45015449D01*
X71681731Y-44973137D01*
X71681887Y-44970464D01*
X71707590Y-44956800D01*
X71776209Y-44920974D01*
X71880517Y-44866739D01*
X72013290Y-44797851D01*
X72167301Y-44718064D01*
X72244858Y-44677925D01*
X72407445Y-44592954D01*
X72552933Y-44515304D01*
X72673860Y-44449087D01*
X72762764Y-44398420D01*
X72812183Y-44367418D01*
X72819543Y-44360994D01*
X72819821Y-44317662D01*
X72812078Y-44306927D01*
X72777907Y-44295292D01*
X72696317Y-44276797D01*
X72575692Y-44253056D01*
X72424418Y-44225685D01*
X72250878Y-44196301D01*
X72170015Y-44183212D01*
X71990352Y-44154074D01*
X71830142Y-44127208D01*
X71697545Y-44104057D01*
X71600717Y-44086060D01*
X71547817Y-44074658D01*
X71540510Y-44072055D01*
X71532712Y-44041688D01*
X71517861Y-43963593D01*
X71497345Y-43845852D01*
X71472554Y-43696546D01*
X71444875Y-43523759D01*
X71430263Y-43430290D01*
X71401705Y-43248808D01*
X71375413Y-43086803D01*
X71352763Y-42952340D01*
X71335128Y-42853482D01*
X71323882Y-42798292D01*
X71321065Y-42789574D01*
X71295251Y-42782251D01*
X71260364Y-42806959D01*
X71260364Y-42806959D01*
G37*
X71260364Y-42806959D02*
X71213986Y-42867463D01*
X71153700Y-42967528D01*
X71077086Y-43110920D01*
X70981728Y-43301404D01*
X70948131Y-43370300D01*
X70869053Y-43533044D01*
X70798529Y-43677803D01*
X70740179Y-43797179D01*
X70697621Y-43883772D01*
X70674476Y-43930185D01*
X70671383Y-43935960D01*
X70643037Y-43933884D01*
X70567229Y-43923519D01*
X70452129Y-43906115D01*
X70305907Y-43882921D01*
X70136735Y-43855186D01*
X70071245Y-43844238D01*
X69853556Y-43807937D01*
X69685195Y-43780789D01*
X69559890Y-43762223D01*
X69471367Y-43751666D01*
X69413354Y-43748549D01*
X69379579Y-43752298D01*
X69363769Y-43762344D01*
X69359652Y-43778114D01*
X69359639Y-43779410D01*
X69378809Y-43808627D01*
X69432547Y-43871337D01*
X69515192Y-43961440D01*
X69621086Y-44072834D01*
X69744569Y-44199417D01*
X69815011Y-44270377D01*
X70270383Y-44726377D01*
X69984345Y-45280687D01*
X69879116Y-45487110D01*
X69799896Y-45648881D01*
X69744944Y-45770499D01*
X69712518Y-45856463D01*
X69700874Y-45911272D01*
X69708271Y-45939425D01*
X69726787Y-45945777D01*
X69759085Y-45933319D01*
X69833898Y-45898407D01*
X69943720Y-45844736D01*
X70081044Y-45776001D01*
X70238362Y-45695898D01*
X70322892Y-45652366D01*
X70890516Y-45358956D01*
X71342273Y-45821700D01*
X71473187Y-45954133D01*
X71592595Y-46071780D01*
X71694428Y-46168914D01*
X71772615Y-46239807D01*
X71821087Y-46278733D01*
X71832724Y-46284444D01*
X71862516Y-46259493D01*
X71871053Y-46206833D01*
X71866345Y-46156084D01*
X71853416Y-46059426D01*
X71833715Y-45926560D01*
X71808691Y-45767186D01*
X71779794Y-45591004D01*
X71773246Y-45552048D01*
X71744397Y-45379314D01*
X71719523Y-45226796D01*
X71699923Y-45102755D01*
X71686893Y-45015449D01*
X71681731Y-44973137D01*
X71681887Y-44970464D01*
X71707590Y-44956800D01*
X71776209Y-44920974D01*
X71880517Y-44866739D01*
X72013290Y-44797851D01*
X72167301Y-44718064D01*
X72244858Y-44677925D01*
X72407445Y-44592954D01*
X72552933Y-44515304D01*
X72673860Y-44449087D01*
X72762764Y-44398420D01*
X72812183Y-44367418D01*
X72819543Y-44360994D01*
X72819821Y-44317662D01*
X72812078Y-44306927D01*
X72777907Y-44295292D01*
X72696317Y-44276797D01*
X72575692Y-44253056D01*
X72424418Y-44225685D01*
X72250878Y-44196301D01*
X72170015Y-44183212D01*
X71990352Y-44154074D01*
X71830142Y-44127208D01*
X71697545Y-44104057D01*
X71600717Y-44086060D01*
X71547817Y-44074658D01*
X71540510Y-44072055D01*
X71532712Y-44041688D01*
X71517861Y-43963593D01*
X71497345Y-43845852D01*
X71472554Y-43696546D01*
X71444875Y-43523759D01*
X71430263Y-43430290D01*
X71401705Y-43248808D01*
X71375413Y-43086803D01*
X71352763Y-42952340D01*
X71335128Y-42853482D01*
X71323882Y-42798292D01*
X71321065Y-42789574D01*
X71295251Y-42782251D01*
X71260364Y-42806959D01*
G36*
X84884522Y-42876815D02*
G01*
X84869875Y-42894339D01*
X84859973Y-42930195D01*
X84843825Y-43010552D01*
X84823539Y-43124089D01*
X84801223Y-43259485D01*
X84797609Y-43282395D01*
X84770879Y-43450763D01*
X84742059Y-43628800D01*
X84714902Y-43793503D01*
X84696011Y-43905347D01*
X84651362Y-44165027D01*
X84533778Y-44180317D01*
X84344948Y-44205420D01*
X84152138Y-44232025D01*
X83963790Y-44258866D01*
X83788351Y-44284677D01*
X83634263Y-44308192D01*
X83509971Y-44328144D01*
X83423918Y-44343268D01*
X83384550Y-44352296D01*
X83383530Y-44352800D01*
X83361073Y-44374135D01*
X83362181Y-44400038D01*
X83391492Y-44433972D01*
X83453646Y-44479402D01*
X83553280Y-44539792D01*
X83695033Y-44618605D01*
X83851750Y-44702483D01*
X84055930Y-44811281D01*
X84214420Y-44897252D01*
X84331866Y-44963115D01*
X84412910Y-45011587D01*
X84462198Y-45045388D01*
X84484373Y-45067236D01*
X84486750Y-45074223D01*
X84482338Y-45108815D01*
X84469991Y-45190624D01*
X84451045Y-45311192D01*
X84426836Y-45462058D01*
X84398701Y-45634762D01*
X84386741Y-45707496D01*
X84358178Y-45886495D01*
X84334357Y-46047097D01*
X84316385Y-46180839D01*
X84305370Y-46279260D01*
X84302419Y-46333898D01*
X84303740Y-46341590D01*
X84343641Y-46368249D01*
X84351898Y-46369111D01*
X84380088Y-46350011D01*
X84441921Y-46296490D01*
X84531303Y-46214210D01*
X84642139Y-46108836D01*
X84768335Y-45986033D01*
X84835893Y-45919265D01*
X85288740Y-45469420D01*
X85543912Y-45600973D01*
X85681904Y-45673530D01*
X85843825Y-45760812D01*
X86004733Y-45849298D01*
X86087332Y-45895596D01*
X86245162Y-45980912D01*
X86360920Y-46033875D01*
X86438048Y-46055519D01*
X86479983Y-46046880D01*
X86490528Y-46016933D01*
X86478402Y-45980174D01*
X86444502Y-45901115D01*
X86392551Y-45787813D01*
X86326270Y-45648326D01*
X86249378Y-45490714D01*
X86222417Y-45436313D01*
X86142949Y-45275052D01*
X86072837Y-45129845D01*
X86015790Y-45008613D01*
X85975514Y-44919274D01*
X85955715Y-44869750D01*
X85954306Y-44863434D01*
X85973897Y-44834688D01*
X86028685Y-44773509D01*
X86112689Y-44686072D01*
X86219931Y-44578551D01*
X86344429Y-44457121D01*
X86391750Y-44411736D01*
X86551627Y-44256937D01*
X86672015Y-44134850D01*
X86756149Y-44041302D01*
X86807265Y-43972122D01*
X86828599Y-43923134D01*
X86823387Y-43890167D01*
X86807542Y-43875504D01*
X86774986Y-43875651D01*
X86696788Y-43883012D01*
X86583086Y-43896186D01*
X86444022Y-43913770D01*
X86289736Y-43934363D01*
X86130366Y-43956564D01*
X85976055Y-43978970D01*
X85836940Y-44000180D01*
X85723164Y-44018793D01*
X85644865Y-44033406D01*
X85618519Y-44039863D01*
X85582533Y-44041129D01*
X85545031Y-44017519D01*
X85501537Y-43962885D01*
X85447574Y-43871080D01*
X85378665Y-43735956D01*
X85341779Y-43659777D01*
X85276425Y-43523438D01*
X85199481Y-43362995D01*
X85123789Y-43205223D01*
X85094753Y-43144722D01*
X85022734Y-43004091D01*
X84965366Y-42914430D01*
X84920134Y-42872938D01*
X84884522Y-42876815D01*
X84884522Y-42876815D01*
G37*
X84884522Y-42876815D02*
X84869875Y-42894339D01*
X84859973Y-42930195D01*
X84843825Y-43010552D01*
X84823539Y-43124089D01*
X84801223Y-43259485D01*
X84797609Y-43282395D01*
X84770879Y-43450763D01*
X84742059Y-43628800D01*
X84714902Y-43793503D01*
X84696011Y-43905347D01*
X84651362Y-44165027D01*
X84533778Y-44180317D01*
X84344948Y-44205420D01*
X84152138Y-44232025D01*
X83963790Y-44258866D01*
X83788351Y-44284677D01*
X83634263Y-44308192D01*
X83509971Y-44328144D01*
X83423918Y-44343268D01*
X83384550Y-44352296D01*
X83383530Y-44352800D01*
X83361073Y-44374135D01*
X83362181Y-44400038D01*
X83391492Y-44433972D01*
X83453646Y-44479402D01*
X83553280Y-44539792D01*
X83695033Y-44618605D01*
X83851750Y-44702483D01*
X84055930Y-44811281D01*
X84214420Y-44897252D01*
X84331866Y-44963115D01*
X84412910Y-45011587D01*
X84462198Y-45045388D01*
X84484373Y-45067236D01*
X84486750Y-45074223D01*
X84482338Y-45108815D01*
X84469991Y-45190624D01*
X84451045Y-45311192D01*
X84426836Y-45462058D01*
X84398701Y-45634762D01*
X84386741Y-45707496D01*
X84358178Y-45886495D01*
X84334357Y-46047097D01*
X84316385Y-46180839D01*
X84305370Y-46279260D01*
X84302419Y-46333898D01*
X84303740Y-46341590D01*
X84343641Y-46368249D01*
X84351898Y-46369111D01*
X84380088Y-46350011D01*
X84441921Y-46296490D01*
X84531303Y-46214210D01*
X84642139Y-46108836D01*
X84768335Y-45986033D01*
X84835893Y-45919265D01*
X85288740Y-45469420D01*
X85543912Y-45600973D01*
X85681904Y-45673530D01*
X85843825Y-45760812D01*
X86004733Y-45849298D01*
X86087332Y-45895596D01*
X86245162Y-45980912D01*
X86360920Y-46033875D01*
X86438048Y-46055519D01*
X86479983Y-46046880D01*
X86490528Y-46016933D01*
X86478402Y-45980174D01*
X86444502Y-45901115D01*
X86392551Y-45787813D01*
X86326270Y-45648326D01*
X86249378Y-45490714D01*
X86222417Y-45436313D01*
X86142949Y-45275052D01*
X86072837Y-45129845D01*
X86015790Y-45008613D01*
X85975514Y-44919274D01*
X85955715Y-44869750D01*
X85954306Y-44863434D01*
X85973897Y-44834688D01*
X86028685Y-44773509D01*
X86112689Y-44686072D01*
X86219931Y-44578551D01*
X86344429Y-44457121D01*
X86391750Y-44411736D01*
X86551627Y-44256937D01*
X86672015Y-44134850D01*
X86756149Y-44041302D01*
X86807265Y-43972122D01*
X86828599Y-43923134D01*
X86823387Y-43890167D01*
X86807542Y-43875504D01*
X86774986Y-43875651D01*
X86696788Y-43883012D01*
X86583086Y-43896186D01*
X86444022Y-43913770D01*
X86289736Y-43934363D01*
X86130366Y-43956564D01*
X85976055Y-43978970D01*
X85836940Y-44000180D01*
X85723164Y-44018793D01*
X85644865Y-44033406D01*
X85618519Y-44039863D01*
X85582533Y-44041129D01*
X85545031Y-44017519D01*
X85501537Y-43962885D01*
X85447574Y-43871080D01*
X85378665Y-43735956D01*
X85341779Y-43659777D01*
X85276425Y-43523438D01*
X85199481Y-43362995D01*
X85123789Y-43205223D01*
X85094753Y-43144722D01*
X85022734Y-43004091D01*
X84965366Y-42914430D01*
X84920134Y-42872938D01*
X84884522Y-42876815D01*
G36*
X77824488Y-43435843D02*
G01*
X77809501Y-43445737D01*
X77795509Y-43470224D01*
X77780837Y-43515850D01*
X77763813Y-43589157D01*
X77742764Y-43696689D01*
X77716017Y-43844991D01*
X77681897Y-44040607D01*
X77671111Y-44102925D01*
X77640009Y-44278397D01*
X77610867Y-44434789D01*
X77585382Y-44563621D01*
X77565251Y-44656410D01*
X77552171Y-44704676D01*
X77549782Y-44709303D01*
X77516001Y-44719343D01*
X77436684Y-44733620D01*
X77322432Y-44750486D01*
X77183848Y-44768293D01*
X77128568Y-44774786D01*
X76882729Y-44803600D01*
X76687667Y-44828197D01*
X76537960Y-44849591D01*
X76428183Y-44868798D01*
X76352912Y-44886831D01*
X76306724Y-44904707D01*
X76284196Y-44923440D01*
X76280082Y-44933583D01*
X76291460Y-44957519D01*
X76335182Y-44994830D01*
X76415183Y-45048022D01*
X76535401Y-45119597D01*
X76699772Y-45212059D01*
X76830036Y-45283396D01*
X76991219Y-45371107D01*
X77134998Y-45449541D01*
X77254223Y-45514780D01*
X77341745Y-45562909D01*
X77390414Y-45590011D01*
X77397958Y-45594465D01*
X77395958Y-45623169D01*
X77384584Y-45697816D01*
X77365437Y-45808982D01*
X77340117Y-45947243D01*
X77320766Y-46048948D01*
X77274530Y-46289025D01*
X77238361Y-46479438D01*
X77211599Y-46625937D01*
X77193587Y-46734276D01*
X77183666Y-46810205D01*
X77181178Y-46859477D01*
X77185463Y-46887842D01*
X77195864Y-46901053D01*
X77211722Y-46904860D01*
X77222748Y-46905029D01*
X77262055Y-46886074D01*
X77331760Y-46834439D01*
X77422604Y-46757615D01*
X77525331Y-46663093D01*
X77544084Y-46645053D01*
X77666674Y-46526389D01*
X77795796Y-46401516D01*
X77915134Y-46286205D01*
X77999458Y-46204825D01*
X78186721Y-46024271D01*
X78309903Y-46094482D01*
X78403362Y-46146835D01*
X78517865Y-46209727D01*
X78602417Y-46255451D01*
X78701073Y-46309100D01*
X78828943Y-46379713D01*
X78966200Y-46456304D01*
X79045809Y-46501121D01*
X79181823Y-46574894D01*
X79277186Y-46618190D01*
X79337813Y-46632435D01*
X79369619Y-46619051D01*
X79378528Y-46581227D01*
X79366546Y-46545534D01*
X79333008Y-46467197D01*
X79281530Y-46354094D01*
X79215726Y-46214103D01*
X79139210Y-46055103D01*
X79105074Y-45985211D01*
X78831619Y-45427749D01*
X79289269Y-44988263D01*
X79439919Y-44841224D01*
X79564880Y-44714428D01*
X79660187Y-44612144D01*
X79721874Y-44538644D01*
X79745978Y-44498199D01*
X79746168Y-44496101D01*
X79742545Y-44477375D01*
X79728317Y-44464293D01*
X79697529Y-44457221D01*
X79644227Y-44456526D01*
X79562456Y-44462573D01*
X79446262Y-44475729D01*
X79289689Y-44496361D01*
X79086784Y-44524833D01*
X78942409Y-44545532D01*
X78771639Y-44568182D01*
X78630549Y-44583021D01*
X78527067Y-44589409D01*
X78469115Y-44586704D01*
X78462365Y-44584367D01*
X78432124Y-44549498D01*
X78386438Y-44475754D01*
X78332814Y-44375827D01*
X78302818Y-44314643D01*
X78187024Y-44071434D01*
X78092462Y-43875103D01*
X78016821Y-43721230D01*
X77957788Y-43605395D01*
X77913050Y-43523177D01*
X77880296Y-43470156D01*
X77857211Y-43441910D01*
X77842142Y-43434000D01*
X77824488Y-43435843D01*
X77824488Y-43435843D01*
G37*
X77824488Y-43435843D02*
X77809501Y-43445737D01*
X77795509Y-43470224D01*
X77780837Y-43515850D01*
X77763813Y-43589157D01*
X77742764Y-43696689D01*
X77716017Y-43844991D01*
X77681897Y-44040607D01*
X77671111Y-44102925D01*
X77640009Y-44278397D01*
X77610867Y-44434789D01*
X77585382Y-44563621D01*
X77565251Y-44656410D01*
X77552171Y-44704676D01*
X77549782Y-44709303D01*
X77516001Y-44719343D01*
X77436684Y-44733620D01*
X77322432Y-44750486D01*
X77183848Y-44768293D01*
X77128568Y-44774786D01*
X76882729Y-44803600D01*
X76687667Y-44828197D01*
X76537960Y-44849591D01*
X76428183Y-44868798D01*
X76352912Y-44886831D01*
X76306724Y-44904707D01*
X76284196Y-44923440D01*
X76280082Y-44933583D01*
X76291460Y-44957519D01*
X76335182Y-44994830D01*
X76415183Y-45048022D01*
X76535401Y-45119597D01*
X76699772Y-45212059D01*
X76830036Y-45283396D01*
X76991219Y-45371107D01*
X77134998Y-45449541D01*
X77254223Y-45514780D01*
X77341745Y-45562909D01*
X77390414Y-45590011D01*
X77397958Y-45594465D01*
X77395958Y-45623169D01*
X77384584Y-45697816D01*
X77365437Y-45808982D01*
X77340117Y-45947243D01*
X77320766Y-46048948D01*
X77274530Y-46289025D01*
X77238361Y-46479438D01*
X77211599Y-46625937D01*
X77193587Y-46734276D01*
X77183666Y-46810205D01*
X77181178Y-46859477D01*
X77185463Y-46887842D01*
X77195864Y-46901053D01*
X77211722Y-46904860D01*
X77222748Y-46905029D01*
X77262055Y-46886074D01*
X77331760Y-46834439D01*
X77422604Y-46757615D01*
X77525331Y-46663093D01*
X77544084Y-46645053D01*
X77666674Y-46526389D01*
X77795796Y-46401516D01*
X77915134Y-46286205D01*
X77999458Y-46204825D01*
X78186721Y-46024271D01*
X78309903Y-46094482D01*
X78403362Y-46146835D01*
X78517865Y-46209727D01*
X78602417Y-46255451D01*
X78701073Y-46309100D01*
X78828943Y-46379713D01*
X78966200Y-46456304D01*
X79045809Y-46501121D01*
X79181823Y-46574894D01*
X79277186Y-46618190D01*
X79337813Y-46632435D01*
X79369619Y-46619051D01*
X79378528Y-46581227D01*
X79366546Y-46545534D01*
X79333008Y-46467197D01*
X79281530Y-46354094D01*
X79215726Y-46214103D01*
X79139210Y-46055103D01*
X79105074Y-45985211D01*
X78831619Y-45427749D01*
X79289269Y-44988263D01*
X79439919Y-44841224D01*
X79564880Y-44714428D01*
X79660187Y-44612144D01*
X79721874Y-44538644D01*
X79745978Y-44498199D01*
X79746168Y-44496101D01*
X79742545Y-44477375D01*
X79728317Y-44464293D01*
X79697529Y-44457221D01*
X79644227Y-44456526D01*
X79562456Y-44462573D01*
X79446262Y-44475729D01*
X79289689Y-44496361D01*
X79086784Y-44524833D01*
X78942409Y-44545532D01*
X78771639Y-44568182D01*
X78630549Y-44583021D01*
X78527067Y-44589409D01*
X78469115Y-44586704D01*
X78462365Y-44584367D01*
X78432124Y-44549498D01*
X78386438Y-44475754D01*
X78332814Y-44375827D01*
X78302818Y-44314643D01*
X78187024Y-44071434D01*
X78092462Y-43875103D01*
X78016821Y-43721230D01*
X77957788Y-43605395D01*
X77913050Y-43523177D01*
X77880296Y-43470156D01*
X77857211Y-43441910D01*
X77842142Y-43434000D01*
X77824488Y-43435843D01*
D13*
X216693750Y-114300000D03*
D14*
X221773750Y-114300000D03*
X211613750Y-114300000D03*
D13*
X211931250Y-114300000D03*
D14*
X206851250Y-114300000D03*
X217011250Y-114300000D03*
X66357500Y-114300000D03*
X76517500Y-114300000D03*
D13*
X71437500Y-114300000D03*
X85725000Y-106045000D03*
X200025000Y-106045000D03*
D15*
X85725000Y-121285000D03*
X200025000Y-121285000D03*
X192874900Y-121285000D03*
X92875100Y-121285000D03*
D13*
X192874900Y-106045000D03*
X92875100Y-106045000D03*
X223837500Y-114300000D03*
D14*
X228917500Y-114300000D03*
X218757500Y-114300000D03*
D13*
X221456250Y-114300000D03*
D14*
X226536250Y-114300000D03*
X216376250Y-114300000D03*
X209232500Y-114300000D03*
X219392500Y-114300000D03*
D13*
X214312500Y-114300000D03*
D14*
X56832500Y-114300000D03*
X66992500Y-114300000D03*
D13*
X61912500Y-114300000D03*
X69056250Y-114300000D03*
D14*
X74136250Y-114300000D03*
X63976250Y-114300000D03*
X59213750Y-114300000D03*
X69373750Y-114300000D03*
D13*
X64293750Y-114300000D03*
D14*
X78898750Y-114300000D03*
X68738750Y-114300000D03*
D13*
X73818750Y-114300000D03*
D14*
X223520000Y-95250000D03*
X233680000Y-95250000D03*
D13*
X228600000Y-95250000D03*
D14*
X223520000Y-57150000D03*
X233680000Y-57150000D03*
D13*
X228600000Y-57150000D03*
D14*
X90170000Y-114300000D03*
X100330000Y-114300000D03*
D13*
X95250000Y-114300000D03*
D14*
X166370000Y-114300000D03*
X176530000Y-114300000D03*
D13*
X171450000Y-114300000D03*
D14*
X137795000Y-38100000D03*
X147955000Y-38100000D03*
D13*
X142875000Y-38100000D03*
D14*
X194945000Y-38100000D03*
X205105000Y-38100000D03*
D13*
X200025000Y-38100000D03*
D14*
X213995000Y-38100000D03*
X224155000Y-38100000D03*
D13*
X219075000Y-38100000D03*
D16*
X103505000Y-30480000D03*
D17*
X106045000Y-30480000D03*
X108585000Y-30480000D03*
X111125000Y-30480000D03*
X113665000Y-30480000D03*
X116205000Y-30480000D03*
X118745000Y-30480000D03*
X121285000Y-30480000D03*
X123825000Y-30480000D03*
X126365000Y-30480000D03*
X128905000Y-30480000D03*
X131445000Y-45720000D03*
X128905000Y-45720000D03*
X126365000Y-45720000D03*
X123825000Y-45720000D03*
X121285000Y-45720000D03*
X118745000Y-45720000D03*
X116205000Y-45720000D03*
X113665000Y-45720000D03*
X111125000Y-45720000D03*
X108585000Y-45720000D03*
X106045000Y-45720000D03*
X131445000Y-30480000D03*
X103505000Y-45720000D03*
D13*
X150018750Y-106045000D03*
X173831250Y-106045000D03*
D15*
X150018750Y-121285000D03*
X173831250Y-121285000D03*
D14*
X156845000Y-114300000D03*
X167005000Y-114300000D03*
D13*
X161925000Y-114300000D03*
X111918750Y-106045000D03*
X135731250Y-106045000D03*
D15*
X111918750Y-121285000D03*
X135731250Y-121285000D03*
D14*
X118745000Y-114300000D03*
X128905000Y-114300000D03*
D13*
X123825000Y-114300000D03*
X142875000Y-114300000D03*
D14*
X147955000Y-114300000D03*
X137795000Y-114300000D03*
D15*
X190500000Y-121285000D03*
X95250000Y-121285000D03*
D13*
X190500000Y-106045000D03*
X95250000Y-106045000D03*
D14*
X175895000Y-38100000D03*
X186055000Y-38100000D03*
D13*
X180975000Y-38100000D03*
D14*
X156845000Y-38100000D03*
X167005000Y-38100000D03*
D13*
X161925000Y-38100000D03*
D14*
X223520000Y-114300000D03*
X233680000Y-114300000D03*
D13*
X228600000Y-114300000D03*
X209550000Y-114300000D03*
D14*
X214630000Y-114300000D03*
X204470000Y-114300000D03*
X185420000Y-114300000D03*
X195580000Y-114300000D03*
D13*
X190500000Y-114300000D03*
D14*
X147320000Y-114300000D03*
X157480000Y-114300000D03*
D13*
X152400000Y-114300000D03*
D14*
X128270000Y-114300000D03*
X138430000Y-114300000D03*
D13*
X133350000Y-114300000D03*
D14*
X109220000Y-114300000D03*
X119380000Y-114300000D03*
D13*
X114300000Y-114300000D03*
X76200000Y-114300000D03*
D14*
X81280000Y-114300000D03*
X71120000Y-114300000D03*
D13*
X57150000Y-114300000D03*
D14*
X62230000Y-114300000D03*
X52070000Y-114300000D03*
X204470000Y-95250000D03*
X214630000Y-95250000D03*
D13*
X209550000Y-95250000D03*
D14*
X185420000Y-95250000D03*
X195580000Y-95250000D03*
D13*
X190500000Y-95250000D03*
D14*
X166370000Y-95250000D03*
X176530000Y-95250000D03*
D13*
X171450000Y-95250000D03*
D14*
X147320000Y-95250000D03*
X157480000Y-95250000D03*
D13*
X152400000Y-95250000D03*
D14*
X128270000Y-95250000D03*
X138430000Y-95250000D03*
D13*
X133350000Y-95250000D03*
D14*
X109220000Y-95250000D03*
X119380000Y-95250000D03*
D13*
X114300000Y-95250000D03*
D14*
X90170000Y-95250000D03*
X100330000Y-95250000D03*
D13*
X95250000Y-95250000D03*
D14*
X71120000Y-95250000D03*
X81280000Y-95250000D03*
D13*
X76200000Y-95250000D03*
D14*
X52070000Y-95250000D03*
X62230000Y-95250000D03*
D13*
X57150000Y-95250000D03*
D14*
X223520000Y-76200000D03*
X233680000Y-76200000D03*
D13*
X228600000Y-76200000D03*
D14*
X204470000Y-76200000D03*
X214630000Y-76200000D03*
D13*
X209550000Y-76200000D03*
D14*
X185420000Y-76200000D03*
X195580000Y-76200000D03*
D13*
X190500000Y-76200000D03*
D14*
X166370000Y-76200000D03*
X176530000Y-76200000D03*
D13*
X171450000Y-76200000D03*
X152400000Y-76200000D03*
D14*
X157480000Y-76200000D03*
X147320000Y-76200000D03*
X128270000Y-76200000D03*
X138430000Y-76200000D03*
D13*
X133350000Y-76200000D03*
D14*
X109220000Y-76200000D03*
X119380000Y-76200000D03*
D13*
X114300000Y-76200000D03*
D14*
X90170000Y-76200000D03*
X100330000Y-76200000D03*
D13*
X95250000Y-76200000D03*
D14*
X71120000Y-76200000D03*
X81280000Y-76200000D03*
D13*
X76200000Y-76200000D03*
D14*
X52070000Y-76200000D03*
X62230000Y-76200000D03*
D13*
X57150000Y-76200000D03*
D14*
X204470000Y-57150000D03*
X214630000Y-57150000D03*
D13*
X209550000Y-57150000D03*
D14*
X185420000Y-57150000D03*
X195580000Y-57150000D03*
D13*
X190500000Y-57150000D03*
D14*
X166370000Y-57150000D03*
X176530000Y-57150000D03*
D13*
X171450000Y-57150000D03*
D14*
X147320000Y-57150000D03*
X157480000Y-57150000D03*
D13*
X152400000Y-57150000D03*
D14*
X128270000Y-57150000D03*
X138430000Y-57150000D03*
D13*
X133350000Y-57150000D03*
D14*
X109220000Y-57150000D03*
X119380000Y-57150000D03*
D13*
X114300000Y-57150000D03*
D14*
X90170000Y-57150000D03*
X100330000Y-57150000D03*
D13*
X95250000Y-57150000D03*
D14*
X71120000Y-57150000D03*
X81280000Y-57150000D03*
D13*
X76200000Y-57150000D03*
D14*
X52070000Y-57150000D03*
X62230000Y-57150000D03*
D13*
X57150000Y-57150000D03*
M02*
